# Blender v2.91.2 OBJ File: ''
# www.blender.org
mtllib Pine_tree_Small.mtl
o Cube_Cube.002
v -0.060152 -0.039317 0.060152
v -0.286441 2.143040 0.285325
v -0.060152 -0.039317 -0.060152
v -0.286441 2.153751 -0.155585
v 0.060152 -0.039317 0.060152
v 0.178438 2.148331 0.285325
v 0.060152 -0.039317 -0.060152
v 0.195610 2.148331 -0.155585
v 0.106860 2.120019 0.192249
v -0.190716 2.107086 0.192249
v -0.190716 2.121036 -0.117384
v 0.118400 2.120329 -0.097381
v -0.284853 2.143040 0.285325
v -0.052098 2.956201 0.041076
v 0.294262 1.505166 0.383253
v -0.358140 1.480243 -0.329170
v -0.343579 1.485023 0.387464
v 0.306305 1.493292 -0.331375
v -0.209630 1.447614 -0.161099
v 0.156796 1.453221 -0.147798
v 0.145220 1.468386 0.202192
v -0.206185 1.459730 0.204002
v -0.339180 0.726264 -0.309547
v 0.306562 0.732012 -0.295912
v 0.294695 0.747558 0.332982
v -0.335649 0.738685 0.334837
v -0.073495 0.675471 -0.044169
v 0.041652 0.676335 -0.042118
v 0.039867 0.678674 0.070494
v -0.080065 0.685712 0.077932
v -0.049018 0.232673 -0.006441
v 0.068707 0.233105 -0.005416
v 0.067815 0.234274 0.111042
v -0.052303 0.237793 0.114762
v -0.110150 0.501856 0.049756
v -0.105222 0.494175 -0.071896
v 0.011213 0.494824 -0.070358
v 0.009875 0.496578 0.044177
vt 0.480492 0.000000
vt 0.490570 0.000000
vt 0.479174 0.250000
vt 0.470090 0.250000
vt 0.489419 0.500000
vt 0.479443 0.500000
vt 0.494084 0.750000
vt 0.483700 0.750000
vt 0.490570 1.000000
vt 0.480492 1.000000
vt 0.125000 0.500000
vt 0.375000 0.500000
vt 0.375000 0.750000
vt 0.125000 0.750000
vt 0.625000 0.500000
vt 0.751087 0.622059
vt 0.625000 0.750000
vt 0.529536 1.000000
vt 0.531141 0.750000
vt 0.625000 0.999100
vt 0.625000 1.000000
vt 0.519757 0.250000
vt 0.529536 0.000000
vt 0.625000 0.000000
vt 0.625000 0.250000
vt 0.531365 0.500000
vt 0.874100 0.750000
vt 0.875000 0.500000
vt 0.875000 0.750000
vt 0.449129 0.750000
vt 0.446941 1.000000
vt 0.446225 0.500000
vt 0.439847 0.250000
vt 0.446941 0.000000
vt 0.438045 0.000000
vt 0.431828 0.250000
vt 0.437418 0.500000
vt 0.439962 0.750000
vt 0.438045 1.000000
vt 0.423722 0.750000
vt 0.422284 1.000000
vt 0.421813 0.500000
vt 0.417621 0.250000
vt 0.422284 0.000000
vt 0.375000 0.000000
vt 0.406523 0.000000
vt 0.403414 0.250000
vt 0.375000 0.250000
vt 0.406209 0.500000
vt 0.407481 0.750000
vt 0.406522 1.000000
vt 0.375000 1.000000
vn -0.1976 -0.9801 0.0186
vn 0.0199 -0.9791 -0.2024
vn 0.2494 -0.9679 0.0301
vn 0.0297 -0.9855 0.1669
vn 0.0000 -1.0000 0.0000
vn 0.9579 0.2846 0.0373
vn 0.0226 -0.9441 0.3288
vn -0.3453 -0.9380 -0.0308
vn 0.0069 -0.8455 -0.5339
vn 0.3512 -0.9362 0.0134
vn -0.0033 0.2885 0.9575
vn -0.9600 0.2797 0.0103
vn 0.0027 0.2373 -0.9714
vn 0.9573 0.2886 0.0192
vn -0.0062 0.2979 0.9546
vn -0.9692 0.2456 0.0159
vn 0.0130 0.3319 -0.9432
vn 0.0005 0.1785 0.9839
vn 0.9790 0.2030 0.0171
vn 0.0238 0.2016 -0.9792
vn -0.9843 0.1767 0.0025
vn -0.1956 -0.9803 0.0282
vn 0.0127 -0.9795 -0.2009
vn 0.2325 -0.9722 0.0277
vn 0.0052 -0.9735 0.2284
vn 0.0456 -0.1545 0.9869
vn 0.9859 -0.1663 0.0166
vn 0.0143 0.1500 -0.9886
vn -0.9827 0.1754 -0.0593
vn -0.9992 0.0374 -0.0144
vn 0.0039 0.1952 -0.9808
vn 0.9995 -0.0304 0.0039
vn 0.0124 -0.1885 0.9820
vn -0.9759 -0.2171 -0.0216
vn 0.0117 -0.2394 -0.9708
vn 0.9762 0.2167 0.0067
vn 0.0467 0.2524 0.9665
usemtl None
s off
f 22/1/1 17/2/1 16/3/1 19/4/1
f 19/4/2 16/3/2 18/5/2 20/6/2
f 20/6/3 18/5/3 15/7/3 21/8/3
f 21/8/4 15/7/4 17/9/4 22/10/4
f 3/11/5 7/12/5 5/13/5 1/14/5
f 8/15/6 14/16/6 6/17/6
f 10/18/7 9/19/7 6/17/7 13/20/7 2/21/7
f 11/22/8 10/23/8 2/24/8 4/25/8
f 12/26/9 11/22/9 4/25/9 8/15/9
f 9/19/10 12/26/10 8/15/10 6/17/10
f 6/17/11 14/16/11 13/27/11
f 13/27/12 14/16/12 4/28/12 2/29/12
f 4/28/13 14/16/13 8/15/13
f 15/7/14 18/5/14 12/26/14 9/19/14
f 17/9/15 15/7/15 9/19/15 10/18/15
f 16/3/16 17/2/16 10/23/16 11/22/16
f 18/5/17 16/3/17 11/22/17 12/26/17
f 25/30/18 21/8/18 22/10/18 26/31/18
f 24/32/19 20/6/19 21/8/19 25/30/19
f 23/33/20 19/4/20 20/6/20 24/32/20
f 26/34/21 22/1/21 19/4/21 23/33/21
f 30/35/22 26/34/22 23/33/22 27/36/22
f 27/36/23 23/33/23 24/32/23 28/37/23
f 28/37/24 24/32/24 25/30/24 29/38/24
f 29/38/25 25/30/25 26/31/25 30/39/25
f 38/40/26 29/38/26 30/39/26 35/41/26
f 37/42/27 28/37/27 29/38/27 38/40/27
f 36/43/28 27/36/28 28/37/28 37/42/28
f 35/44/29 30/35/29 27/36/29 36/43/29
f 1/45/30 34/46/30 31/47/30 3/48/30
f 3/48/31 31/47/31 32/49/31 7/12/31
f 7/12/32 32/49/32 33/50/32 5/13/32
f 5/13/33 33/50/33 34/51/33 1/52/33
f 34/46/34 35/44/34 36/43/34 31/47/34
f 31/47/35 36/43/35 37/42/35 32/49/35
f 32/49/36 37/42/36 38/40/36 33/50/36
f 33/50/37 38/40/37 35/41/37 34/51/37
