# Blender v2.91.2 OBJ File: ''
# www.blender.org
mtllib SmallPine.mtl
o Cube_Cube.001
v -0.056405 -0.007469 0.055190
v 0.000000 1.992531 0.000000
v -0.056405 -0.007469 -0.055190
v 0.056405 -0.007469 0.055190
v 0.056405 -0.007469 -0.055190
v -0.095106 1.554672 0.093058
v -0.095106 1.554672 -0.093058
v 0.095106 1.554672 -0.093058
v 0.095106 1.554672 0.093058
v -0.279020 1.118726 -0.273012
v 0.279020 1.118726 -0.273012
v 0.279020 1.118726 0.273012
v -0.279020 1.118726 0.273012
v -0.098871 1.102235 -0.096742
v 0.098871 1.102235 -0.096742
v 0.098871 1.102235 0.096742
v -0.098871 1.102235 0.096742
v -0.244047 1.574638 0.238792
v -0.244047 1.574638 -0.238792
v 0.244047 1.574638 -0.238792
v 0.244047 1.574638 0.238792
v -0.268421 0.611044 -0.262641
v 0.268421 0.611044 -0.262641
v 0.268421 0.611044 0.262641
v -0.268421 0.611044 0.262641
v -0.076376 0.605105 -0.074731
v 0.076376 0.605105 -0.074731
v 0.076376 0.605105 0.074731
v -0.076376 0.605105 0.074731
vt 0.583753 0.000000
vt 0.625000 0.250000
vt 0.583753 0.250000
vt 0.625000 0.500000
vt 0.583753 0.500000
vt 0.625000 0.750000
vt 0.583753 0.750000
vt 0.625000 1.000000
vt 0.583753 1.000000
vt 0.375000 0.500000
vt 0.125000 0.750000
vt 0.125000 0.500000
vt 0.570268 0.750000
vt 0.532903 1.000000
vt 0.532903 0.750000
vt 0.570268 0.500000
vt 0.532903 0.500000
vt 0.570268 0.250000
vt 0.532903 0.250000
vt 0.570268 0.000000
vt 0.532903 0.000000
vt 0.457182 0.250000
vt 0.457182 0.081831
vt 0.457182 0.500000
vt 0.457182 0.750000
vt 0.457182 0.918169
vt 0.428339 0.946888
vt 0.428339 0.750000
vt 0.428339 0.500000
vt 0.428339 0.250000
vt 0.428339 0.053112
vt 0.570268 1.000000
vt 0.420365 0.045172
vt 0.420366 0.250000
vt 0.420365 0.500000
vt 0.420365 0.750000
vt 0.420365 0.954828
vt 0.375000 1.000000
vt 0.375000 0.750000
vt 0.375000 0.250000
vt 0.375000 0.000000
vn -0.8635 0.5043 0.0000
vn 0.0000 0.4961 -0.8682
vn 0.8635 0.5043 0.0000
vn 0.0000 0.4961 0.8682
vn 0.0000 -1.0000 0.0000
vn 0.0000 0.3816 0.9243
vn 0.9214 0.3887 0.0000
vn 0.0000 0.3816 -0.9243
vn -0.9214 0.3887 0.0000
vn -0.0912 -0.9958 0.0000
vn 0.0000 -0.9957 -0.0931
vn 0.0912 -0.9958 0.0000
vn 0.0000 -0.9957 0.0931
vn -0.0000 0.3200 0.9474
vn 0.9453 0.3263 0.0000
vn 0.0000 0.3200 -0.9474
vn -0.9453 0.3263 0.0000
vn 0.0000 -0.9907 0.1357
vn 0.1329 -0.9911 0.0000
vn 0.0000 -0.9907 -0.1357
vn -0.1329 -0.9911 0.0000
vn -0.0309 -0.9995 0.0000
vn 0.0000 -0.9995 -0.0316
vn 0.0309 -0.9995 0.0000
vn 0.0000 -0.9995 0.0316
vn 0.0000 -0.0319 0.9995
vn 0.9995 -0.0326 0.0000
vn 0.0000 -0.0319 -0.9995
vn -0.9995 -0.0326 0.0000
usemtl Material.001
s off
f 18/1/1 2/2/1 19/3/1
f 19/3/2 2/4/2 20/5/2
f 20/5/3 2/6/3 21/7/3
f 21/7/4 2/8/4 18/9/4
f 5/10/5 1/11/5 3/12/5
f 9/13/6 13/14/6 12/15/6
f 8/16/7 12/15/7 11/17/7
f 7/18/8 11/17/8 10/19/8
f 6/20/9 10/19/9 13/21/9
f 13/21/10 14/22/10 17/23/10
f 10/19/11 15/24/11 14/22/11
f 11/17/12 16/25/12 15/24/12
f 12/15/13 17/26/13 16/25/13
f 16/25/14 25/27/14 24/28/14
f 23/29/15 16/25/15 24/28/15
f 22/30/16 15/24/16 23/29/16
f 25/31/17 14/22/17 22/30/17
f 21/7/18 6/32/18 9/13/18
f 20/5/19 9/13/19 8/16/19
f 19/3/20 8/16/20 7/18/20
f 18/1/21 7/18/21 6/20/21
f 29/33/22 22/30/22 26/34/22
f 22/30/23 27/35/23 26/34/23
f 23/29/24 28/36/24 27/35/24
f 24/28/25 29/37/25 28/36/25
f 28/36/26 1/38/26 4/39/26
f 27/35/27 4/39/27 5/10/27
f 26/34/28 5/10/28 3/40/28
f 29/33/29 3/40/29 1/41/29
f 5/10/5 4/39/5 1/11/5
f 9/13/6 6/32/6 13/14/6
f 8/16/7 9/13/7 12/15/7
f 7/18/8 8/16/8 11/17/8
f 6/20/9 7/18/9 10/19/9
f 13/21/10 10/19/10 14/22/10
f 10/19/11 11/17/11 15/24/11
f 11/17/12 12/15/12 16/25/12
f 12/15/13 13/14/13 17/26/13
f 16/25/14 17/26/14 25/27/14
f 23/29/15 15/24/15 16/25/15
f 22/30/16 14/22/16 15/24/16
f 25/31/17 17/23/17 14/22/17
f 21/7/18 18/9/18 6/32/18
f 20/5/19 21/7/19 9/13/19
f 19/3/20 20/5/20 8/16/20
f 18/1/21 19/3/21 7/18/21
f 29/33/22 25/31/22 22/30/22
f 22/30/23 23/29/23 27/35/23
f 23/29/24 24/28/24 28/36/24
f 24/28/25 25/27/25 29/37/25
f 28/36/26 29/37/26 1/38/26
f 27/35/27 28/36/27 4/39/27
f 26/34/28 27/35/28 5/10/28
f 29/33/29 26/34/29 3/40/29
