# Blender v2.91.2 OBJ File: 'SmallPine.blend'
# www.blender.org
mtllib SmallPineww.mtl
o Cube_Cube.001
v -0.056405 -0.007469 0.055190
v 0.000000 1.992531 0.000000
v -0.056405 -0.007469 -0.055190
v 0.056405 -0.007469 0.055190
v 0.056405 -0.007469 -0.055190
v -0.095106 1.554672 0.093058
v -0.095106 1.554672 -0.093058
v 0.095106 1.554672 -0.093058
v 0.095106 1.554672 0.093058
v -0.279020 1.118726 -0.273012
v 0.235635 1.057068 -0.199017
v 0.279020 1.118726 0.273012
v -0.248857 1.084562 0.260454
v -0.098871 1.102235 -0.096742
v 0.098871 1.102235 -0.096742
v 0.098871 1.102235 0.096742
v -0.098871 1.102235 0.096742
v -0.216758 1.569935 0.180698
v -0.244047 1.574638 -0.238792
v 0.244047 1.574638 -0.238792
v 0.244047 1.574638 0.238792
v -0.268421 0.611044 -0.262641
v 0.268421 0.611044 -0.262641
v 0.268421 0.611044 0.262641
v -0.268421 0.611044 0.262641
v -0.076376 0.605105 -0.074731
v 0.076376 0.605105 -0.074731
v 0.076376 0.605105 0.074731
v -0.076376 0.605105 0.074731
v -0.048853 1.558460 -0.271418
vt 0.583753 0.000000
vt 0.625000 0.250000
vt 0.583753 0.250000
vt 0.625000 0.500000
vt 0.583753 0.349860
vt 0.583753 0.500000
vt 0.625000 0.750000
vt 0.583753 0.750000
vt 0.625000 1.000000
vt 0.583753 1.000000
vt 0.375000 0.500000
vt 0.125000 0.750000
vt 0.125000 0.500000
vt 0.570268 0.750000
vt 0.532903 1.000000
vt 0.532903 0.750000
vt 0.532903 0.500000
vt 0.570268 0.250000
vt 0.532903 0.250000
vt 0.532903 0.000000
vt 0.457182 0.250000
vt 0.457182 0.081831
vt 0.457182 0.500000
vt 0.457182 0.750000
vt 0.457182 0.918169
vt 0.428339 0.946888
vt 0.428339 0.750000
vt 0.428339 0.500000
vt 0.428339 0.250000
vt 0.428339 0.053112
vt 0.570268 1.000000
vt 0.570268 0.500000
vt 0.570268 0.000000
vt 0.420365 0.045172
vt 0.420366 0.250000
vt 0.420365 0.500000
vt 0.420365 0.750000
vt 0.420365 0.954828
vt 0.375000 1.000000
vt 0.375000 0.750000
vt 0.375000 0.250000
vt 0.375000 0.000000
vn -0.8770 0.4765 0.0624
vn -0.0959 0.5355 -0.8391
vn 0.8635 0.5043 0.0000
vn -0.1167 0.4405 0.8901
vn 0.0000 -1.0000 0.0000
vn -0.0457 0.3646 0.9300
vn 0.9316 0.3394 -0.1300
vn 0.1718 0.3131 -0.9341
vn -0.9295 0.3609 0.0757
vn 0.1170 -0.9931 0.0000
vn 0.0000 -0.9148 0.4040
vn -0.3136 -0.9496 0.0000
vn 0.0000 -0.9942 -0.1073
vn -0.0000 0.3200 0.9474
vn 0.9453 0.3263 0.0000
vn 0.0000 0.3200 -0.9474
vn -0.9453 0.3263 0.0000
vn 0.0000 -0.9907 0.1357
vn 0.1329 -0.9911 0.0000
vn 0.0630 -0.9954 -0.0720
vn -0.1245 -0.9922 0.0000
vn -0.0309 -0.9995 0.0000
vn 0.0000 -0.9995 -0.0316
vn 0.0309 -0.9995 0.0000
vn 0.0000 -0.9995 0.0316
vn 0.0000 -0.0319 0.9995
vn 0.9995 -0.0326 0.0000
vn 0.0000 -0.0319 -0.9995
vn -0.9995 -0.0326 0.0000
vn 0.0657 0.5237 -0.8494
vn 0.0000 0.3354 0.9421
vn 0.9624 0.2718 0.0000
vn 0.0000 0.2083 -0.9781
vn -0.9505 0.3108 0.0000
vn -0.0305 -0.9976 -0.0622
vn -0.1236 -0.9918 0.0336
vn -0.0395 -0.9903 0.1330
vn 0.0639 -0.9976 0.0280
vn -0.0099 -0.9873 0.1583
vn 0.0000 -0.9998 -0.0212
vn -0.0899 -0.9950 -0.0444
vn -0.1303 -0.9915 -0.0026
usemtl Material.001
s off
f 18/1/1 2/2/1 19/3/1
f 19/3/2 2/4/2 30/5/2
f 20/6/3 2/7/3 21/8/3
f 21/8/4 2/9/4 18/10/4
f 5/11/5 1/12/5 3/13/5
f 9/14/6 13/15/6 12/16/6
f 11/17/7 9/14/7 12/16/7
f 7/18/8 11/17/8 10/19/8
f 13/20/9 7/18/9 10/19/9
f 13/20/10 14/21/10 17/22/10
f 14/21/11 11/17/11 15/23/11
f 11/17/12 16/24/12 15/23/12
f 16/24/13 13/15/13 17/25/13
f 16/24/14 25/26/14 24/27/14
f 23/28/15 16/24/15 24/27/15
f 22/29/16 15/23/16 23/28/16
f 25/30/17 14/21/17 22/29/17
f 21/8/18 6/31/18 9/14/18
f 20/6/19 9/14/19 8/32/19
f 30/5/20 20/6/20 8/32/20
f 18/1/21 7/18/21 6/33/21
f 29/34/22 22/29/22 26/35/22
f 22/29/23 27/36/23 26/35/23
f 23/28/24 28/37/24 27/36/24
f 24/27/25 29/38/25 28/37/25
f 28/37/26 1/39/26 4/40/26
f 27/36/27 4/40/27 5/11/27
f 26/35/28 5/11/28 3/41/28
f 29/34/29 3/41/29 1/42/29
f 30/5/30 2/4/30 20/6/30
f 5/11/5 4/40/5 1/12/5
f 9/14/31 6/31/31 13/15/31
f 11/17/32 8/32/32 9/14/32
f 7/18/33 8/32/33 11/17/33
f 13/20/34 6/33/34 7/18/34
f 13/20/35 10/19/35 14/21/35
f 14/21/36 10/19/36 11/17/36
f 11/17/37 12/16/37 16/24/37
f 16/24/38 12/16/38 13/15/38
f 16/24/14 17/25/14 25/26/14
f 23/28/15 15/23/15 16/24/15
f 22/29/16 14/21/16 15/23/16
f 25/30/17 17/22/17 14/21/17
f 21/8/39 18/10/39 6/31/39
f 20/6/19 21/8/19 9/14/19
f 8/32/40 7/18/40 30/5/40
f 7/18/41 19/3/41 30/5/41
f 18/1/42 19/3/42 7/18/42
f 29/34/22 25/30/22 22/29/22
f 22/29/23 23/28/23 27/36/23
f 23/28/24 24/27/24 28/37/24
f 24/27/25 25/26/25 29/38/25
f 28/37/26 29/38/26 1/39/26
f 27/36/27 28/37/27 4/40/27
f 26/35/28 27/36/28 5/11/28
f 29/34/29 26/35/29 3/41/29
