# Blender 4.3.2
# www.blender.org
mtllib Sack.mtl
o group181920446
v 0.116828 -0.165929 0.051348
v 0.099424 -0.164832 0.064403
v 0.053128 -0.105598 0.106495
v 0.127247 -0.093447 0.054327
v -0.036266 -0.149231 -0.131615
v -0.036245 -0.078705 -0.124462
v -0.118286 -0.104166 -0.064896
v -0.051521 -0.155622 -0.115986
v 0.039879 -0.165869 -0.043104
v -0.025787 -0.172216 0.011539
v 0.062446 0.151362 0.101149
v 0.038469 0.151252 0.126332
v -0.052030 0.166813 0.052502
v -0.029321 0.173580 0.030341
v 0.068460 -0.101835 -0.066998
v -0.059450 -0.110465 0.045188
v -0.093475 0.166221 -0.068500
v -0.048086 0.081277 -0.113897
v 0.050988 0.088769 -0.036428
v -0.109032 0.161327 -0.049758
v -0.039080 0.002963 -0.132899
v 0.073985 -0.016539 -0.071662
v -0.127235 0.074907 -0.054043
v -0.131324 -0.007157 -0.055600
v -0.067903 0.074296 0.064873
v -0.065476 -0.051778 0.062726
v 0.040813 0.063446 0.127338
v 0.037376 -0.035324 0.119801
v 0.104901 0.074151 0.082046
v 0.117173 -0.010511 0.072164
v 0.032469 0.144893 0.114844
v 0.038055 0.142421 0.107091
v 0.064803 0.173311 0.119311
v 0.051413 0.174291 0.138322
v 0.034920 0.138998 0.122373
v 0.042021 0.132884 0.119272
v 0.043959 0.134999 0.109828
v 0.081860 0.157989 0.123310
v 0.079011 0.149499 0.144792
v 0.060194 0.159574 0.154070
v 0.093531 0.185703 0.155383
v -0.100728 0.142661 -0.044933
v -0.092678 0.141812 -0.050583
v -0.114491 0.162383 -0.080914
v -0.130267 0.165748 -0.064137
v -0.099711 0.150750 -0.039370
v -0.091033 0.154902 -0.041581
v -0.086687 0.149378 -0.048511
v -0.099628 0.180289 -0.080507
v -0.106218 0.194720 -0.063478
v -0.125153 0.185733 -0.053360
v -0.135073 0.204491 -0.090042
v -0.037468 -0.136391 -0.113590
v -0.043054 -0.144200 -0.111304
v -0.043455 -0.153334 -0.152962
v -0.027573 -0.136394 -0.154534
v -0.028006 -0.138992 -0.112522
v -0.027745 -0.148409 -0.109576
v -0.037046 -0.151628 -0.108823
v -0.032228 -0.173413 -0.149430
v -0.009407 -0.168882 -0.148820
v -0.006530 -0.146003 -0.151974
v -0.014326 -0.165480 -0.188795
v 0.094118 -0.147724 0.056228
v 0.093760 -0.142650 0.047768
v 0.136305 -0.145482 0.046830
v 0.133486 -0.160028 0.064779
v 0.092859 -0.157281 0.054108
v 0.091722 -0.158115 0.044339
v 0.092279 -0.149072 0.040421
v 0.135784 -0.158043 0.027244
v 0.132642 -0.180352 0.033087
v 0.131222 -0.181578 0.056286
v 0.171520 -0.177587 0.043796
vn 0.5857 -0.1150 0.8023
vn -0.6185 0.0364 -0.7849
vn 0.0489 -0.9987 -0.0174
vn 0.0506 0.9800 0.1922
vn 0.8106 -0.3079 -0.4981
vn -0.3048 -0.6419 0.7036
vn 0.4912 0.7033 -0.5140
vn -0.2207 0.9728 0.0708
vn -0.6710 -0.7219 0.1693
vn 0.0167 -0.9870 -0.1597
vn 0.4656 -0.0767 -0.8817
vn -0.6275 0.0800 -0.7745
vn -0.8845 -0.0012 0.4665
vn -0.4909 -0.0353 0.8705
vn 0.5509 -0.0526 0.8329
vn 0.9113 0.2474 -0.3292
vn 0.5305 0.3238 -0.7834
vn -0.6424 0.1176 -0.7573
vn -0.8712 0.1864 0.4541
vn -0.5523 0.1028 0.8273
vn 0.6166 0.0815 0.7830
vn 0.6409 0.6772 -0.3615
vn 0.5826 -0.2211 -0.7821
vn -0.6104 -0.0504 -0.7905
vn -0.8795 -0.1834 0.4392
vn -0.4412 -0.2785 0.8531
vn 0.5551 -0.0748 0.8284
vn 0.9310 0.0534 -0.3610
vn -0.5432 0.6927 -0.4745
vn -0.6940 -0.6590 -0.2900
vn 0.3298 0.0539 -0.9425
vn 0.5369 -0.8201 -0.1981
vn -0.1537 -0.7436 0.6507
vn -0.8329 0.1483 0.5332
vn -0.1878 0.9652 -0.1820
vn 0.5912 0.4913 -0.6396
vn 0.9301 -0.3667 -0.0216
vn 0.2488 -0.3625 0.8982
vn -0.4379 0.5220 0.7320
vn -0.4330 -0.8499 -0.3003
vn 0.4423 -0.5453 0.7121
vn 0.5971 -0.4225 -0.6819
vn 0.9076 0.4139 0.0695
vn 0.1487 0.4922 0.8577
vn -0.6809 -0.2516 0.6878
vn -0.6914 -0.4589 -0.5580
vn 0.1773 -0.1250 -0.9762
vn 0.5893 0.7144 -0.3773
vn -0.1518 0.8628 0.4823
vn -0.9507 0.0820 0.2990
vn -0.7580 0.6330 -0.1571
vn -0.0258 0.2979 0.9543
vn -0.8524 -0.5028 0.1432
vn 0.2048 -0.8393 0.5036
vn 0.8940 0.0122 0.4480
vn 0.3646 0.9291 0.0612
vn -0.5872 0.4908 -0.6437
vn -0.7484 -0.4959 -0.4403
vn 0.1964 -0.9747 -0.1071
vn 0.9810 -0.1416 -0.1328
vn 0.4103 0.7673 -0.4928
vn 0.0913 0.7953 0.5993
vn -0.9886 0.1068 0.1059
vn 0.0174 0.8167 -0.5769
vn -0.3508 -0.2404 -0.9051
vn -0.5074 -0.8616 -0.0146
vn -0.2615 -0.2850 0.9222
vn 0.5818 0.5848 0.5653
vn 0.5799 0.6787 -0.4507
vn 0.2734 -0.2796 -0.9204
vn 0.0839 -0.9953 -0.0475
vn 0.3081 -0.3767 0.8736
vt 0.168061 -0.027649
vt 0.175826 -0.049152
vt 0.155419 -0.042257
vt 0.152654 -0.037565
vt -0.156165 -0.045273
vt -0.177141 -0.058181
vt -0.171361 -0.032707
vt -0.155110 -0.039735
vt 0.034701 -0.097485
vt 0.011727 -0.122581
vt 0.004383 -0.102471
vt 0.033091 -0.092311
vt 0.036379 -0.124946
vt 0.033483 -0.132471
vt 0.006930 -0.119748
vt 0.010041 -0.111678
vt -0.038637 0.071854
vt -0.044737 0.088915
vt -0.012661 0.098750
vt -0.009858 0.081055
vt 0.166077 -0.076457
vt 0.159952 -0.107905
vt 0.141579 -0.101557
vt 0.146362 -0.067896
vt -0.143284 -0.143735
vt -0.126853 -0.170374
vt -0.148720 -0.185135
vt -0.169516 -0.164488
vt -0.017696 -0.080553
vt 0.010958 -0.087633
vt 0.007846 -0.093008
vt -0.021016 -0.087954
vt -0.015904 -0.192303
vt -0.046871 -0.191469
vt -0.049526 -0.167312
vt -0.017551 -0.173314
vt -0.013301 -0.119750
vt -0.045373 -0.112998
vt -0.047641 -0.107857
vt -0.019453 -0.099256
vt -0.158637 0.039780
vt -0.142174 0.026107
vt -0.165092 0.006113
vt -0.182239 0.017418
vt -0.198045 -0.048816
vt -0.215958 -0.038780
vt -0.205886 -0.016063
vt -0.186245 -0.021032
vt 0.042472 0.140760
vt 0.051399 0.170990
vt 0.083241 0.161534
vt 0.078097 0.141657
vt 0.155618 0.046897
vt 0.175142 0.062151
vt 0.194963 0.037718
vt 0.168717 0.020252
vt 0.188533 -0.025129
vt 0.209222 -0.019222
vt 0.215588 -0.037957
vt 0.193268 -0.048693
vt -0.002926 0.175122
vt 0.002917 0.202816
vt 0.035422 0.199201
vt 0.034519 0.177753
vt -0.209365 0.005016
vt -0.182387 -0.003582
vt -0.197293 -0.032442
vt -0.216346 -0.025665
vt -0.212933 -0.036019
vt -0.230840 -0.023114
vt -0.228932 -0.017325
vt -0.202628 -0.013428
vt 0.029816 0.145238
vt 0.035603 0.168183
vt 0.063915 0.160655
vt 0.062368 0.138611
vt 0.144340 0.082269
vt 0.160797 0.096616
vt 0.183571 0.078084
vt 0.167383 0.060978
vt 0.207752 -0.025467
vt 0.230171 -0.027449
vt 0.233700 -0.035297
vt 0.213711 -0.044309
vt -0.086247 -0.187320
vt -0.105806 -0.214304
vt -0.123916 -0.191459
vt -0.114539 -0.171471
vt -0.114676 0.049636
vt -0.104815 0.034880
vt -0.129962 0.020427
vt -0.140167 0.033914
vt -0.180413 -0.060876
vt -0.203998 -0.054033
vt -0.193364 -0.025794
vt -0.175186 -0.035293
vt 0.061154 0.143206
vt 0.064065 0.158304
vt 0.099584 0.155370
vt 0.090514 0.132531
vt 0.167676 0.006986
vt 0.185451 0.011367
vt 0.191577 -0.017685
vt 0.177369 -0.023582
vt 0.168021 -0.029569
vt 0.188700 -0.024284
vt 0.193523 -0.047832
vt 0.175532 -0.051149
vt -0.010490 0.139103
vt -0.012440 0.160223
vt 0.024804 0.164287
vt 0.022908 0.143206
vt -0.185739 -0.019527
vt -0.181723 -0.015326
vt -0.174755 -0.023392
vt -0.176688 -0.024902
vt -0.163972 -0.148199
vt -0.163617 -0.145757
vt -0.161185 -0.145340
vt -0.160037 -0.147525
vt -0.161759 -0.149291
vt -0.212572 0.047531
vt -0.207083 0.049445
vt -0.206996 0.037865
vt -0.209396 0.037356
vt 0.045694 0.021528
vt 0.050517 0.018287
vt 0.041405 0.010519
vt 0.039345 0.011844
vt 0.202392 -0.090572
vt 0.206106 -0.095037
vt 0.197212 -0.102104
vt 0.195500 -0.100363
vt 0.038946 0.175674
vt 0.044439 0.177573
vt 0.048923 0.168049
vt 0.046597 0.167273
vt -0.111730 -0.079039
vt -0.100859 -0.083972
vt -0.104659 -0.088378
vt -0.240878 -0.016089
vt -0.232523 -0.023231
vt -0.236707 -0.027274
vt 0.140998 0.114850
vt 0.134850 0.106831
vt 0.130727 0.110937
vt 0.240393 -0.017966
vt 0.236952 -0.027986
vt 0.232485 -0.024257
vt 0.091961 0.070068
vt 0.098698 0.060486
vt 0.092960 0.059521
vt -0.148722 -0.161021
vt -0.149259 -0.155234
vt -0.138600 -0.155263
vt -0.138728 -0.157713
vt 0.190369 -0.055050
vt 0.189010 -0.052991
vt 0.190548 -0.051062
vt 0.192858 -0.051928
vt 0.192748 -0.054394
vt -0.141332 0.069271
vt -0.141530 0.075081
vt -0.130446 0.071727
vt -0.130672 0.069283
vt 0.244850 -0.011541
vt 0.249189 -0.015406
vt 0.239107 -0.021867
vt 0.237246 -0.020274
vt 0.220543 -0.047794
vt 0.220337 -0.053598
vt 0.208996 -0.052940
vt 0.208881 -0.050501
vt 0.239411 0.042706
vt 0.236222 0.037846
vt 0.226854 0.042648
vt 0.228222 0.044683
vt -0.249088 -0.063628
vt -0.237193 -0.064636
vt -0.239299 -0.070060
vt -0.244301 -0.011472
vt -0.234328 -0.006849
vt -0.232395 -0.012337
vt -0.082665 -0.237611
vt -0.088928 -0.229680
vt -0.083935 -0.226693
vt 0.121974 -0.062436
vt 0.111726 -0.065123
vt 0.112356 -0.059339
vt 0.002011 0.198795
vt -0.003839 0.188647
vt -0.007132 0.193443
vt -0.044565 0.004283
vt -0.042761 -0.001243
vt -0.053163 -0.003570
vt -0.053581 -0.001153
vt 0.157633 -0.045139
vt 0.156586 -0.047374
vt 0.154137 -0.047068
vt 0.153671 -0.044645
vt 0.155832 -0.043453
vt -0.152035 -0.068211
vt -0.146378 -0.066871
vt -0.147482 -0.078399
vt -0.149923 -0.078659
vt 0.067623 -0.100598
vt 0.068592 -0.094868
vt 0.079422 -0.099976
vt 0.079062 -0.102399
vt 0.134236 0.010492
vt 0.138497 0.014438
vt 0.146027 0.005932
vt 0.144379 0.004130
vt 0.063765 -0.135862
vt 0.067104 -0.140620
vt 0.059183 -0.147554
vt 0.057797 -0.145531
vt -0.103743 -0.036886
vt -0.112889 -0.044558
vt -0.115220 -0.039227
vt -0.156920 -0.043594
vt -0.155917 -0.054539
vt -0.161735 -0.054517
vt -0.039937 -0.080078
vt -0.030124 -0.082490
vt -0.032229 -0.087914
vt 0.022223 0.099227
vt 0.032693 0.100842
vt 0.031470 0.095154
vt -0.060897 -0.147308
vt -0.071855 -0.151447
vt -0.071361 -0.145650
vt 0.061545 -0.067668
vt 0.066146 -0.064117
vt 0.071825 -0.073137
vt 0.069687 -0.074341
vt -0.094169 0.082625
vt -0.092697 0.084606
vt -0.090359 0.083818
vt -0.090385 0.081350
vt -0.092740 0.080613
vt -0.122565 -0.078353
vt -0.116754 -0.078469
vt -0.120703 -0.089355
vt -0.123130 -0.088998
vt -0.138776 -0.039275
vt -0.134122 -0.042755
vt -0.143615 -0.050054
vt -0.145606 -0.048626
vt -0.014935 -0.137555
vt -0.010057 -0.140706
vt -0.016435 -0.150107
vt -0.018588 -0.148956
vt 0.145125 -0.009741
vt 0.150134 -0.006792
vt 0.156414 -0.015240
vt 0.154288 -0.016461
vt 0.108420 -0.078082
vt 0.119135 -0.083343
vt 0.115202 -0.087632
vt -0.111565 -0.096343
vt -0.110321 -0.107264
vt -0.116138 -0.107369
vt -0.099237 0.016166
vt -0.104788 0.007722
vt -0.109198 0.011519
vt 0.033434 -0.073931
vt 0.032924 -0.084513
vt 0.027594 -0.082178
vt 0.144416 -0.029831
vt 0.153033 -0.037766
vt 0.147630 -0.039926
s 1
usemtl mat18
f 4/1/1 3/2/1 2/3/1 1/4/1
f 8/5/2 7/6/2 6/7/2 5/8/2
f 2/9/3 10/10/3 9/11/3 1/12/3
f 14/13/4 13/14/4 12/15/4 11/16/4
f 9/17/5 15/18/5 4/19/5 1/20/5
f 3/21/6 16/22/6 10/23/6 2/24/6
f 19/25/7 18/26/7 17/27/7 14/28/7
f 14/29/8 17/30/8 20/31/8 13/32/8
f 16/33/9 7/34/9 8/35/9 10/36/9
f 10/37/10 8/38/10 5/39/10 9/40/10
f 22/41/11 15/42/11 6/43/11 21/44/11
f 24/45/12 23/46/12 18/47/12 21/48/12
f 26/49/13 25/50/13 23/51/13 24/52/13
f 28/53/14 27/54/14 25/55/14 26/56/14
f 30/57/15 29/58/15 27/59/15 28/60/15
f 22/61/16 19/62/16 29/63/16 30/64/16
f 19/65/17 22/66/17 21/67/17 18/68/17
f 23/69/18 20/70/18 17/71/18 18/72/18
f 25/73/19 13/74/19 20/75/19 23/76/19
f 27/77/20 12/78/20 13/79/20 25/80/20
f 29/81/21 11/82/21 12/83/21 27/84/21
f 19/85/22 14/86/22 11/87/22 29/88/22
f 15/89/23 9/90/23 5/91/23 6/92/23
f 7/93/24 24/94/24 21/95/24 6/96/24
f 16/97/25 26/98/25 24/99/25 7/100/25
f 3/101/26 28/102/26 26/103/26 16/104/26
f 4/105/27 30/106/27 28/107/27 3/108/27
f 15/109/28 22/110/28 30/111/28 4/112/28
f 34/113/29 33/114/29 32/115/29 31/116/29
f 31/117/30 32/118/30 37/119/30 36/120/30 35/121/30
f 33/122/31 38/123/31 37/124/31 32/125/31
f 38/126/32 39/127/32 36/128/32 37/129/32
f 39/130/33 40/131/33 35/132/33 36/133/33
f 40/134/34 34/135/34 31/136/34 35/137/34
f 41/138/35 33/139/35 34/140/35
f 41/141/36 38/142/36 33/143/36
f 41/144/37 39/145/37 38/146/37
f 41/147/38 40/148/38 39/149/38
f 41/150/39 34/151/39 40/152/39
f 45/153/40 44/154/40 43/155/40 42/156/40
f 42/157/41 43/158/41 48/159/41 47/160/41 46/161/41
f 44/162/42 49/163/42 48/164/42 43/165/42
f 49/166/43 50/167/43 47/168/43 48/169/43
f 50/170/44 51/171/44 46/172/44 47/173/44
f 51/174/45 45/175/45 42/176/45 46/177/45
f 52/178/46 44/179/46 45/180/46
f 52/181/47 49/182/47 44/183/47
f 52/184/48 50/185/48 49/186/48
f 52/187/49 51/188/49 50/189/49
f 52/190/50 45/191/50 51/192/50
f 56/193/51 55/194/51 54/195/51 53/196/51
f 53/197/52 54/198/52 59/199/52 58/200/52 57/201/52
f 55/202/53 60/203/53 59/204/53 54/205/53
f 60/206/54 61/207/54 58/208/54 59/209/54
f 61/210/55 62/211/55 57/212/55 58/213/55
f 62/214/56 56/215/56 53/216/56 57/217/56
f 63/218/57 55/219/57 56/220/57
f 63/221/58 60/222/58 55/223/58
f 63/224/59 61/225/59 60/226/59
f 63/227/60 62/228/60 61/229/60
f 63/230/61 56/231/61 62/232/61
f 67/233/62 66/234/62 65/235/62 64/236/62
f 64/237/63 65/238/63 70/239/63 69/240/63 68/241/63
f 66/242/64 71/243/64 70/244/64 65/245/64
f 71/246/65 72/247/65 69/248/65 70/249/65
f 72/250/66 73/251/66 68/252/66 69/253/66
f 73/254/67 67/255/67 64/256/67 68/257/67
f 74/258/68 66/259/68 67/260/68
f 74/261/69 71/262/69 66/263/69
f 74/264/70 72/265/70 71/266/70
f 74/267/71 73/268/71 72/269/71
f 74/270/72 67/271/72 73/272/72
