# Blender 4.3.2
# www.blender.org
mtllib Water_Bottle_01.mtl
o Circle.002
v 0.000000 0.016606 -0.040764
v -0.028824 0.016606 -0.028825
v -0.040764 0.016606 -0.000000
v -0.028824 0.016606 0.028824
v 0.000000 0.016606 0.040763
v 0.028824 0.016606 0.028824
v 0.040764 0.016606 -0.000000
v 0.028824 0.016606 -0.028825
v 0.000000 0.001553 -0.019214
v -0.013586 0.001553 -0.013586
v -0.019213 0.001553 -0.000000
v -0.013586 0.001553 0.013586
v 0.000000 0.001553 0.019213
v 0.013586 0.001553 0.013586
v 0.019214 0.001553 -0.000000
v 0.013586 0.001553 -0.013586
v 0.000000 0.008721 -0.004014
v -0.002838 0.008721 -0.002838
v -0.004013 0.008721 -0.000000
v -0.002838 0.008721 0.002837
v 0.000000 0.008721 0.004013
v 0.002838 0.008721 0.002837
v 0.004013 0.008721 -0.000000
v 0.002838 0.008721 -0.002838
v 0.000000 0.029686 -0.040764
v -0.028824 0.029686 -0.028825
v -0.040764 0.029686 -0.000000
v -0.028824 0.029686 0.028824
v 0.000000 0.029686 0.040763
v 0.028824 0.029686 0.028824
v 0.040764 0.029686 -0.000000
v 0.028824 0.029686 -0.028825
v 0.000000 0.035574 -0.039245
v -0.027750 0.035574 -0.027750
v -0.039244 0.035574 -0.000000
v -0.027750 0.035574 0.027750
v 0.000000 0.035574 0.039244
v 0.027750 0.035574 0.027750
v 0.039244 0.035574 -0.000000
v 0.027750 0.035574 -0.027750
v 0.000000 0.132355 -0.039245
v -0.027750 0.132355 -0.027750
v -0.039244 0.132355 -0.000000
v -0.027750 0.132355 0.027750
v 0.000000 0.132355 0.039244
v 0.027750 0.132355 0.027750
v 0.039244 0.132355 -0.000000
v 0.027750 0.132355 -0.027750
v 0.000000 0.139134 -0.041208
v -0.029138 0.139134 -0.029139
v -0.041208 0.139134 -0.000000
v -0.029138 0.139134 0.029138
v 0.000000 0.139134 0.041207
v 0.029138 0.139134 0.029138
v 0.041208 0.139134 -0.000000
v 0.029138 0.139134 -0.029139
v 0.000000 0.194492 -0.014156
v -0.010010 0.194492 -0.010010
v -0.014156 0.194492 -0.000000
v -0.010010 0.194492 0.010009
v 0.000000 0.194492 0.014155
v 0.010010 0.194492 0.010009
v 0.014156 0.194492 -0.000000
v 0.010010 0.194492 -0.010010
v 0.000000 0.200158 -0.014156
v -0.010010 0.200158 -0.010010
v -0.014156 0.200158 -0.000000
v -0.010010 0.200158 0.010009
v 0.000000 0.200158 0.014155
v 0.010010 0.200158 0.010009
v 0.014156 0.200158 -0.000000
v 0.010010 0.200158 -0.010010
v 0.000000 0.200158 -0.016227
v -0.011474 0.200158 -0.011474
v -0.016226 0.200158 -0.000000
v -0.011474 0.200158 0.011473
v 0.000000 0.200158 0.016226
v 0.011474 0.200158 0.011473
v 0.016227 0.200158 -0.000000
v 0.011474 0.200158 -0.011474
v 0.000000 0.202555 -0.016227
v -0.011474 0.202555 -0.011474
v -0.016226 0.202555 -0.000000
v -0.011474 0.202555 0.011473
v 0.000000 0.202555 0.016226
v 0.011474 0.202555 0.011473
v 0.016227 0.202555 -0.000000
v 0.011474 0.202555 -0.011474
v 0.000000 0.202555 -0.014093
v -0.009965 0.202555 -0.009965
v -0.014093 0.202555 -0.000000
v -0.009965 0.202555 0.009965
v 0.000000 0.202555 0.014092
v 0.009965 0.202555 0.009965
v 0.014093 0.202555 -0.000000
v 0.009965 0.202555 -0.009965
v 0.000000 0.203968 -0.014048
v -0.009933 0.203968 -0.009934
v -0.014048 0.203968 -0.000000
v -0.009933 0.203968 0.009933
v 0.000000 0.203968 0.014047
v 0.009933 0.203968 0.009933
v 0.014048 0.203968 -0.000000
v 0.009933 0.203968 -0.009934
v 0.000000 0.203968 -0.015932
v -0.011266 0.203968 -0.011266
v -0.015932 0.203968 -0.000000
v -0.011266 0.203968 0.011265
v 0.000000 0.203968 0.015931
v 0.011266 0.203968 0.011265
v 0.015932 0.203968 -0.000000
v 0.011266 0.203968 -0.011266
v 0.000000 0.220468 -0.007111
v -0.005028 0.220468 -0.005029
v -0.007111 0.220468 -0.000000
v -0.005028 0.220468 0.005028
v 0.000000 0.220468 0.007110
v 0.005028 0.220468 0.005028
v 0.007111 0.220468 -0.000000
v 0.005028 0.220468 -0.005029
v 0.000000 0.220468 -0.000000
v 0.000000 0.219696 -0.015932
v 0.000000 0.220468 -0.015097
v -0.010675 0.220468 -0.010675
v -0.011266 0.219696 -0.011266
v -0.015096 0.220468 -0.000000
v -0.015932 0.219696 -0.000000
v -0.010675 0.220468 0.010674
v -0.011266 0.219696 0.011265
v 0.000000 0.220468 0.015096
v 0.000000 0.219696 0.015931
v 0.010675 0.220468 0.010674
v 0.011266 0.219696 0.011265
v 0.015096 0.220468 -0.000000
v 0.015932 0.219696 -0.000000
v 0.010675 0.220468 -0.010675
v 0.011266 0.219696 -0.011266
v 0.000000 0.000133 -0.033704
v 0.000000 -0.001967 -0.028300
v -0.020011 0.002324 -0.020011
v -0.023832 0.004425 -0.023832
v -0.028300 -0.001967 0.000000
v -0.033703 0.000133 -0.000000
v -0.020011 0.002324 0.020010
v -0.023832 0.004425 0.023831
v 0.000000 -0.001967 0.028299
v 0.000000 0.000133 0.033703
v 0.020011 0.002324 0.020010
v 0.023832 0.004425 0.023831
v 0.028300 -0.001967 0.000000
v 0.033703 0.000133 -0.000000
v 0.020011 0.002324 -0.020011
v 0.023832 0.004425 -0.023832
v 0.022168 0.166813 -0.022169
v 0.031351 0.166813 -0.000000
v 0.022168 0.166813 0.022168
v 0.000000 0.166813 0.031350
v -0.022168 0.166813 0.022168
v -0.031351 0.166813 -0.000000
v -0.022168 0.166813 -0.022169
v 0.000000 0.166813 -0.031351
vn 0.0454 -0.9802 -0.1926
vn 0.1925 -0.9802 0.0454
vn 0.0454 -0.9802 0.1925
vn -0.0454 -0.9802 0.1925
vn -0.1925 -0.9802 0.0454
vn -0.0454 -0.9802 -0.1926
vn 0.1925 -0.9802 -0.0454
vn -0.1925 -0.9802 -0.0454
vn 0.3769 -0.4142 -0.8285
vn 0.8285 -0.4142 -0.3769
vn 0.3769 -0.4142 0.8285
vn -0.8285 -0.4142 0.3769
vn 0.8285 -0.4142 0.3769
vn -0.3769 -0.4142 0.8285
vn -0.8285 -0.4142 -0.3769
vn 0.4200 -0.8907 -0.1740
vn 0.1740 -0.8907 0.4200
vn -0.1740 -0.8907 0.4200
vn -0.4200 -0.8907 -0.1740
vn 0.1740 -0.8907 -0.4200
vn 0.4200 -0.8907 0.1740
vn -0.4200 -0.8907 0.1740
vn -0.1740 -0.8907 -0.4200
vn 0.3827 -0.0000 0.9239
vn -0.9239 -0.0000 0.3827
vn -0.3827 -0.0000 -0.9239
vn 0.3827 -0.0000 -0.9239
vn 0.9239 -0.0000 0.3827
vn -0.3827 -0.0000 0.9239
vn -0.9239 -0.0000 -0.3827
vn 0.9239 -0.0000 -0.3827
vn -0.3722 0.2318 0.8987
vn -0.8987 0.2319 -0.3722
vn 0.8987 0.2319 -0.3722
vn 0.3722 0.2318 0.8987
vn -0.8987 0.2319 0.3723
vn -0.3723 0.2319 -0.8987
vn 0.3723 0.2319 -0.8987
vn 0.8987 0.2319 0.3723
vn 0.3697 -0.2584 0.8925
vn -0.8925 -0.2585 0.3697
vn -0.3697 -0.2585 -0.8925
vn 0.3697 -0.2585 -0.8925
vn 0.8925 -0.2585 0.3697
vn -0.3697 -0.2584 0.8925
vn -0.8925 -0.2585 -0.3697
vn 0.8925 -0.2585 -0.3697
vn 0.8013 0.4978 -0.3319
vn 0.3319 0.4978 0.8013
vn -0.8013 0.4978 0.3319
vn -0.3319 0.4978 -0.8013
vn 0.3319 0.4978 -0.8013
vn 0.8013 0.4978 0.3319
vn -0.3319 0.4978 0.8013
vn -0.8013 0.4978 -0.3319
vn -0.0000 -1.0000 -0.0000
vn -0.9239 -0.0000 -0.3826
vn -0.0000 1.0000 -0.0000
vn 0.3825 0.0292 -0.9235
vn 0.9235 0.0295 0.3826
vn -0.3825 0.0295 0.9235
vn -0.9235 0.0294 -0.3825
vn 0.9235 0.0294 -0.3825
vn 0.3825 0.0295 0.9235
vn -0.9235 0.0295 0.3826
vn -0.3825 0.0295 -0.9235
vn -0.2944 -0.9092 -0.2944
vn -0.2983 -0.9092 -0.2905
vn -0.2905 -0.9092 -0.2983
vn -0.2944 -0.9092 0.2944
vn -0.2905 -0.9092 0.2983
vn -0.2983 -0.9092 0.2905
vn 0.2944 -0.9092 0.2944
vn 0.2983 -0.9092 0.2905
vn 0.2905 -0.9092 0.2983
vn 0.2944 -0.9092 -0.2944
vn 0.2905 -0.9092 -0.2983
vn 0.2983 -0.9092 -0.2905
vn -0.3769 -0.4142 -0.8285
vn -0.8776 0.3125 -0.3635
vn -0.3635 0.3125 0.8776
vn 0.8776 0.3125 0.3635
vn 0.3635 0.3125 -0.8776
vn -0.3635 0.3125 -0.8776
vn -0.8776 0.3125 0.3635
vn 0.3635 0.3125 0.8776
vn 0.8776 0.3125 -0.3635
vn 0.3826 -0.0000 0.9239
vn -0.3826 -0.0000 0.9239
vn 0.3826 -0.0000 -0.9239
vn 0.9239 -0.0000 -0.3826
vn -0.2706 0.7070 -0.6534
vn -0.6532 0.7072 -0.2705
vn -0.6532 0.7072 0.2705
vn -0.2706 0.7070 0.6534
vn 0.2706 0.7070 0.6534
vn 0.6532 0.7072 0.2705
vn 0.6532 0.7072 -0.2705
vn 0.2706 0.7070 -0.6534
vn -0.3826 -0.0000 -0.9239
vt 0.327340 0.794996
vt 0.315817 0.822815
vt 0.267084 0.822814
vt 0.255560 0.794997
vt 0.378099 0.917530
vt 0.350277 0.906006
vt 0.350278 0.857273
vt 0.378097 0.845753
vt 0.204805 0.917531
vt 0.232625 0.906007
vt 0.267084 0.940469
vt 0.255561 0.968288
vt 0.315818 0.940467
vt 0.327342 0.968287
vt 0.232623 0.857273
vt 0.204804 0.845750
vt 0.291220 0.061483
vt 0.301478 0.016156
vt 0.399552 0.000001
vt 0.409808 0.061662
vt 0.207112 0.064489
vt 0.231965 0.002339
vt 0.412016 0.064490
vt 0.436865 0.002340
vt 0.506384 0.016155
vt 0.496120 0.061481
vt 0.616918 0.064490
vt 0.641771 0.002340
vt 0.711283 0.016155
vt 0.701024 0.061481
vt 0.604452 0.000000
vt 0.614710 0.061660
vt 0.809357 0.000000
vt 0.819612 0.061660
vt 0.086311 0.061481
vt 0.096574 0.016155
vt 0.194647 0.000000
vt 0.204904 0.061660
vt 0.303738 0.886730
vt 0.303738 0.876553
vt 0.286361 0.893930
vt 0.296541 0.893929
vt 0.279163 0.886730
vt 0.286360 0.869355
vt 0.279165 0.876551
vt 0.296541 0.869354
vt 0.496051 0.111164
vt 0.411946 0.114173
vt 0.700954 0.111165
vt 0.616848 0.114173
vt 0.086241 0.111165
vt 0.002138 0.114172
vt 0.002208 0.064489
vt 0.409738 0.111345
vt 0.291150 0.111166
vt 0.614641 0.111343
vt 0.819543 0.111343
vt 0.204834 0.111343
vt 0.207042 0.114173
vt 0.817286 0.133904
vt 0.703117 0.133732
vt 0.202576 0.133905
vt 0.088407 0.133733
vt 0.293311 0.133734
vt 0.212342 0.136628
vt 0.498213 0.133732
vt 0.417243 0.136629
vt 0.622149 0.136629
vt 0.007435 0.136628
vt 0.407482 0.133906
vt 0.612382 0.133904
vt 0.497699 0.501347
vt 0.494829 0.526834
vt 0.409808 0.529876
vt 0.416729 0.504243
vt 0.702603 0.501347
vt 0.699732 0.526834
vt 0.614710 0.529876
vt 0.621635 0.504243
vt 0.087893 0.501347
vt 0.085019 0.526835
vt -0.000000 0.529875
vt 0.006921 0.504243
vt 0.406968 0.501521
vt 0.409808 0.527018
vt 0.289928 0.526837
vt 0.292797 0.501349
vt 0.611869 0.501519
vt 0.614710 0.527015
vt 0.816772 0.501519
vt 0.819612 0.527015
vt 0.202062 0.501520
vt 0.204904 0.527016
vt 0.204904 0.529876
vt 0.211828 0.504243
vt 0.304016 0.633288
vt 0.328699 0.740718
vt 0.299492 0.741762
vt 0.239329 0.635600
vt 0.508916 0.633286
vt 0.533603 0.740718
vt 0.504395 0.741763
vt 0.444233 0.635600
vt 0.713821 0.633286
vt 0.738504 0.740718
vt 0.709299 0.741763
vt 0.649136 0.635600
vt 0.099107 0.633287
vt 0.123795 0.740717
vt 0.094588 0.741762
vt 0.034425 0.635600
vt 0.395220 0.633425
vt 0.369882 0.740780
vt 0.600122 0.633424
vt 0.574782 0.740780
vt 0.805025 0.633424
vt 0.779687 0.740780
vt 0.190316 0.633424
vt 0.164978 0.740780
vt 0.574752 0.762302
vt 0.533572 0.762240
vt 0.779657 0.762302
vt 0.738474 0.762240
vt 0.164948 0.762301
vt 0.123765 0.762239
vt 0.328669 0.762240
vt 0.299462 0.763284
vt 0.504365 0.763284
vt 0.709269 0.763285
vt 0.094558 0.763284
vt 0.369852 0.762302
vt 0.114377 0.926973
vt 0.119942 0.932537
vt 0.076329 0.950604
vt 0.076329 0.942732
vt 0.032715 0.932537
vt 0.038280 0.926973
vt 0.022520 0.888924
vt 0.014648 0.888924
vt 0.032715 0.845314
vt 0.038280 0.850879
vt 0.076329 0.835119
vt 0.076329 0.827247
vt 0.119942 0.845314
vt 0.114377 0.850879
vt 0.130137 0.888924
vt 0.138005 0.888924
vt 0.936867 0.442719
vt 0.927763 0.442579
vt 0.927034 0.409085
vt 0.936138 0.409225
vt 0.936868 0.281053
vt 0.927764 0.280913
vt 0.927034 0.247419
vt 0.936138 0.247558
vt 0.927034 0.537122
vt 0.936138 0.537262
vt 0.936868 0.570750
vt 0.927764 0.570610
vt 0.927034 0.375451
vt 0.936138 0.375591
vt 0.936868 0.409085
vt 0.927764 0.408945
vt 0.936138 0.489920
vt 0.927034 0.489781
vt 0.936138 0.328251
vt 0.927034 0.328111
vt 0.927764 0.489920
vt 0.936868 0.490060
vt 0.927764 0.328251
vt 0.936868 0.328391
vt 0.626429 0.908945
vt 0.634537 0.908945
vt 0.650227 0.946823
vt 0.644492 0.952559
vt 0.731719 0.952559
vt 0.725983 0.946823
vt 0.741674 0.908945
vt 0.749785 0.908945
vt 0.731719 0.865335
vt 0.725983 0.871067
vt 0.688105 0.855380
vt 0.688105 0.847269
vt 0.644492 0.865335
vt 0.650227 0.871067
vt 0.688105 0.962514
vt 0.688105 0.970625
vt 0.155095 0.920280
vt 0.149724 0.920132
vt 0.150355 0.879270
vt 0.155729 0.879286
vt 0.932405 0.710912
vt 0.927034 0.710764
vt 0.927666 0.669901
vt 0.933039 0.669918
vt 0.927668 0.570750
vt 0.933039 0.570899
vt 0.932407 0.611760
vt 0.927034 0.611743
vt 0.933673 0.640832
vt 0.939045 0.640980
vt 0.938413 0.681847
vt 0.933039 0.681826
vt 0.149724 0.850272
vt 0.155095 0.850197
vt 0.927034 0.640907
vt 0.932405 0.640832
vt 0.933039 0.640756
vt 0.927668 0.640832
vt 0.939045 0.710840
vt 0.933673 0.710915
vt 0.334195 0.984831
vt 0.248708 0.984833
vt 0.394641 0.924382
vt 0.394641 0.838900
vt 0.334194 0.778450
vt 0.248706 0.778452
vt 0.188262 0.838898
vt 0.188260 0.924384
vt 0.027058 0.002339
vt 0.302469 0.143455
vt 0.302469 0.494390
vt 0.225454 0.494390
vt 0.225454 0.143455
vt 0.116541 0.143455
vt 0.116541 0.494390
vt 0.039526 0.494390
vt 0.039526 0.143455
vt 0.379485 0.143455
vt 0.379485 0.494390
vt 0.302469 0.494390
vt 0.302469 0.143455
vt 0.675135 0.143233
vt 0.675135 0.494168
vt 0.598120 0.494168
vt 0.598120 0.143233
vt 0.488398 0.143455
vt 0.488398 0.494390
vt 0.784049 0.143233
vt 0.784049 0.494168
vt 0.598120 0.143233
vt 0.598120 0.494168
vt 0.489205 0.494168
vt 0.489205 0.143233
vt 0.603630 0.945584
vt 0.608693 0.950651
vt 0.565874 0.968386
vt 0.565874 0.961225
vt 0.528114 0.945584
vt 0.523051 0.950651
vt 0.505315 0.907828
vt 0.512476 0.907828
vt 0.523051 0.865005
vt 0.528114 0.870071
vt 0.565874 0.854430
vt 0.565874 0.847269
vt 0.608693 0.865005
vt 0.603630 0.870071
vt 0.619268 0.907828
vt 0.626429 0.907828
vt 0.769768 0.948404
vt 0.791229 0.926939
vt 0.810344 0.934857
vt 0.810344 0.965209
vt 0.850917 0.948404
vt 0.829456 0.926939
vt 0.837370 0.907828
vt 0.867725 0.907828
vt 0.850917 0.867251
vt 0.829456 0.888716
vt 0.810344 0.880798
vt 0.810344 0.850447
vt 0.752959 0.907828
vt 0.783315 0.907828
vt 0.769768 0.867251
vt 0.791229 0.888716
vt 0.989823 0.201072
vt 0.930081 0.201072
vt 0.928859 0.168202
vt 0.988601 0.168202
vt 0.927034 0.135335
vt 0.986775 0.135335
vt 0.987997 0.168202
vt 0.928256 0.168202
vt 0.989818 0.247419
vt 0.930076 0.247419
vt 0.927039 0.088985
vt 0.986781 0.088985
vt 0.442532 0.847269
vt 0.502273 0.847269
vt 0.502268 0.893619
vt 0.442527 0.893619
vt 0.989817 0.088985
vt 0.930076 0.088985
vt 0.930081 0.042635
vt 0.989822 0.042635
vt 0.928860 0.009766
vt 0.988602 0.009766
vt 0.810344 0.907828
vt 0.767521 0.865005
vt 0.749785 0.907828
vt 0.505315 0.848493
vt 0.505310 0.892412
vt 0.853163 0.865005
vt 0.810344 0.847269
vt 0.989822 0.090208
vt 0.989818 0.134128
vt 0.853163 0.950651
vt 0.870899 0.907828
vt 0.927034 0.246194
vt 0.927039 0.202279
vt 0.767521 0.950651
vt 0.810344 0.968386
vt 0.927034 0.087762
vt 0.927039 0.043842
vt 0.503490 0.926488
vt 0.443748 0.926488
s 1
usemtl FFFFFF
f 146/1/1 13/2/1 14/3/1 148/4/1
f 142/5/2 11/6/2 12/7/2 144/8/2
f 152/9/3 16/10/3 9/11/3 139/12/3
f 139/12/4 9/11/4 10/13/4 140/14/4
f 148/4/5 14/3/5 15/15/5 150/16/5
f 144/8/6 12/7/6 13/2/6 146/1/6
f 140/14/7 10/13/7 11/6/7 142/5/7
f 150/16/8 15/15/8 16/10/8 152/9/8
f 8/17/9 153/18/9 138/19/9 1/20/9
f 7/21/10 151/22/10 153/18/10 8/17/10
f 5/23/11 147/24/11 149/25/11 6/26/11
f 3/27/12 143/28/12 145/29/12 4/30/12
f 6/26/13 149/25/13 151/31/13 7/32/13
f 4/30/14 145/29/14 147/33/14 5/34/14
f 2/35/15 141/36/15 143/37/15 3/38/15
f 11/6/16 19/39/16 20/40/16 12/7/16
f 9/11/17 17/41/17 18/42/17 10/13/17
f 16/10/18 24/43/18 17/41/18 9/11/18
f 14/3/19 22/44/19 23/45/19 15/15/19
f 12/7/20 20/40/20 21/46/20 13/2/20
f 10/13/21 18/42/21 19/39/21 11/6/21
f 15/15/22 23/45/22 24/43/22 16/10/22
f 13/2/23 21/46/23 22/44/23 14/3/23
f 6/26/24 30/47/24 29/48/24 5/23/24
f 4/30/25 28/49/25 27/50/25 3/27/25
f 2/35/26 26/51/26 25/52/26 1/53/26
f 1/20/27 25/54/27 32/55/27 8/17/27
f 7/32/28 31/56/28 30/47/28 6/26/28
f 5/34/29 29/57/29 28/49/29 4/30/29
f 3/38/30 27/58/30 26/51/30 2/35/30
f 8/17/31 32/55/31 31/59/31 7/21/31
f 29/57/32 37/60/32 36/61/32 28/49/32
f 27/58/33 35/62/33 34/63/33 26/51/33
f 32/55/34 40/64/34 39/65/34 31/59/34
f 30/47/35 38/66/35 37/67/35 29/48/35
f 28/49/36 36/61/36 35/68/36 27/50/36
f 26/51/37 34/63/37 33/69/37 25/52/37
f 25/54/38 33/70/38 40/64/38 32/55/38
f 31/56/39 39/71/39 38/66/39 30/47/39
f 46/72/40 54/73/40 53/74/40 45/75/40
f 44/76/41 52/77/41 51/78/41 43/79/41
f 42/80/42 50/81/42 49/82/42 41/83/42
f 41/84/43 49/85/43 56/86/43 48/87/43
f 47/88/44 55/89/44 54/73/44 46/72/44
f 45/90/45 53/91/45 52/77/45 44/76/45
f 43/92/46 51/93/46 50/81/46 42/80/46
f 48/87/47 56/86/47 55/94/47 47/95/47
f 154/96/48 64/97/48 63/98/48 155/99/48
f 156/100/49 62/101/49 61/102/49 157/103/49
f 158/104/50 60/105/50 59/106/50 159/107/50
f 160/108/51 58/109/51 57/110/51 161/111/51
f 161/112/52 57/113/52 64/97/52 154/96/52
f 155/114/53 63/115/53 62/101/53 156/100/53
f 157/116/54 61/117/54 60/105/54 158/104/54
f 159/118/55 59/119/55 58/109/55 160/108/55
f 63/115/28 71/120/28 70/121/28 62/101/28
f 61/117/29 69/122/29 68/123/29 60/105/29
f 59/119/30 67/124/30 66/125/30 58/109/30
f 64/97/31 72/126/31 71/127/31 63/98/31
f 62/101/24 70/121/24 69/128/24 61/102/24
f 60/105/25 68/123/25 67/129/25 59/106/25
f 58/109/26 66/125/26 65/130/26 57/110/26
f 57/113/27 65/131/27 72/126/27 64/97/27
f 66/132/56 74/133/56 73/134/56 65/135/56
f 65/135/56 73/134/56 80/136/56 72/137/56
f 71/138/56 79/139/56 78/140/56 70/141/56
f 69/142/56 77/143/56 76/144/56 68/145/56
f 67/146/56 75/147/56 74/133/56 66/132/56
f 72/137/56 80/136/56 79/139/56 71/138/56
f 70/141/56 78/140/56 77/143/56 69/142/56
f 68/145/56 76/144/56 75/147/56 67/146/56
f 80/148/31 88/149/31 87/150/31 79/151/31
f 78/152/24 86/153/24 85/154/24 77/155/24
f 76/156/25 84/157/25 83/158/25 75/159/25
f 74/160/26 82/161/26 81/162/26 73/163/26
f 73/164/27 81/165/27 88/149/27 80/148/27
f 79/166/28 87/167/28 86/153/28 78/152/28
f 77/168/29 85/169/29 84/157/29 76/156/29
f 75/170/57 83/171/57 82/161/57 74/160/57
f 83/172/58 91/173/58 90/174/58 82/175/58
f 88/176/58 96/177/58 95/178/58 87/179/58
f 86/180/58 94/181/58 93/182/58 85/183/58
f 84/184/58 92/185/58 91/173/58 83/172/58
f 82/175/58 90/174/58 89/186/58 81/187/58
f 81/187/58 89/186/58 96/177/58 88/176/58
f 87/179/58 95/178/58 94/181/58 86/180/58
f 85/183/58 93/182/58 92/185/58 84/184/58
f 89/188/59 97/189/59 104/190/59 96/191/59
f 95/192/60 103/193/60 102/194/60 94/195/60
f 93/196/61 101/197/61 100/198/61 92/199/61
f 91/200/62 99/201/62 98/202/62 90/203/62
f 96/191/63 104/190/63 103/204/63 95/205/63
f 94/195/64 102/194/64 101/206/64 93/207/64
f 92/199/65 100/198/65 99/208/65 91/209/65
f 90/203/66 98/202/66 97/210/66 89/211/66
f 141/212/67 138/213/68 139/12/68 140/14/67
f 143/214/69 141/212/67 140/14/67 142/5/69
f 145/215/70 143/214/71 142/5/71 144/8/70
f 147/216/72 145/215/70 144/8/70 146/1/72
f 149/217/73 147/216/74 146/1/74 148/4/73
f 151/218/75 149/217/73 148/4/73 150/16/75
f 153/219/76 151/218/77 150/16/77 152/9/76
f 138/213/78 153/219/76 152/9/76 139/12/78
f 1/53/79 138/220/79 141/36/79 2/35/79
f 51/93/80 159/118/80 160/108/80 50/81/80
f 53/91/81 157/116/81 158/104/81 52/77/81
f 55/89/82 155/114/82 156/100/82 54/73/82
f 49/85/83 161/112/83 154/96/83 56/86/83
f 50/81/84 160/108/84 161/111/84 49/82/84
f 52/77/85 158/104/85 159/107/85 51/78/85
f 54/73/86 156/100/86 157/103/86 53/74/86
f 56/86/87 154/96/87 155/99/87 55/94/87
f 33/221/27 41/222/27 48/223/27 40/224/27
f 39/225/28 47/226/28 46/227/28 38/228/28
f 37/229/29 45/230/29 44/231/29 36/232/29
f 35/233/30 43/234/30 42/235/30 34/236/30
f 40/224/31 48/223/31 47/226/31 39/225/31
f 38/237/24 46/238/24 45/230/24 37/229/24
f 36/239/25 44/240/25 43/234/25 35/233/25
f 34/241/26 42/242/26 41/243/26 33/244/26
f 100/245/56 108/246/56 107/247/56 99/248/56
f 98/249/56 106/250/56 105/251/56 97/252/56
f 97/252/56 105/251/56 112/253/56 104/254/56
f 103/255/56 111/256/56 110/257/56 102/258/56
f 101/259/56 109/260/56 108/246/56 100/245/56
f 99/248/56 107/247/56 106/250/56 98/249/56
f 104/254/56 112/253/56 111/256/56 103/255/56
f 102/258/56 110/257/56 109/260/56 101/259/56
f 136/261/58 120/262/58 119/263/58 134/264/58
f 132/265/58 118/266/58 117/267/58 130/268/58
f 128/269/58 116/270/58 115/271/58 126/272/58
f 123/273/58 113/274/58 120/262/58 136/261/58
f 124/275/58 114/276/58 113/274/58 123/273/58
f 134/264/58 119/263/58 118/266/58 132/265/58
f 130/268/58 117/267/58 116/270/58 128/269/58
f 126/272/58 115/271/58 114/276/58 124/275/58
f 110/277/88 133/278/88 131/279/88 109/280/88
f 108/281/25 129/282/25 127/283/25 107/284/25
f 111/285/28 135/286/28 133/278/28 110/277/28
f 109/287/89 131/288/89 129/282/89 108/281/89
f 107/289/57 127/290/57 125/291/57 106/292/57
f 105/293/90 122/294/90 137/295/90 112/296/90
f 112/296/91 137/295/91 135/297/91 111/298/91
f 113/274/58 121/299/58 120/262/58
f 119/263/58 121/299/58 118/266/58
f 117/267/58 121/299/58 116/270/58
f 115/271/58 121/299/58 114/276/58
f 120/262/58 121/299/58 119/263/58
f 118/266/58 121/299/58 117/267/58
f 116/270/58 121/299/58 115/271/58
f 114/276/58 121/299/58 113/274/58
f 125/300/92 124/275/92 123/273/92 122/301/92
f 127/290/93 126/302/93 124/303/93 125/291/93
f 129/304/94 128/269/94 126/272/94 127/305/94
f 131/288/95 130/306/95 128/307/95 129/282/95
f 133/308/96 132/265/96 130/268/96 131/309/96
f 135/286/97 134/310/97 132/311/97 133/278/97
f 137/312/98 136/261/98 134/264/98 135/313/98
f 122/294/99 123/314/99 136/315/99 137/295/99
f 106/292/100 125/291/100 122/316/100 105/317/100
