# Blender 4.1.1
# www.blender.org
mtllib WineBottle.mtl
o Cube.007_Cube.005
v -0.027858 -0.001937 0.027853
v -0.027858 0.135302 0.027853
v -0.027858 -0.001937 -0.027857
v -0.027858 0.135302 -0.027857
v 0.027852 -0.001937 0.027853
v 0.027852 0.135302 0.027853
v 0.027852 -0.001937 -0.027857
v 0.027852 0.135302 -0.027857
v -0.009378 0.175130 0.009373
v -0.009378 0.175130 -0.009377
v 0.009372 0.175130 -0.009377
v 0.009372 0.175130 0.009373
v -0.008079 0.200094 0.008074
v -0.008079 0.200094 -0.008078
v 0.008073 0.200094 -0.008078
v 0.008073 0.200094 0.008074
v -0.008079 0.257681 0.008074
v -0.008079 0.257681 -0.008078
v 0.008073 0.257681 -0.008078
v 0.008073 0.257681 0.008074
v 0.009759 0.238731 -0.009764
v 0.009759 0.245060 -0.009764
v -0.009765 0.245060 -0.009764
v -0.009765 0.238731 -0.009764
v 0.008073 0.245060 -0.008078
v 0.008073 0.238731 -0.008078
v 0.008073 0.238731 0.008074
v 0.008073 0.245060 0.008074
v -0.008079 0.245060 0.008074
v -0.008079 0.238731 0.008074
v -0.008079 0.238731 -0.008078
v -0.008079 0.245060 -0.008078
v 0.009759 0.238731 0.009760
v 0.009759 0.245060 0.009760
v -0.009765 0.245060 0.009760
v -0.009765 0.238731 0.009760
v -0.027858 0.053448 0.027853
v -0.027858 0.053448 -0.027857
v 0.027852 0.053448 -0.027857
v 0.027852 0.053448 0.027853
v -0.027858 0.124194 0.027853
v -0.027858 0.124194 -0.027857
v 0.027852 0.124194 -0.027857
v 0.027852 0.124194 0.027853
v -0.039183 -0.001937 -0.000002
v -0.039183 0.135302 -0.000002
v 0.039177 -0.001937 -0.000002
v 0.039177 0.135302 -0.000002
v -0.013190 0.175130 -0.000002
v 0.013184 0.175130 -0.000002
v -0.011363 0.200094 -0.000002
v 0.011357 0.200094 -0.000002
v -0.011363 0.257681 -0.000002
v 0.011357 0.257681 -0.000002
v 0.013728 0.238731 -0.000002
v 0.013728 0.245060 -0.000002
v -0.013734 0.238731 -0.000002
v -0.013734 0.245060 -0.000002
v -0.011363 0.245060 -0.000002
v -0.011363 0.238731 -0.000002
v 0.011357 0.245060 -0.000002
v 0.011357 0.238731 -0.000002
v 0.039177 0.053448 -0.000002
v -0.039183 0.053448 -0.000002
v 0.039177 0.124194 -0.000002
v -0.039183 0.124194 -0.000002
v -0.000003 -0.001937 -0.039182
v -0.000003 0.135302 -0.039182
v -0.000003 -0.001937 0.039178
v -0.000003 0.135302 0.039178
v -0.000003 0.175130 -0.013189
v -0.000003 0.175130 0.013185
v -0.000003 0.200094 -0.011362
v -0.000003 0.200094 0.011358
v -0.000003 0.257681 -0.011362
v -0.000003 0.257681 0.011358
v -0.000003 0.238731 0.013729
v -0.000003 0.245060 -0.013733
v -0.000003 0.238731 -0.013733
v -0.000003 0.245060 0.013729
v -0.000003 0.245060 -0.011362
v -0.000003 0.238731 -0.011362
v -0.000003 0.245060 0.011358
v -0.000003 0.238731 0.011358
v -0.000003 0.053448 0.039178
v -0.000003 0.053448 -0.039182
v -0.000003 0.124194 0.039178
v -0.000003 0.124194 -0.039182
v -0.000003 0.257681 -0.000002
v -0.000003 -0.001937 -0.000002
v 0.016421 0.162451 0.016422
v 0.024453 0.149875 0.024454
v -0.016427 0.162451 0.016422
v -0.024459 0.149875 0.024454
v -0.016427 0.162451 -0.016426
v -0.024459 0.149875 -0.024458
v 0.016421 0.162451 -0.016426
v 0.024453 0.149875 -0.024458
v -0.034403 0.149875 -0.000002
v -0.023105 0.162451 -0.000002
v 0.034397 0.149875 -0.000002
v 0.023099 0.162451 -0.000002
v -0.000003 0.149875 -0.034402
v -0.000003 0.162451 -0.023104
v -0.000003 0.149875 0.034398
v -0.000003 0.162451 0.023100
vn -0.9264 -0.0000 -0.3766
vn 0.3766 -0.0000 -0.9264
vn 0.9264 -0.0000 0.3766
vn -0.3766 -0.0000 0.9264
vn -0.0000 -1.0000 -0.0000
vn 0.8863 0.2907 0.3604
vn 0.9242 0.0676 -0.3758
vn -0.8863 0.2907 -0.3604
vn 0.3050 0.5867 -0.7502
vn -0.3050 0.5867 0.7502
vn -0.3766 -0.0000 -0.9264
vn -0.9242 0.0676 0.3758
vn 0.3758 0.0676 0.9242
vn -0.3758 0.0676 -0.9242
vn -0.0000 1.0000 -0.0000
vn -0.9264 -0.0000 0.3766
vn 0.3766 -0.0000 0.9264
vn 0.9264 -0.0000 -0.3766
vn -0.9242 0.0676 -0.3758
vn -0.3604 0.2907 -0.8863
vn 0.3604 0.2907 0.8863
vn 0.9242 0.0676 0.3758
vn 0.3758 0.0676 -0.9242
vn -0.3758 0.0676 0.9242
vn 0.8863 0.2907 -0.3604
vn -0.8863 0.2907 0.3604
vn -0.7502 0.5867 0.3050
vn 0.7502 0.5867 -0.3050
vn 0.7502 0.5867 0.3050
vn -0.7502 0.5867 -0.3050
vn -0.3050 0.5867 -0.7502
vn 0.3604 0.2907 -0.8863
vn -0.3604 0.2907 0.8863
vn -0.2895 0.6397 0.7120
vn 0.2895 0.6397 -0.7120
vn 0.7120 0.6397 0.2895
vn -0.7120 0.6397 -0.2895
vn -0.7120 0.6397 0.2895
vn 0.7120 0.6397 -0.2895
vn -0.2895 0.6397 -0.7120
vn 0.2895 0.6397 0.7120
vn 0.3050 0.5867 0.7502
vt 0.663400 0.757900
vt 0.663400 0.770800
vt 0.621800 0.770800
vt 0.621800 0.757900
vt 0.823200 0.704200
vt 0.823200 0.691400
vt 0.864700 0.691400
vt 0.864700 0.704200
vt 0.801400 0.807100
vt 0.801400 0.794200
vt 0.842900 0.794200
vt 0.842900 0.807100
vt 0.735900 0.725200
vt 0.741500 0.736600
vt 0.704500 0.755900
vt 0.698800 0.744400
vt 0.743300 0.662800
vt 0.693100 0.641900
vt 0.722100 0.611300
vt 0.763700 0.611300
vt 0.803900 0.776700
vt 0.840300 0.776700
vt 0.814900 0.744400
vt 0.804900 0.743300
vt 0.807200 0.714200
vt 0.815900 0.715100
vt 0.660900 0.788300
vt 0.624400 0.788300
vt 0.856000 0.657600
vt 0.831500 0.657600
vt 0.836700 0.641500
vt 0.850700 0.641500
vt 0.727100 0.782000
vt 0.749000 0.770600
vt 0.751500 0.787400
vt 0.739000 0.793900
vt 0.222000 0.837200
vt 0.189300 0.837200
vt 0.189300 0.720200
vt 0.222000 0.720200
vt 0.649900 0.820100
vt 0.659900 0.821000
vt 0.657500 0.850100
vt 0.648900 0.849300
vt 0.760900 0.783700
vt 0.771600 0.810700
vt 0.763500 0.813900
vt 0.826700 0.640400
vt 0.829000 0.611300
vt 0.837700 0.612300
vt 0.133400 0.829100
vt 0.117300 0.867800
vt 0.093900 0.845400
vt 0.093900 0.813400
vt 0.268900 0.603100
vt 0.301600 0.603100
vt 0.301600 0.720200
vt 0.268900 0.720200
vt 0.189300 0.603100
vt 0.222000 0.603100
vt 0.301600 0.837200
vt 0.268900 0.837200
vt 0.301600 0.635200
vt 0.340600 0.603100
vt 0.340600 0.635200
vt 0.340600 0.736200
vt 0.340600 0.768300
vt 0.301600 0.768300
vt 0.301600 0.736200
vt 0.360200 0.708500
vt 0.360200 0.736200
vt 0.340600 0.708500
vt 0.301600 0.690300
vt 0.301600 0.658200
vt 0.340600 0.658200
vt 0.340600 0.690300
vt 0.102100 0.727800
vt 0.102100 0.759900
vt 0.093900 0.763300
vt 0.093900 0.724500
vt 0.181100 0.665700
vt 0.181100 0.633600
vt 0.189300 0.630200
vt 0.189300 0.668900
vt 0.125500 0.688600
vt 0.158300 0.688600
vt 0.161700 0.696700
vt 0.122200 0.696700
vt 0.157700 0.611200
vt 0.124900 0.611200
vt 0.121500 0.603100
vt 0.161000 0.603100
vt 0.340600 0.791300
vt 0.340600 0.823400
vt 0.301600 0.823400
vt 0.301600 0.791300
vt 0.360200 0.641900
vt 0.360200 0.669700
vt 0.340600 0.669700
vt 0.340600 0.641900
vt 0.340600 0.830600
vt 0.340600 0.802800
vt 0.360200 0.802800
vt 0.360200 0.830600
vt 0.340600 0.764000
vt 0.360200 0.764000
vt 0.102100 0.634200
vt 0.102100 0.666300
vt 0.093900 0.669700
vt 0.093900 0.630900
vt 0.181100 0.759300
vt 0.181100 0.727200
vt 0.189300 0.723800
vt 0.189300 0.762600
vt 0.157700 0.704800
vt 0.124900 0.704800
vt 0.121500 0.696700
vt 0.161000 0.696700
vt 0.125500 0.782300
vt 0.158300 0.782300
vt 0.161700 0.790400
vt 0.122200 0.790400
vt 0.837400 0.837700
vt 0.900000 0.837700
vt 0.900000 0.880300
vt 0.837400 0.880300
vt 0.758900 0.862100
vt 0.696300 0.862100
vt 0.696300 0.819500
vt 0.758900 0.819500
vt 0.771600 0.837700
vt 0.834200 0.837700
vt 0.834200 0.880300
vt 0.771600 0.880300
vt 0.663400 0.611300
vt 0.663400 0.675700
vt 0.621800 0.675700
vt 0.621800 0.611300
vt 0.440400 0.258500
vt 0.440400 0.401200
vt 0.357300 0.401200
vt 0.357300 0.258500
vt 0.416900 0.258500
vt 0.416900 0.115800
vt 0.500000 0.115800
vt 0.500000 0.258500
vt 0.559500 0.258500
vt 0.559500 0.115800
vt 0.642700 0.115800
vt 0.642700 0.258500
vt 0.693100 0.678300
vt 0.693100 0.760500
vt 0.357300 0.115800
vt 0.693100 0.613900
vt 0.755700 0.892600
vt 0.693100 0.892600
vt 0.340600 0.869400
vt 0.360200 0.869400
vt 0.340600 0.713200
vt 0.301600 0.713200
vt 0.245500 0.720200
vt 0.245500 0.837200
vt 0.245500 0.603100
vt 0.172800 0.844900
vt 0.150000 0.867800
vt 0.635900 0.820100
vt 0.636900 0.849300
vt 0.793400 0.688100
vt 0.799500 0.671000
vt 0.825700 0.673800
vt 0.769500 0.725700
vt 0.771600 0.743900
vt 0.747100 0.753500
vt 0.828900 0.744400
vt 0.827900 0.715100
vt 0.722900 0.714200
vt 0.693100 0.684500
vt 0.771600 0.803900
vt 0.771600 0.791000
vt 0.693100 0.773400
vt 0.764400 0.714200
vt 0.793400 0.683700
vt 0.172800 0.812800
vt 0.149400 0.790400
vt 0.500000 0.401200
vt 0.774800 0.807100
vt 0.837400 0.807100
vt 0.840500 0.807100
vt 0.903100 0.807100
vt 0.360200 0.603100
vt 0.116700 0.790400
vt 0.849700 0.612300
vt 0.752800 0.819500
vt 0.777700 0.773800
vt 0.687000 0.790600
vt 0.793400 0.641100
vt 0.763800 0.714200
vt 0.793400 0.701000
vt 0.655000 0.804200
vt 0.672600 0.805700
vt 0.809700 0.760500
vt 0.792200 0.758600
vt 0.834200 0.760500
vt 0.630500 0.804200
vt 0.814000 0.655700
vt 0.862100 0.673800
vt 0.714600 0.770400
vt 0.712700 0.791700
vt 0.693100 0.784800
vt 0.765500 0.764200
s 0
usemtl Material.029
f 66/1/1 46/2/1 4/3/1 42/4/1
f 88/5/2 68/6/2 8/7/2 43/8/2
f 65/9/3 48/10/3 6/11/3 44/12/3
f 87/13/4 70/14/4 2/15/4 41/16/4
f 90/17/5 47/18/5 5/19/5 69/20/5
f 6/11/6 48/10/6 101/21/6 92/22/6
f 50/23/7 11/24/7 15/25/7 52/26/7
f 4/3/8 46/2/8 99/27/8 96/28/8
f 97/29/9 104/30/9 71/31/9 11/32/9
f 93/33/10 106/34/10 72/35/10 9/36/10
f 73/37/11 14/38/11 31/39/11 82/40/11
f 49/41/12 9/42/12 13/43/12 51/44/12
f 72/35/13 12/45/13 16/46/13 74/47/13
f 71/31/14 10/48/14 14/49/14 73/50/14
f 89/51/15 53/52/15 17/53/15 76/54/15
f 51/55/16 13/56/16 30/57/16 60/58/16
f 74/40/17 16/39/17 27/59/17 84/60/17
f 52/58/18 15/57/18 26/61/18 62/62/18
f 81/63/11 32/56/11 18/64/11 75/65/11
f 59/66/16 29/67/16 17/68/16 53/69/16
f 78/70/2 22/71/2 21/66/2 79/72/2
f 83/73/17 28/74/17 20/75/17 76/76/17
f 83/77/15 29/78/15 35/79/15 80/80/15
f 84/81/5 27/82/5 33/83/5 77/84/5
f 60/85/5 30/86/5 36/87/5 57/88/5
f 62/89/5 26/90/5 21/91/5 55/92/5
f 61/93/18 25/94/18 19/95/18 54/96/18
f 80/97/4 35/98/4 36/99/4 77/100/4
f 58/101/1 23/102/1 24/103/1 57/104/1
f 56/105/3 34/66/3 33/71/3 55/106/3
f 82/107/5 31/108/5 24/109/5 79/110/5
f 81/111/15 25/112/15 22/113/15 78/114/15
f 61/115/15 28/116/15 34/117/15 56/118/15
f 59/119/15 32/120/15 23/121/15 58/122/15
f 69/123/4 85/124/4 37/125/4 1/126/4
f 47/127/3 63/128/3 40/129/3 5/130/3
f 67/131/2 86/132/2 39/133/2 7/134/2
f 45/135/1 64/136/1 38/137/1 3/138/1
f 85/139/4 87/140/4 41/141/4 37/142/4
f 63/143/3 65/144/3 44/145/3 40/146/3
f 86/147/2 88/148/2 43/149/2 39/150/2
f 64/136/1 66/1/1 42/4/1 38/137/1
f 37/151/16 41/152/16 66/1/16 64/136/16
f 39/142/18 43/153/18 65/144/18 63/143/18
f 1/154/16 37/151/16 64/136/16 45/135/16
f 7/155/18 39/156/18 63/128/18 47/127/18
f 29/78/15 59/119/15 58/122/15 35/79/15
f 25/112/15 61/115/15 56/118/15 22/113/15
f 22/102/18 56/105/18 55/106/18 21/103/18
f 35/157/16 58/101/16 57/104/16 36/158/16
f 28/67/3 61/93/3 54/96/3 20/68/3
f 27/82/5 62/89/5 55/92/5 33/83/5
f 31/108/5 60/85/5 57/88/5 24/109/5
f 32/159/1 59/66/1 53/69/1 18/160/1
f 16/161/3 52/58/3 62/62/3 27/162/3
f 14/163/1 51/55/1 60/58/1 31/161/1
f 75/164/15 18/165/15 53/52/15 89/51/15
f 10/166/19 49/41/19 51/44/19 14/167/19
f 68/6/20 4/168/20 96/169/20 103/170/20
f 70/14/21 6/171/21 92/172/21 105/173/21
f 12/174/22 50/23/22 52/26/22 16/175/22
f 67/176/5 7/177/5 47/18/5 90/17/5
f 43/178/18 8/179/18 48/10/18 65/9/18
f 41/152/16 2/180/16 46/2/16 66/1/16
f 3/181/5 67/176/5 90/17/5 45/182/5
f 19/183/15 75/164/15 89/51/15 54/184/15
f 38/146/11 42/145/11 88/148/11 86/147/11
f 40/146/17 44/185/17 87/140/17 85/139/17
f 3/186/11 38/187/11 86/132/11 67/131/11
f 5/188/17 40/189/17 85/124/17 69/123/17
f 32/120/15 81/111/15 78/114/15 23/121/15
f 26/90/5 82/107/5 79/110/5 21/91/5
f 34/190/17 80/97/17 77/100/17 33/64/17
f 30/86/5 84/81/5 77/84/5 36/87/5
f 28/116/15 83/77/15 80/80/15 34/117/15
f 29/160/4 83/73/4 76/76/4 17/159/4
f 23/98/11 78/70/11 79/72/11 24/99/11
f 25/74/2 81/63/2 75/65/2 19/75/2
f 13/161/4 74/40/4 84/60/4 30/163/4
f 54/184/15 89/51/15 76/54/15 20/191/15
f 11/32/23 71/31/23 73/50/23 15/192/23
f 9/36/24 72/35/24 74/47/24 13/193/24
f 15/162/2 73/37/2 82/40/2 26/161/2
f 48/10/25 8/179/25 98/194/25 101/21/25
f 46/2/26 2/180/26 94/195/26 99/27/26
f 45/182/5 90/17/5 69/20/5 1/196/5
f 44/197/17 6/171/17 70/14/17 87/13/17
f 42/198/11 4/168/11 68/6/11 88/5/11
f 100/199/27 93/200/27 9/42/27 49/41/27
f 102/201/28 97/202/28 11/24/28 50/23/28
f 91/203/29 102/201/29 50/23/29 12/174/29
f 95/204/30 100/199/30 49/41/30 10/166/30
f 104/30/31 95/205/31 10/48/31 71/31/31
f 8/7/32 68/6/32 103/170/32 98/206/32
f 2/15/33 70/14/33 105/173/33 94/207/33
f 106/34/34 93/33/34 94/207/34 105/173/34
f 104/30/35 97/29/35 98/206/35 103/170/35
f 102/201/36 91/203/36 92/22/36 101/21/36
f 100/199/37 95/204/37 96/28/37 99/27/37
f 93/33/38 100/208/38 99/209/38 94/207/38
f 97/202/39 102/201/39 101/21/39 98/194/39
f 95/205/40 104/30/40 103/170/40 96/169/40
f 91/210/41 106/34/41 105/173/41 92/172/41
f 106/34/42 91/210/42 12/45/42 72/35/42
