# Blender v2.91.2 OBJ File: ''
# www.blender.org
mtllib Column_2Sides.mtl
o Cube_Cube.001
v -0.250000 -0.049265 0.250000
v -0.250000 6.976740 0.250000
v -0.250000 -0.049265 -0.250000
v -0.250000 6.976740 -0.250000
v 0.250000 -0.049265 0.250000
v 0.250000 6.976740 0.250000
v 0.250000 -0.049265 -0.250000
v 0.250000 6.976740 -0.250000
v 0.995681 6.976740 -0.250000
v 0.995681 -0.049265 -0.250000
v 0.995681 -0.049265 0.250000
v 0.995681 6.976740 0.250000
v -0.250000 -0.049265 1.058985
v -0.250000 6.976740 1.058985
v 0.250000 6.976740 1.058985
v 0.250000 -0.049265 1.058985
v -0.250000 6.976740 -1.105290
v -0.250000 -0.049265 -1.105290
v 0.250000 -0.049265 -1.105290
v 0.250000 6.976740 -1.105290
vt 0.882866 0.227418
vt 0.317242 0.663978
vt 0.380336 0.711188
vt 0.781988 0.095713
vt 0.747366 0.518627
vt 0.000094 0.557652
vt 0.201574 0.082260
vt 0.745518 0.771070
vt 0.882866 0.681571
vt 0.109604 0.529390
vt 0.091976 0.893274
vt 0.625327 0.373575
vt 0.555684 0.341184
vt 0.229171 0.999906
vt 0.446789 0.481752
vt 0.575576 0.976687
vt 0.791534 0.852895
vt 0.141088 0.462284
vt 0.381908 0.000094
vt 0.650757 0.787211
vn -1.0000 0.0000 0.0000
vn 1.0000 0.0000 0.0000
vn 0.0000 0.0000 -1.0000
vn 0.0000 0.0000 1.0000
usemtl None
s off
f 1/1/1 2/2/1 4/3/1 3/4/1
f 8/5/2 7/6/2 19/7/2 20/8/2
f 2/2/1 1/1/1 13/9/1 14/10/1
f 10/11/2 9/12/2 12/13/2 11/14/2
f 7/6/3 8/5/3 9/12/3 10/11/3
f 6/15/4 5/16/4 11/14/4 12/13/4
f 16/17/4 15/18/4 14/10/4 13/9/4
f 5/16/2 6/15/2 15/18/2 16/17/2
f 18/19/3 17/20/3 20/8/3 19/7/3
f 3/4/1 4/3/1 17/20/1 18/19/1
