# Blender v2.91.2 OBJ File: ''
# www.blender.org
mtllib Column.mtl
o Cube.001
v -0.452122 -0.601763 0.458682
v -0.453827 8.649466 0.460389
v -0.453827 8.649466 -0.456381
v -0.452122 -0.601763 -0.454677
v 0.462943 8.649466 -0.456381
v 0.461237 -0.601763 -0.454677
v 0.462943 8.649466 0.460389
v 0.461237 -0.601763 0.458682
vt 0.924782 0.200025
vt 0.000126 0.200025
vt 0.000126 0.000126
vt 0.924782 0.000126
vt 0.924782 0.799723
vt 0.000126 0.799723
vt 0.000126 0.599823
vt 0.924782 0.599824
vt 0.000126 0.399924
vt 0.924782 0.399925
vt 0.200277 0.999874
vt 0.200277 0.799975
vt 0.400176 0.799975
vt 0.400176 0.999874
vt 0.000126 0.799975
vt 0.200025 0.799975
vt 0.200025 0.999874
vt 0.000126 0.999874
vn -1.0000 -0.0002 0.0000
vn 0.0000 -0.0002 -1.0000
vn 1.0000 -0.0002 0.0000
vn 0.0000 -0.0002 1.0000
vn 0.0000 -1.0000 -0.0000
vn 0.0000 1.0000 0.0000
usemtl None
s 1
f 1/1/1 2/2/1 3/3/1 4/4/1
f 4/5/2 3/6/2 5/7/2 6/8/2
f 6/8/3 5/7/3 7/9/3 8/10/3
f 8/10/4 7/9/4 2/2/4 1/1/4
f 4/11/5 6/12/5 8/13/5 1/14/5
f 5/15/6 3/16/6 2/17/6 7/18/6
