# Blender v2.91.2 OBJ File: ''
# www.blender.org
mtllib Chair.mtl
o Chair
v -0.114715 0.725232 0.278089
v -0.191864 0.725232 0.278089
v -0.191864 0.005176 0.278089
v -0.114715 0.005176 0.278089
v -0.191864 0.005176 0.200940
v -0.191864 0.725232 0.200940
v -0.114715 0.725232 0.200940
v -0.114715 0.005176 0.200940
v -0.191864 0.005176 0.278089
v -0.191864 0.005176 0.200940
v -0.114715 0.005176 0.200940
v -0.114715 0.005176 0.278089
v -0.191864 0.725232 0.278089
v -0.114715 0.725232 0.278089
v -0.114715 0.005176 0.200940
v -0.114715 0.005176 0.278089
v -0.191864 0.725232 0.278089
v -0.191864 0.005176 0.200940
v -0.191864 0.005176 0.278089
v 0.365322 0.725232 0.278089
v 0.365322 0.768092 0.278089
v -0.191864 0.768092 0.278089
v -0.191864 0.725232 0.278089
v -0.191864 0.768092 -0.279097
v 0.365322 0.768092 -0.279097
v 0.365322 0.725232 -0.279097
v -0.191864 0.725232 -0.279097
v -0.191864 0.768092 0.278089
v -0.191864 0.725232 -0.279097
v -0.191864 0.725232 0.278089
v 0.365322 0.725232 -0.279097
v 0.365322 0.768092 -0.279097
v 0.365322 0.768092 0.278089
v 0.365322 0.725232 0.278089
v -0.191864 0.725232 -0.279097
v 0.365322 0.725232 -0.279097
v 0.365322 0.725232 0.278089
v -0.191864 0.725232 0.278089
v 0.365322 0.768092 0.278089
v 0.365322 0.768092 -0.279097
v -0.191864 0.768092 0.278089
v 0.288173 0.648083 0.200940
v 0.288173 0.648083 0.243800
v -0.191864 0.648083 0.243800
v -0.191864 0.648083 0.200940
v -0.191864 0.725232 0.243800
v 0.288173 0.725232 0.243800
v 0.288173 0.725232 0.200940
v 0.288173 0.725232 0.200940
v 0.288173 0.725232 0.243800
v 0.288173 0.648083 0.243800
v 0.288173 0.648083 0.200940
v 0.288173 0.725232 0.200940
v 0.288173 0.648083 0.200940
v 0.288173 0.648083 0.243800
v 0.288173 0.725232 0.243800
v 0.365322 0.725232 0.278089
v 0.288173 0.725232 0.278089
v 0.288174 0.005176 0.278089
v 0.365322 0.005176 0.278089
v 0.288174 0.005176 0.200940
v 0.288173 0.725232 0.200940
v 0.365322 0.725232 0.200940
v 0.365322 0.005176 0.200940
v 0.288174 0.005176 0.278089
v 0.288174 0.005176 0.200940
v 0.365322 0.005176 0.200940
v 0.365322 0.005176 0.278089
v 0.288173 0.725232 0.200940
v 0.288173 0.725232 0.278089
v 0.365322 0.725232 0.278089
v 0.365322 0.005176 0.200940
v 0.365322 0.725232 0.278089
v 0.365322 0.005176 0.278089
v 0.288173 0.725232 0.278089
v 0.288173 0.725232 0.200940
v 0.288174 0.005176 0.200940
v 0.288174 0.005176 0.278089
v 0.365322 0.725232 -0.201948
v 0.288173 0.725232 -0.201948
v 0.288174 0.005176 -0.201949
v 0.365322 0.005176 -0.201949
v 0.288174 0.005176 -0.279097
v 0.288173 0.725232 -0.279097
v 0.365322 0.725232 -0.279097
v 0.365322 0.005176 -0.279097
v 0.288174 0.005176 -0.201949
v 0.288174 0.005176 -0.279097
v 0.365322 0.005176 -0.279097
v 0.365322 0.005176 -0.201949
v 0.365322 0.725232 -0.279097
v 0.288173 0.725232 -0.279097
v 0.288173 0.725232 -0.201948
v 0.365322 0.725232 -0.201948
v 0.365322 0.005176 -0.279097
v 0.365322 0.725232 -0.279097
v 0.365322 0.725232 -0.201948
v 0.365322 0.005176 -0.201949
v 0.288173 0.725232 -0.201948
v 0.288173 0.725232 -0.279097
v 0.288174 0.005176 -0.279097
v 0.288174 0.005176 -0.201949
v -0.114715 0.725232 -0.201948
v -0.191864 0.725232 -0.201948
v -0.191864 0.005176 -0.201948
v -0.114715 0.005176 -0.201948
v -0.191864 0.005176 -0.279097
v -0.191864 0.725232 -0.279097
v -0.114715 0.725232 -0.279097
v -0.114715 0.005176 -0.279097
v -0.191864 0.005176 -0.201948
v -0.191864 0.005176 -0.279097
v -0.114715 0.005176 -0.279097
v -0.114715 0.005176 -0.201948
v -0.114715 0.725232 -0.279097
v -0.191864 0.725232 -0.279097
v -0.191864 0.725232 -0.201948
v -0.114715 0.725232 -0.201948
v -0.114715 0.005176 -0.279097
v -0.114715 0.725232 -0.279097
v -0.114715 0.725232 -0.201948
v -0.114715 0.005176 -0.201948
v -0.191864 0.725232 -0.201948
v -0.191864 0.725232 -0.279097
v -0.191864 0.005176 -0.279097
v -0.191864 0.005176 -0.201948
v 0.288173 0.648083 -0.244809
v 0.288173 0.648083 -0.201948
v -0.191864 0.648083 -0.201948
v -0.191864 0.648083 -0.244809
v -0.191864 0.725232 -0.201948
v 0.288173 0.725232 -0.201948
v 0.288173 0.725232 -0.244809
v -0.191864 0.725232 -0.244809
v -0.191864 0.648083 -0.201948
v -0.191864 0.725232 -0.201948
v -0.191864 0.725232 -0.244809
v -0.191864 0.648083 -0.244809
v 0.244824 0.725232 -0.244809
v 0.244824 0.725232 -0.201948
v 0.244824 0.648083 -0.201948
v 0.244824 0.648083 -0.244809
v -0.191864 0.725232 -0.244809
v 0.365322 0.725232 -0.244809
v 0.365322 0.648083 -0.244809
v -0.191864 0.648083 -0.244809
v 0.365322 0.648083 -0.201948
v 0.365322 0.725232 -0.201948
v -0.191864 0.725232 -0.201948
v -0.191864 0.648083 -0.201948
v 0.288173 0.648083 -0.279097
v 0.331034 0.648083 -0.279097
v 0.331034 0.648083 0.278089
v 0.288173 0.648083 0.278089
v 0.331034 0.725232 0.278089
v 0.331034 0.725232 -0.279097
v 0.288174 0.725232 -0.279097
v 0.288173 0.725232 0.278089
v 0.331034 0.648083 0.278089
v 0.331034 0.725232 0.278089
v 0.288173 0.725232 0.278089
v 0.288173 0.648083 0.278089
v 0.288174 0.725232 -0.279097
v 0.331034 0.725232 -0.279097
v 0.331034 0.648083 -0.279097
v 0.288173 0.648083 -0.279097
v 0.288173 0.725232 0.278089
v 0.288174 0.725232 -0.279097
v 0.288173 0.648083 -0.279097
v 0.288173 0.648083 0.278089
v 0.331034 0.648083 -0.279097
v 0.331034 0.725232 -0.279097
v 0.331034 0.725232 0.278089
v 0.331034 0.648083 0.278089
v -0.157575 0.648083 -0.279097
v -0.114715 0.648083 -0.279097
v -0.114715 0.648083 0.200940
v -0.157575 0.648083 0.200940
v -0.114715 0.725232 -0.279097
v -0.157575 0.725232 -0.279097
v -0.157575 0.725232 0.200940
v -0.114715 0.648083 0.200940
v -0.157575 0.725232 -0.279097
v -0.114715 0.725232 -0.279097
v -0.114715 0.648083 -0.279097
v -0.157575 0.648083 -0.279097
v -0.157575 0.725232 -0.279097
v -0.157575 0.648083 -0.279097
v -0.114715 0.648083 -0.279097
v -0.114715 0.725232 -0.279097
v -0.114715 0.648083 0.278089
v -0.114715 1.475290 -0.201948
v -0.191864 1.475289 -0.201948
v -0.191864 0.755234 -0.201948
v -0.114715 0.755234 -0.201948
v -0.191864 0.755234 -0.279097
v -0.191864 1.475290 -0.279097
v -0.114715 1.475290 -0.279097
v -0.114715 0.755234 -0.279097
v -0.191864 0.755234 -0.201948
v -0.114715 0.755234 -0.279097
v -0.114715 0.755234 -0.201948
v -0.114715 0.755234 -0.279097
v -0.114715 0.755234 -0.201948
v -0.191864 0.755234 -0.279097
v -0.191864 0.755234 -0.201948
v 0.288173 0.133757 -0.261953
v 0.288173 0.133757 -0.219093
v -0.114715 0.133757 -0.219093
v -0.114715 0.133757 -0.261953
v -0.114715 0.210906 -0.219093
v 0.288174 0.210906 -0.219093
v 0.288174 0.210906 -0.261953
v -0.114715 0.210906 -0.261953
v -0.114715 0.133757 -0.219093
v -0.114715 0.210906 -0.219093
v -0.114715 0.210906 -0.261953
v -0.114715 0.133757 -0.261953
v 0.288174 0.210906 -0.261953
v 0.288174 0.210906 -0.219093
v 0.288173 0.133757 -0.219093
v 0.288173 0.133757 -0.261953
v -0.114715 0.210906 -0.261953
v 0.288174 0.210906 -0.261953
v 0.288173 0.133757 -0.261953
v -0.114715 0.133757 -0.261953
v 0.288173 0.133757 -0.219093
v 0.288174 0.210906 -0.219093
v -0.114715 0.210906 -0.219093
v -0.114715 0.133757 -0.219093
v 0.288173 0.133757 0.218084
v 0.288173 0.133757 0.260944
v -0.114715 0.133757 0.260944
v -0.114715 0.133757 0.218084
v -0.114715 0.210906 0.260944
v 0.288174 0.210906 0.260944
v 0.288174 0.210906 0.218084
v -0.114715 0.210906 0.218084
v -0.114715 0.133757 0.260944
v -0.114715 0.210906 0.260944
v -0.114715 0.210906 0.218084
v -0.114715 0.133757 0.218084
v 0.288174 0.210906 0.218084
v 0.288174 0.210906 0.260944
v 0.288173 0.133757 0.260944
v 0.288173 0.133757 0.218084
v -0.114715 0.210906 0.218084
v 0.288174 0.210906 0.218084
v 0.288173 0.133757 0.218084
v -0.114715 0.133757 0.218084
v 0.288173 0.133757 0.260944
v 0.288174 0.210906 0.260944
v -0.114715 0.210906 0.260944
v -0.114715 0.133757 0.260944
v -0.114715 1.483861 0.278089
v -0.191864 1.483861 0.278089
v -0.191864 0.763806 0.278089
v -0.114715 0.763806 0.278089
v -0.191864 0.763806 0.200940
v -0.191864 1.483861 0.200940
v -0.114715 1.483861 0.200940
v -0.114715 0.763806 0.200940
v -0.183291 0.982394 0.200940
v -0.140431 0.982394 0.200940
v -0.140431 0.982394 -0.201948
v -0.183291 0.982394 -0.201948
v -0.140431 0.905246 -0.201948
v -0.140431 0.905246 0.200940
v -0.183291 0.905246 0.200940
v -0.183291 0.905246 -0.201948
v -0.140431 0.982394 -0.201948
v -0.140431 0.905246 -0.201948
v -0.183291 0.905246 -0.201948
v -0.183291 0.982394 -0.201948
v -0.183291 0.905246 0.200940
v -0.140431 0.905246 0.200940
v -0.140431 0.982394 0.200940
v -0.183291 0.982394 0.200940
v -0.183291 0.905246 -0.201948
v -0.183291 0.905246 0.200940
v -0.183291 0.982394 0.200940
v -0.183291 0.982394 -0.201948
v -0.140431 0.982394 0.200940
v -0.140431 0.905246 0.200940
v -0.140431 0.905246 -0.201948
v -0.140431 0.982394 -0.201948
v -0.183292 1.462431 0.200940
v -0.140431 1.462431 0.200940
v -0.140431 1.462432 -0.201948
v -0.183292 1.462432 -0.201948
v -0.140431 1.385283 -0.201948
v -0.140431 1.385283 0.200940
v -0.183292 1.385283 0.200940
v -0.183292 1.385283 -0.201948
v -0.140431 1.462432 -0.201948
v -0.140431 1.385283 -0.201948
v -0.183292 1.385283 -0.201948
v -0.183292 1.462432 -0.201948
v -0.183292 1.385283 0.200940
v -0.140431 1.385283 0.200940
v -0.140431 1.462431 0.200940
v -0.183292 1.462431 0.200940
v -0.183292 1.385283 -0.201948
v -0.183292 1.385283 0.200940
v -0.183292 1.462431 0.200940
v -0.183292 1.462432 -0.201948
v -0.140431 1.462431 0.200940
v -0.140431 1.385283 0.200940
v -0.140431 1.385283 -0.201948
v -0.140431 1.462432 -0.201948
v -0.183291 1.385283 0.046642
v -0.140431 1.385283 0.046642
v -0.140431 0.982394 0.046642
v -0.183291 0.982394 0.046642
v -0.140431 0.982394 0.123791
v -0.140431 1.385283 0.123791
v -0.183292 1.385283 0.123791
v -0.183291 0.982394 0.123791
v -0.140431 0.982394 0.046642
v -0.140431 0.982394 0.123791
v -0.183291 0.982394 0.123791
v -0.183291 0.982394 0.046642
v -0.183291 0.982394 0.123791
v -0.183291 0.982394 0.046642
v -0.140431 0.982394 0.123791
v -0.140431 0.982394 0.046642
v -0.183291 1.385283 -0.116228
v -0.140431 1.385283 -0.116228
v -0.140431 0.982394 -0.116228
v -0.183291 0.982394 -0.116228
v -0.140431 0.982394 -0.039079
v -0.140431 1.385283 -0.039079
v -0.183291 1.385283 -0.039079
v -0.183291 0.982394 -0.039079
v -0.140431 0.982394 -0.116228
v -0.140431 0.982394 -0.039079
v -0.183291 0.982394 -0.039079
v -0.183291 0.982394 -0.116228
v -0.183291 0.982394 -0.039079
v -0.183291 0.982394 -0.116228
v -0.140431 0.982394 -0.039079
v -0.140431 0.982394 -0.116228
vt 0.272275 0.542279
vt 0.272275 0.504893
vt 0.621203 0.504894
vt 0.621203 0.542279
vt 0.776799 0.255659
vt 0.776799 0.604587
vt 0.739414 0.604587
vt 0.739413 0.255659
vt 0.106505 0.777185
vt 0.143890 0.777185
vt 0.143890 0.814571
vt 0.106505 0.814571
vt 0.740537 0.078554
vt 0.777923 0.078554
vt 0.777923 0.115940
vt 0.740537 0.115940
vt 0.854597 0.255659
vt 0.854597 0.604587
vt 0.817212 0.604587
vt 0.817211 0.255659
vt 0.272275 0.503380
vt 0.272275 0.465995
vt 0.621203 0.465995
vt 0.621203 0.503380
vt 0.954678 0.450893
vt 0.933908 0.450893
vt 0.933908 0.180890
vt 0.954678 0.180890
vt 0.813793 0.160506
vt 0.543790 0.160506
vt 0.543790 0.139736
vt 0.813793 0.139736
vt 0.334971 0.660489
vt 0.334971 0.930492
vt 0.314201 0.930492
vt 0.314201 0.660489
vt 0.954677 0.722410
vt 0.933908 0.722410
vt 0.933908 0.452407
vt 0.954677 0.452407
vt 0.270761 0.272275
vt 0.270761 0.542279
vt 0.000757 0.542279
vt 0.000757 0.272275
vt 0.270761 0.000757
vt 0.270761 0.270761
vt 0.000757 0.270761
vt 0.000757 0.000757
vt 0.543790 0.227355
vt 0.543790 0.206586
vt 0.776408 0.206586
vt 0.776408 0.227356
vt 0.060425 0.738287
vt 0.060425 0.970905
vt 0.039656 0.970905
vt 0.039656 0.738287
vt 0.874976 0.117453
vt 0.874976 0.154838
vt 0.854207 0.154838
vt 0.854207 0.117453
vt 0.699001 0.840234
vt 0.699001 0.861003
vt 0.661616 0.861003
vt 0.661616 0.840234
vt 0.000757 0.893108
vt 0.000757 0.660489
vt 0.038142 0.660489
vt 0.038142 0.893108
vt 0.699001 0.838720
vt 0.661616 0.838720
vt 0.661616 0.606102
vt 0.699001 0.606102
vt 0.543790 0.038142
vt 0.543790 0.000757
vt 0.892719 0.000757
vt 0.892719 0.038142
vt 0.506794 0.892721
vt 0.506794 0.543792
vt 0.544179 0.543792
vt 0.544179 0.892721
vt 0.143890 0.816084
vt 0.143890 0.853469
vt 0.106505 0.853469
vt 0.106505 0.816084
vt 0.143890 0.738287
vt 0.143890 0.775672
vt 0.106505 0.775672
vt 0.106505 0.738287
vt 0.388584 0.543792
vt 0.388584 0.892721
vt 0.351199 0.892721
vt 0.351198 0.543792
vt 0.815698 0.604587
vt 0.778313 0.604587
vt 0.778313 0.255659
vt 0.815698 0.255659
vt 0.892719 0.039656
vt 0.892719 0.077041
vt 0.543790 0.077040
vt 0.543790 0.039656
vt 0.467896 0.892721
vt 0.467895 0.543792
vt 0.505280 0.543792
vt 0.505280 0.892721
vt 0.182789 0.816084
vt 0.182789 0.853469
vt 0.145404 0.853469
vt 0.145404 0.816084
vt 0.145404 0.738287
vt 0.182789 0.738287
vt 0.182789 0.775672
vt 0.145404 0.775672
vt 0.583078 0.543792
vt 0.583078 0.892720
vt 0.545693 0.892720
vt 0.545693 0.543792
vt 0.000757 0.658976
vt 0.000757 0.621590
vt 0.349684 0.621590
vt 0.349684 0.658976
vt 0.000757 0.581178
vt 0.000757 0.543792
vt 0.349685 0.543792
vt 0.349685 0.581178
vt 0.466382 0.543792
vt 0.466382 0.892721
vt 0.428996 0.892721
vt 0.428996 0.543792
vt 0.815308 0.117453
vt 0.852693 0.117453
vt 0.852693 0.154838
vt 0.815308 0.154838
vt 0.184302 0.814571
vt 0.184302 0.777185
vt 0.221688 0.777185
vt 0.221688 0.814571
vt 0.427483 0.543792
vt 0.427483 0.892721
vt 0.390098 0.892721
vt 0.390097 0.543792
vt 0.000757 0.620077
vt 0.000757 0.582691
vt 0.349685 0.582691
vt 0.349685 0.620077
vt 0.543790 0.182789
vt 0.543790 0.162020
vt 0.776409 0.162019
vt 0.776409 0.182789
vt 0.954678 0.723923
vt 0.954678 0.956542
vt 0.933908 0.956542
vt 0.933908 0.723923
vt 0.605361 0.815310
vt 0.605361 0.852695
vt 0.584591 0.852695
vt 0.584591 0.815310
vt 0.777922 0.182789
vt 0.777922 0.162019
vt 0.815308 0.162019
vt 0.815308 0.182789
vt 0.854597 0.606101
vt 0.854597 0.876105
vt 0.817211 0.876105
vt 0.817212 0.606101
vt 0.815698 0.876105
vt 0.778313 0.876105
vt 0.778313 0.606101
vt 0.815698 0.606101
vt 0.813794 0.117453
vt 0.813794 0.138223
vt 0.543790 0.138223
vt 0.543790 0.117453
vt 0.605361 0.543792
vt 0.605361 0.813797
vt 0.584592 0.813797
vt 0.584591 0.543792
vt 0.839105 0.078554
vt 0.839105 0.115940
vt 0.818335 0.115940
vt 0.818335 0.078554
vt 0.740538 0.249638
vt 0.740538 0.228869
vt 0.777923 0.228869
vt 0.777923 0.249639
vt 0.622717 0.876106
vt 0.622717 0.606102
vt 0.660102 0.606102
vt 0.660102 0.876106
vt 0.776799 0.876105
vt 0.739413 0.876105
vt 0.739414 0.606101
vt 0.776799 0.606101
vt 0.543790 0.205072
vt 0.543790 0.184303
vt 0.776408 0.184303
vt 0.776408 0.205072
vt 0.504891 0.254146
vt 0.272275 0.254145
vt 0.272275 0.233376
vt 0.504891 0.233376
vt 0.542277 0.254146
vt 0.542277 0.233376
vt 0.855720 0.228869
vt 0.855720 0.249638
vt 0.818335 0.249638
vt 0.818335 0.228869
vt 0.504891 0.000757
vt 0.542277 0.000757
vt 0.737900 0.876106
vt 0.700515 0.876106
vt 0.700515 0.606102
vt 0.737900 0.606102
vt 0.661616 0.255659
vt 0.699001 0.255660
vt 0.699001 0.604588
vt 0.661616 0.604588
vt 0.700515 0.604587
vt 0.700515 0.255659
vt 0.737900 0.255659
vt 0.737900 0.604587
vt 0.779436 0.078554
vt 0.816821 0.078554
vt 0.816821 0.115940
vt 0.779436 0.115940
vt 0.145404 0.777185
vt 0.182789 0.777185
vt 0.182789 0.814571
vt 0.145404 0.814571
vt 0.272275 0.406714
vt 0.621203 0.406714
vt 0.621203 0.444099
vt 0.272275 0.444099
vt 0.622717 0.255660
vt 0.660102 0.255659
vt 0.660102 0.604588
vt 0.622717 0.604588
vt 0.999243 0.376123
vt 0.978474 0.376123
vt 0.978474 0.180890
vt 0.999243 0.180890
vt 0.976960 0.452407
vt 0.976960 0.647641
vt 0.956191 0.647641
vt 0.956191 0.452407
vt 0.699001 0.883286
vt 0.661616 0.883286
vt 0.661616 0.862517
vt 0.699001 0.862517
vt 0.856110 0.866671
vt 0.856110 0.845902
vt 0.893496 0.845902
vt 0.893496 0.866671
vt 0.236403 0.855723
vt 0.236403 0.660489
vt 0.273789 0.660490
vt 0.273789 0.855723
vt 0.931617 0.195990
vt 0.894232 0.195991
vt 0.894232 0.000757
vt 0.931617 0.000757
vt 0.544179 0.894234
vt 0.544179 0.915004
vt 0.348945 0.915004
vt 0.348945 0.894234
vt 0.084222 0.933521
vt 0.084222 0.738287
vt 0.104991 0.738287
vt 0.104991 0.933521
vt 0.861387 0.227355
vt 0.861387 0.189970
vt 0.882156 0.189970
vt 0.882156 0.227355
vt 0.816821 0.182789
vt 0.816821 0.162019
vt 0.854206 0.162019
vt 0.854206 0.182789
vt 0.275302 0.855723
vt 0.275302 0.660489
vt 0.312687 0.660490
vt 0.312687 0.855723
vt 0.893496 0.844388
vt 0.856110 0.844389
vt 0.856110 0.649154
vt 0.893496 0.649154
vt 0.272275 0.293044
vt 0.272275 0.255659
vt 0.621203 0.255660
vt 0.621203 0.293045
vt 0.621203 0.367815
vt 0.272275 0.367815
vt 0.272275 0.330430
vt 0.621203 0.330430
vt 0.815307 0.227356
vt 0.777922 0.227356
vt 0.777922 0.189970
vt 0.815307 0.189970
vt 0.184303 0.738287
vt 0.221688 0.738287
vt 0.221688 0.775672
vt 0.184303 0.775672
vt 0.272275 0.405201
vt 0.621203 0.405200
vt 0.978473 0.649154
vt 0.999243 0.649154
vt 0.999243 0.844388
vt 0.978473 0.844388
vt 0.978473 0.647641
vt 0.978473 0.452407
vt 0.999243 0.452407
vt 0.999243 0.647641
vt 0.894232 0.234889
vt 0.894232 0.197504
vt 0.915001 0.197504
vt 0.915001 0.234889
vt 0.584591 0.854209
vt 0.605361 0.854209
vt 0.605361 0.891594
vt 0.584591 0.891594
vt 0.895009 0.647640
vt 0.895009 0.452407
vt 0.932394 0.452407
vt 0.932394 0.647640
vt 0.895009 0.649154
vt 0.932394 0.649154
vt 0.932394 0.844388
vt 0.895009 0.844388
vt 0.543790 0.249639
vt 0.543790 0.228869
vt 0.739024 0.228869
vt 0.739024 0.249639
vt 0.082709 0.738287
vt 0.082709 0.933521
vt 0.061939 0.933521
vt 0.061939 0.738287
vt 0.779436 0.228869
vt 0.816822 0.228869
vt 0.816822 0.249639
vt 0.779436 0.249639
vt 0.221687 0.816084
vt 0.221687 0.836854
vt 0.184302 0.836854
vt 0.184302 0.816084
vt 0.739024 0.115940
vt 0.543790 0.115940
vt 0.543790 0.078555
vt 0.739024 0.078554
vt 0.895010 0.255659
vt 0.932395 0.255659
vt 0.932395 0.450893
vt 0.895009 0.450893
vt 0.117454 0.900289
vt 0.117454 0.879520
vt 0.312687 0.879520
vt 0.312687 0.900289
vt 0.117454 0.857237
vt 0.312687 0.857237
vt 0.312687 0.878006
vt 0.117454 0.878006
vt 0.840618 0.115940
vt 0.840618 0.078554
vt 0.861388 0.078554
vt 0.861388 0.115940
vt 0.816821 0.189970
vt 0.837590 0.189970
vt 0.837590 0.227356
vt 0.816821 0.227356
vt 0.893496 0.255659
vt 0.893496 0.450893
vt 0.856110 0.450893
vt 0.856110 0.255659
vt 0.039656 0.736773
vt 0.039656 0.699388
vt 0.234890 0.699388
vt 0.234890 0.736773
vt 0.700515 0.898388
vt 0.700515 0.877619
vt 0.895749 0.877619
vt 0.895749 0.898388
vt 0.976961 0.180890
vt 0.976961 0.376123
vt 0.956191 0.376124
vt 0.956191 0.180890
vt 0.839104 0.227356
vt 0.839104 0.189970
vt 0.859873 0.189970
vt 0.859873 0.227356
vt 0.862901 0.078554
vt 0.883670 0.078554
vt 0.883670 0.115940
vt 0.862901 0.115940
vt 0.893496 0.452407
vt 0.893496 0.647641
vt 0.856110 0.647641
vt 0.856110 0.452407
vt 0.039656 0.697874
vt 0.039656 0.660489
vt 0.234890 0.660489
vt 0.234890 0.697874
vn 0.0000 -0.0000 1.0000
vn 0.0000 0.0000 -1.0000
vn 0.7071 0.5000 -0.4999
vn -0.7071 0.4999 -0.5000
vn 0.0000 -1.0000 0.0000
vn 0.0000 1.0000 0.0000
vn 1.0000 0.0000 0.0000
vn -1.0000 0.0000 0.0000
vn 0.0501 -0.6517 -0.7568
vn 0.0502 -0.6517 -0.7568
vn 0.0141 -0.9873 -0.1583
vn -0.6760 -0.3880 -0.6265
vn -0.3331 -0.1863 -0.9243
vn -0.3587 0.8876 -0.2888
vn 0.1038 0.6703 -0.7348
vn 0.9661 -0.0451 -0.2544
vn -0.3336 0.9106 -0.2440
vn 0.3515 -0.0377 -0.9354
vn 0.6263 0.5959 -0.5027
vn 0.9253 0.2915 -0.2428
vn -0.6014 0.5650 0.5650
vn 0.6014 0.5649 0.5650
vn -0.3334 0.2440 0.9107
vn 0.5650 0.6014 0.5650
vn -0.9106 0.2441 -0.3334
vn -0.9107 0.3333 0.2440
vn 0.5650 0.5649 0.6014
vn 0.3334 0.2440 -0.9107
usemtl Chair
s 1
f 1/1/1 2/2/1 3/3/1 4/4/1
f 5/5/2 6/6/3 7/7/4 8/8/2
f 9/9/5 10/10/5 11/11/5 12/12/5
f 7/13/4 6/14/3 13/15/6 14/16/6
f 15/17/7 7/18/7 1/19/7 16/20/7
f 17/21/8 6/22/8 18/23/8 19/24/8
f 20/25/1 21/26/1 22/27/1 23/28/1
f 24/29/9 25/30/10 26/31/9 27/32/9
f 28/33/8 24/34/8 29/35/8 30/36/8
f 31/37/7 32/38/7 33/39/7 34/40/7
f 35/41/5 36/42/5 37/43/5 38/44/5
f 39/45/6 40/46/6 24/47/6 41/48/6
f 42/49/11 43/50/11 44/51/12 45/52/13
f 46/53/14 47/54/6 48/55/6 6/56/15
f 44/57/12 46/58/14 6/59/15 45/60/13
f 49/61/7 50/62/7 51/63/7 52/64/7
f 6/65/15 53/66/2 54/67/2 45/68/13
f 55/69/1 56/70/1 46/71/14 44/72/12
f 57/73/1 58/74/1 59/75/1 60/76/1
f 61/77/2 62/78/2 63/79/2 64/80/2
f 65/81/5 66/82/5 67/83/5 68/84/5
f 63/85/6 69/86/6 70/87/6 71/88/6
f 72/89/7 63/90/7 73/91/7 74/92/7
f 75/93/8 76/94/8 77/95/8 78/96/8
f 79/97/1 80/98/1 81/99/1 82/100/1
f 83/101/2 84/102/2 85/103/2 86/104/2
f 87/105/5 88/106/5 89/107/5 90/108/5
f 91/109/6 92/110/6 93/111/6 94/112/6
f 95/113/7 96/114/7 97/115/7 98/116/7
f 99/117/8 100/118/8 101/119/8 102/120/8
f 103/121/1 104/122/1 105/123/1 106/124/1
f 107/125/2 108/126/2 109/127/2 110/128/2
f 111/129/5 112/130/5 113/131/5 114/132/5
f 115/133/6 116/134/6 117/135/6 118/136/6
f 119/137/7 120/138/7 121/139/7 122/140/7
f 123/141/8 124/142/8 125/143/8 126/144/8
f 127/145/5 128/146/5 129/147/5 130/148/5
f 131/149/6 132/150/6 133/151/6 134/152/6
f 135/153/8 136/154/8 137/155/8 138/156/8
f 139/157/7 140/158/7 141/159/7 142/160/7
f 143/161/2 144/162/2 145/163/2 146/164/2
f 147/165/1 148/166/1 149/167/1 150/168/1
f 151/169/5 152/170/5 153/171/5 154/172/5
f 155/173/6 156/174/6 157/175/6 158/176/6
f 159/177/1 160/178/1 161/179/1 162/180/1
f 163/181/2 164/182/2 165/183/2 166/184/2
f 167/185/8 168/186/8 169/187/8 170/188/8
f 171/189/7 172/190/7 173/191/7 174/192/7
f 175/193/5 176/194/5 177/195/5 178/196/5
f 7/197/6 179/198/6 180/199/6 181/200/6
f 182/201/1 7/197/1 181/200/1 178/202/1
f 183/203/2 184/204/2 185/205/2 186/206/2
f 181/200/8 187/207/8 188/208/8 178/202/8
f 189/209/7 190/210/7 14/211/7 191/212/7
f 192/213/16 193/214/17 194/215/1 195/216/1
f 196/217/18 197/218/19 198/219/20 199/220/18
f 200/221/5 196/222/5 201/223/5 202/224/5
f 198/225/20 197/226/19 193/227/17 192/228/16
f 203/229/7 198/230/20 192/231/16 204/232/7
f 193/233/17 197/234/19 205/235/8 206/236/8
f 207/237/5 208/238/5 209/239/5 210/240/5
f 211/241/6 212/242/6 213/243/6 214/244/6
f 215/245/8 216/246/8 217/247/8 218/248/8
f 219/249/7 220/250/7 221/251/7 222/252/7
f 223/253/2 224/254/2 225/255/2 226/256/2
f 227/257/1 228/258/1 229/259/1 230/260/1
f 231/261/5 232/262/5 233/263/5 234/264/5
f 235/265/6 236/266/6 237/267/6 238/268/6
f 239/269/8 240/270/8 241/271/8 242/272/8
f 243/273/7 244/274/7 245/275/7 246/276/7
f 247/277/2 248/278/2 249/279/2 250/280/2
f 251/281/1 252/282/1 253/283/1 254/284/1
f 255/285/21 256/286/22 257/287/23 258/288/24
f 259/289/25 260/290/26 261/291/27 262/292/28
f 257/293/23 259/294/25 262/295/28 258/296/24
f 261/297/27 260/298/26 256/299/22 255/300/21
f 262/292/28 261/291/27 255/285/21 258/288/24
f 256/301/22 260/290/26 259/289/25 257/302/23
f 263/303/6 264/304/6 265/305/6 266/306/6
f 267/307/5 268/308/5 269/309/5 270/310/5
f 271/311/2 272/312/2 273/313/2 274/314/2
f 275/315/1 276/316/1 277/317/1 278/318/1
f 279/319/8 280/320/8 281/321/8 282/322/8
f 283/323/7 284/324/7 285/325/7 286/326/7
f 287/327/6 288/328/6 289/329/6 290/330/6
f 291/331/5 292/332/5 293/333/5 294/334/5
f 295/335/2 296/336/2 297/337/2 298/338/2
f 299/339/1 300/340/1 301/341/1 302/342/1
f 303/343/8 304/344/8 305/345/8 306/346/8
f 307/347/7 308/348/7 309/349/7 310/350/7
f 311/351/2 312/352/2 313/353/2 314/354/2
f 315/355/1 316/356/1 317/357/1 318/358/1
f 319/359/5 320/360/5 321/361/5 322/362/5
f 317/363/6 316/364/6 312/365/6 311/366/6
f 323/367/8 317/368/8 311/369/8 324/370/8
f 312/371/7 316/372/7 325/373/7 326/374/7
f 327/375/2 328/376/2 329/377/2 330/378/2
f 331/379/1 332/380/1 333/381/1 334/382/1
f 335/383/5 336/384/5 337/385/5 338/386/5
f 333/387/6 332/388/6 328/389/6 327/390/6
f 339/391/8 333/392/8 327/393/8 340/394/8
f 328/395/7 332/396/7 341/397/7 342/398/7
