# Blender 4.3.2
# www.blender.org
mtllib Table_Large_Rectangular_01.mtl
o Table_Large_Rectangular_01_Circle.004
v 5.871727 7.129837 -9.903392
v -5.871727 7.129837 -9.903392
v 5.871727 7.129839 9.895961
v -5.871727 7.129839 9.895961
v 5.706116 7.543403 9.730349
v 5.871727 7.377791 9.895961
v -5.706116 7.543403 9.730349
v -5.871727 7.377791 9.895961
v -5.706116 7.543401 -9.737780
v -5.871727 7.377789 -9.903392
v 5.706116 7.543401 -9.737780
v 5.871727 7.377789 -9.903392
v -5.871727 7.129838 -0.003715
v 5.871727 7.129838 -0.003715
v -5.871727 7.377790 -0.003715
v -5.706116 7.543402 -0.003715
v 5.871727 7.377790 -0.003715
v 5.706116 7.543402 -0.003715
v -4.311074 0.000001 8.064142
v -4.501732 0.000001 8.143115
v -4.580706 0.000001 8.333774
v -4.501732 0.000001 8.524432
v -4.311074 0.000001 8.603405
v -4.120416 0.000001 8.524432
v -4.041442 0.000001 8.333774
v -4.120416 0.000001 8.143115
v -4.311074 7.385418 7.878729
v -4.632838 7.385418 8.012009
v -4.766117 7.385418 8.333773
v -4.632838 7.385418 8.655537
v -4.311074 7.385418 8.788815
v -3.989310 7.385418 8.655537
v -3.856031 7.385418 8.333773
v -3.989310 7.385418 8.012009
v -4.311074 0.000001 8.333774
v 4.311074 0.000001 8.064142
v 4.501732 0.000001 8.143115
v 4.580706 0.000001 8.333774
v 4.501732 0.000001 8.524432
v 4.311074 0.000001 8.603405
v 4.120416 0.000001 8.524432
v 4.041442 0.000001 8.333774
v 4.120416 0.000001 8.143115
v 4.311074 7.385418 7.878729
v 4.632838 7.385418 8.012009
v 4.766117 7.385418 8.333773
v 4.632838 7.385418 8.655537
v 4.311074 7.385418 8.788815
v 3.989310 7.385418 8.655537
v 3.856031 7.385418 8.333773
v 3.989310 7.385418 8.012009
v 4.311074 0.000001 8.333774
v -4.311074 -0.000001 -8.064142
v -4.501732 -0.000001 -8.143115
v -4.580706 -0.000001 -8.333774
v -4.501732 -0.000001 -8.524432
v -4.311074 -0.000001 -8.603405
v -4.120416 -0.000001 -8.524432
v -4.041442 -0.000001 -8.333774
v -4.120416 -0.000001 -8.143115
v -4.311074 7.385417 -7.878730
v -4.632838 7.385417 -8.012011
v -4.766117 7.385417 -8.333775
v -4.632838 7.385417 -8.655539
v -4.311074 7.385417 -8.788817
v -3.989310 7.385417 -8.655539
v -3.856031 7.385417 -8.333775
v -3.989310 7.385417 -8.012011
v -4.311074 -0.000001 -8.333774
v 4.311074 -0.000001 -8.064142
v 4.501732 -0.000001 -8.143115
v 4.580706 -0.000001 -8.333774
v 4.501732 -0.000001 -8.524432
v 4.311074 -0.000001 -8.603405
v 4.120416 -0.000001 -8.524432
v 4.041442 -0.000001 -8.333774
v 4.120416 -0.000001 -8.143115
v 4.311074 7.385417 -7.878730
v 4.632838 7.385417 -8.012011
v 4.766117 7.385417 -8.333775
v 4.632838 7.385417 -8.655539
v 4.311074 7.385417 -8.788817
v 3.989310 7.385417 -8.655539
v 3.856031 7.385417 -8.333775
v 3.989310 7.385417 -8.012011
v 4.311074 -0.000001 -8.333774
vn -0.0000 -1.0000 -0.0000
vn 1.0000 -0.0000 -0.0000
vn -0.0000 1.0000 -0.0000
vn -0.0000 -0.0000 -1.0000
vn -1.0000 -0.0000 -0.0000
vn -0.0000 0.7071 0.7071
vn -0.7071 0.7071 -0.0000
vn 0.7071 0.7071 -0.0000
vn -0.0000 0.7071 -0.7071
vn -0.0000 -0.0000 1.0000
vn -0.9236 -0.0232 0.3826
vn -0.3826 -0.0232 -0.9236
vn 0.3826 -0.0232 -0.9236
vn 0.9236 -0.0232 0.3826
vn -0.3826 -0.0232 0.9236
vn -0.9236 -0.0232 -0.3826
vn 0.9236 -0.0232 -0.3826
vn 0.3826 -0.0232 0.9236
vt 0.431926 0.364112
vt 0.431926 0.728224
vt 0.000000 0.728224
vt 0.000000 0.364112
vt 0.872971 0.364112
vt 0.872971 0.728224
vt 0.863853 0.728224
vt 0.863853 0.364112
vt 0.438018 0.364112
vt 0.857762 0.364112
vt 0.857762 0.722133
vt 0.438018 0.722133
vt 0.976765 0.431926
vt 0.976765 0.000000
vt 0.985883 0.000000
vt 0.985883 0.431926
vt 0.872971 0.364112
vt 0.872971 0.000000
vt 0.882089 0.000000
vt 0.882089 0.364112
vt 0.431926 0.000000
vt 0.863853 0.000000
vt 0.857762 0.006091
vt 0.438018 0.006091
vt 0.863853 0.364112
vt 0.863853 0.728224
vt 0.985883 0.431926
vt 0.985883 0.863853
vt 0.976765 0.863853
vt 0.976765 0.431926
vt 0.872971 0.728224
vt 0.882089 0.728224
vt 0.872971 0.000000
vt 0.863853 0.000000
vt 0.000000 0.000000
vt 0.964930 0.543504
vt 0.957918 0.543562
vt 0.953096 0.271882
vt 0.964930 0.271786
vt 0.893923 0.543636
vt 0.900936 0.543571
vt 0.905758 0.815249
vt 0.893923 0.815357
vt 0.886911 0.543571
vt 0.882089 0.815249
vt 0.971943 0.815347
vt 0.964931 0.815290
vt 0.964931 0.543571
vt 0.976765 0.543668
vt 0.900936 0.271786
vt 0.893923 0.271721
vt 0.893923 0.000000
vt 0.905758 0.000108
vt 0.971943 0.543562
vt 0.976765 0.271882
vt 0.957918 0.815347
vt 0.953096 0.543668
vt 0.886911 0.271786
vt 0.882089 0.000108
vt 0.113001 0.741181
vt 0.107634 0.746548
vt 0.103839 0.737386
vt 0.100043 0.746548
vt 0.094676 0.741181
vt 0.094676 0.733591
vt 0.100043 0.728224
vt 0.107634 0.728224
vt 0.113001 0.733591
vt 0.011835 0.999943
vt 0.011835 0.728224
vt 0.023669 0.728321
vt 0.018847 1.000000
vt 0.917592 0.000064
vt 0.917592 0.271786
vt 0.905758 0.271677
vt 0.910580 0.000000
vt 0.924605 0.000000
vt 0.929427 0.271677
vt 0.028491 1.000000
vt 0.023669 0.728321
vt 0.035504 0.728224
vt 0.035504 0.999943
vt 0.934249 0.271786
vt 0.929427 0.000108
vt 0.941261 -0.000000
vt 0.941262 0.271721
vt 0.004822 1.000000
vt 0.000000 0.728321
vt 0.047338 0.728321
vt 0.042516 1.000000
vt 0.953096 0.000108
vt 0.948274 0.271786
vt 0.131325 0.741181
vt 0.140487 0.737386
vt 0.136692 0.746548
vt 0.144282 0.746548
vt 0.149650 0.741181
vt 0.149650 0.733591
vt 0.144282 0.728224
vt 0.136692 0.728224
vt 0.131325 0.733591
vt 0.059173 0.999943
vt 0.059173 0.728224
vt 0.071007 0.728321
vt 0.066185 1.000000
vt 0.893923 0.543507
vt 0.893923 0.271786
vt 0.905758 0.271894
vt 0.882089 0.271894
vt 0.934249 0.815347
vt 0.929427 0.543668
vt 0.941262 0.543571
vt 0.941262 0.815290
vt 0.924605 0.271786
vt 0.929427 0.543463
vt 0.917592 0.543571
vt 0.917592 0.271850
vt 0.052160 1.000000
vt 0.953096 0.543668
vt 0.948274 0.815347
vt 0.905758 0.543463
vt 0.910580 0.271786
vt 0.131325 0.733591
vt 0.122163 0.737386
vt 0.125958 0.728224
vt 0.118368 0.728224
vt 0.113001 0.733591
vt 0.113001 0.741181
vt 0.118368 0.746548
vt 0.125958 0.746548
vt 0.131325 0.741181
vt 0.082842 0.999943
vt 0.075829 1.000000
vt 0.071007 0.728321
vt 0.082842 0.728224
vt 0.941261 0.543507
vt 0.934249 0.543571
vt 0.929427 0.271894
vt 0.941261 0.271786
vt 0.948274 0.543571
vt 0.953096 0.271894
vt 0.971943 0.271776
vt 0.964930 0.271719
vt 0.964930 0.000000
vt 0.976765 0.000097
vt 0.910580 0.543571
vt 0.917592 0.543636
vt 0.917592 0.815357
vt 0.905758 0.815249
vt 0.089854 1.000000
vt 0.094676 0.728321
vt 0.957918 0.271776
vt 0.953096 0.000097
vt 0.924605 0.543571
vt 0.929427 0.815249
vt 0.149649 0.733591
vt 0.155017 0.728224
vt 0.158812 0.737386
vt 0.162607 0.728224
vt 0.167974 0.733591
vt 0.167974 0.741181
vt 0.162607 0.746548
vt 0.155016 0.746548
vt 0.149649 0.741181
s 1
usemtl 795548
f 13/1/1 2/2/1 1/3/1 14/4/1
f 14/5/2 1/6/2 12/7/2 17/8/2
f 16/9/3 18/10/3 11/11/3 9/12/3
f 1/13/4 2/14/4 10/15/4 12/16/4
f 13/17/5 4/18/5 8/19/5 15/20/5
f 8/21/6 6/22/6 5/23/6 7/24/6
f 15/1/7 8/21/7 7/24/7 16/9/7
f 17/25/8 12/26/8 11/11/8 18/10/8
f 12/26/9 10/2/9 9/12/9 11/11/9
f 4/27/10 3/28/10 6/29/10 8/30/10
f 6/22/8 17/25/8 18/10/8 5/23/8
f 10/2/7 15/1/7 16/9/7 9/12/7
f 2/31/5 13/17/5 15/20/5 10/32/5
f 7/24/3 5/23/3 18/10/3 16/9/3
f 3/33/2 14/5/2 17/8/2 6/34/2
f 4/21/1 13/1/1 14/4/1 3/35/1
f 21/36/11 22/37/11 30/38/11 29/39/11
f 19/40/12 20/41/12 28/42/12 27/43/12
f 26/44/13 19/40/13 27/43/13 34/45/13
f 24/46/14 25/47/14 33/48/14 32/49/14
f 22/50/15 23/51/15 31/52/15 30/53/15
f 20/54/16 21/36/16 29/39/16 28/55/16
f 25/47/17 26/56/17 34/57/17 33/48/17
f 23/51/18 24/58/18 32/59/18 31/52/18
f 22/60/1 21/61/1 35/62/1
f 20/63/1 19/64/1 35/62/1
f 19/64/1 26/65/1 35/62/1
f 25/66/1 24/67/1 35/62/1
f 23/68/1 22/60/1 35/62/1
f 21/61/1 20/63/1 35/62/1
f 26/65/1 25/66/1 35/62/1
f 24/67/1 23/68/1 35/62/1
f 38/69/14 46/70/14 47/71/14 39/72/14
f 36/73/13 44/74/13 45/75/13 37/76/13
f 43/77/12 51/78/12 44/74/12 36/73/12
f 41/79/11 49/80/11 50/81/11 42/82/11
f 39/83/18 47/84/18 48/85/18 40/86/18
f 37/87/17 45/88/17 46/70/17 38/69/17
f 42/82/16 50/81/16 51/89/16 43/90/16
f 40/86/15 48/85/15 49/91/15 41/92/15
f 39/93/1 52/94/1 38/95/1
f 37/96/1 52/94/1 36/97/1
f 36/97/1 52/94/1 43/98/1
f 42/99/1 52/94/1 41/100/1
f 40/101/1 52/94/1 39/93/1
f 38/95/1 52/94/1 37/96/1
f 43/98/1 52/94/1 42/99/1
f 41/100/1 52/94/1 40/101/1
f 55/102/16 63/103/16 64/104/16 56/105/16
f 53/106/15 61/107/15 62/108/15 54/41/15
f 60/44/18 68/109/18 61/107/18 53/106/18
f 58/110/17 66/111/17 67/112/17 59/113/17
f 56/114/12 64/115/12 65/116/12 57/117/12
f 54/118/11 62/89/11 63/103/11 55/102/11
f 59/113/14 67/112/14 68/119/14 60/120/14
f 57/117/13 65/116/13 66/121/13 58/122/13
f 56/123/1 69/124/1 55/125/1
f 54/126/1 69/124/1 53/127/1
f 53/127/1 69/124/1 60/128/1
f 59/129/1 69/124/1 58/130/1
f 57/131/1 69/124/1 56/123/1
f 55/125/1 69/124/1 54/126/1
f 60/128/1 69/124/1 59/129/1
f 58/130/1 69/124/1 57/131/1
f 72/132/17 73/133/17 81/134/17 80/135/17
f 70/136/18 71/137/18 79/138/18 78/139/18
f 77/140/15 70/136/15 78/139/15 85/141/15
f 75/142/16 76/143/16 84/144/16 83/145/16
f 73/146/13 74/147/13 82/148/13 81/149/13
f 71/150/14 72/132/14 80/135/14 79/151/14
f 76/143/11 77/152/11 85/153/11 84/144/11
f 74/147/12 75/154/12 83/155/12 82/148/12
f 73/156/1 72/157/1 86/158/1
f 71/159/1 70/160/1 86/158/1
f 70/160/1 77/161/1 86/158/1
f 76/162/1 75/163/1 86/158/1
f 74/164/1 73/156/1 86/158/1
f 72/157/1 71/159/1 86/158/1
f 77/161/1 76/162/1 86/158/1
f 75/163/1 74/164/1 86/158/1
