# Blender v2.91.2 OBJ File: ''
# www.blender.org
mtllib Door2.mtl
o group1957211378.001
v 0.004547 2.301021 0.709543
v -0.071174 2.300369 0.710412
v -0.048889 -0.023429 0.714219
v 0.026833 -0.022778 0.713351
v -0.062487 -0.023566 -0.697487
v -0.084773 2.300231 -0.701295
v -0.009051 2.300881 -0.702163
v 0.013234 -0.022917 -0.698356
v 0.050751 0.041055 0.683999
v 0.029558 2.237606 0.680193
v 0.016625 2.237473 -0.673379
v 0.037819 0.040924 -0.669574
v 0.041211 0.093028 0.654058
v 0.021466 2.192217 0.650255
v 0.009264 2.192092 -0.639630
v 0.029009 0.092904 -0.635827
vt 0.189057 1.002107
vt 0.156241 1.002138
vt 0.156242 -0.004888
vt 0.189059 -0.004920
vt 0.844379 -0.006114
vt 0.844423 0.998291
vt 0.811692 0.998260
vt 0.811648 -0.006145
vt 0.196953 -0.039586
vt 0.805528 -0.038552
vt 0.805532 -0.005907
vt 0.196957 -0.006941
vt 0.805443 1.000521
vt 0.805327 1.033165
vt 0.196751 1.032113
vt 0.196868 0.999470
vt 0.206155 0.022670
vt 0.206169 0.973689
vt 0.209468 0.970063
vt 0.792982 0.971054
vt 0.794639 0.970725
vt 0.794584 0.022112
vt 0.792971 0.023519
vt 0.209457 0.022509
vt 0.222360 0.045288
vt 0.222441 0.950234
vt 0.778501 0.951187
vt 0.778419 0.046242
vt 0.806081 3.000842
vt 0.195133 3.001839
vt 0.195133 1.996161
vt 0.806081 1.995163
vn 0.4768 0.6380 0.6046
vn -0.5766 0.5725 0.5829
vn -0.5659 -0.5820 0.5840
vn 0.4884 -0.6288 0.6050
vn -0.5781 -0.5831 -0.5707
vn -0.5885 0.5717 -0.5716
vn 0.4641 0.6369 -0.6156
vn 0.4751 -0.6295 -0.6148
vn 0.9604 -0.0873 0.2644
vn 0.9594 0.1056 0.2614
vn 0.9533 0.1062 -0.2828
vn 0.9544 -0.0897 -0.2846
vn 0.7807 0.5324 -0.3271
vn 0.7933 0.6070 0.0465
vn 0.9081 0.0263 -0.4179
vn 0.8760 -0.2997 -0.3779
usemtl mat20.001
s 1
f 1/1/1 2/2/2 3/3/3 4/4/4
f 5/5/5 6/6/6 7/7/7 8/8/8
f 3/9/3 5/10/5 8/11/8 4/12/4
f 7/13/7 6/14/6 2/15/2 1/16/1
f 9/17/9 10/18/10 1/1/1 4/4/4
f 10/19/10 11/20/11 7/13/7 1/16/1
f 11/21/11 12/22/12 8/8/8 7/7/7
f 12/23/12 9/24/9 4/12/4 8/11/8
f 13/25/13 14/26/14 10/18/10 9/17/9
f 14/26/14 15/27/15 11/20/11 10/19/10
f 15/27/15 16/28/16 12/22/12 11/21/11
f 16/28/16 13/25/13 9/24/9 12/23/12
f 13/25/13 16/28/16 15/27/15 14/26/14
usemtl InnerDoorMaterial
f 2/29/2 6/30/6 5/31/5 3/32/3
o group1181464856.001
v -0.006842 1.142431 -0.583447
v -0.005083 1.161476 -0.586509
v 0.041941 1.177059 -0.588537
v 0.040182 1.158014 -0.585475
v -0.002661 1.181158 -0.578219
v 0.044363 1.196741 -0.580247
v -0.000224 1.196204 -0.560800
v 0.046800 1.211787 -0.562827
v 0.001574 1.202583 -0.538917
v 0.048598 1.218166 -0.540945
v 0.002252 1.198584 -0.518436
v 0.049276 1.214167 -0.520463
v 0.001629 1.185280 -0.504843
v 0.048652 1.200863 -0.506870
v -0.000130 1.166235 -0.501781
v 0.046893 1.181819 -0.503809
v -0.002553 1.146553 -0.510071
v 0.044471 1.162136 -0.512098
v -0.004989 1.131507 -0.527490
v 0.042034 1.147090 -0.529518
v -0.006788 1.125128 -0.549373
v 0.040236 1.140712 -0.551400
v -0.007466 1.129127 -0.569854
v 0.039558 1.144710 -0.571882
v 0.021478 1.171621 -0.568401
v 0.022224 1.182175 -0.570183
v 0.071706 1.181912 -0.574450
v 0.070960 1.171358 -0.572669
v 0.023265 1.193133 -0.565644
v 0.072747 1.192869 -0.569911
v 0.024322 1.201557 -0.556002
v 0.073804 1.201294 -0.560269
v 0.025112 1.205192 -0.543839
v 0.074594 1.204928 -0.548106
v 0.025423 1.203063 -0.532415
v 0.074905 1.202799 -0.536682
v 0.025171 1.195740 -0.524791
v 0.074653 1.195476 -0.529059
v 0.024425 1.185186 -0.523010
v 0.073907 1.184922 -0.527277
v 0.023384 1.174229 -0.527549
v 0.072866 1.173965 -0.531816
v 0.022327 1.165804 -0.537191
v 0.071809 1.165541 -0.541458
v 0.021538 1.162170 -0.549354
v 0.071019 1.161906 -0.553621
v 0.021227 1.164299 -0.560778
v 0.070709 1.164035 -0.565045
v 0.149337 1.161727 -0.550251
v 0.148673 1.158846 -0.559371
v 0.155067 1.174630 -0.558029
v 0.148853 1.160272 -0.568065
v 0.149828 1.165623 -0.574003
v 0.151338 1.173466 -0.575594
v 0.152976 1.181699 -0.572411
v 0.154306 1.188115 -0.565309
v 0.154969 1.190997 -0.556189
v 0.154789 1.189571 -0.547495
v 0.153814 1.184220 -0.541557
v 0.152305 1.176377 -0.539966
v 0.150666 1.168144 -0.543149
v 0.137805 1.150964 -0.542913
v 0.136558 1.145549 -0.560053
v 0.136896 1.148229 -0.576391
v 0.138729 1.158286 -0.587551
v 0.141566 1.173026 -0.590541
v 0.144645 1.188498 -0.584560
v 0.147144 1.200558 -0.571212
v 0.148391 1.205973 -0.554072
v 0.148053 1.203293 -0.537733
v 0.146220 1.193236 -0.526574
v 0.143383 1.178497 -0.523584
v 0.140303 1.163024 -0.529564
v 0.121863 1.143639 -0.536899
v 0.120183 1.136343 -0.559992
v 0.120639 1.139954 -0.582005
v 0.123108 1.153504 -0.597040
v 0.126930 1.173363 -0.601068
v 0.131079 1.194209 -0.593011
v 0.134445 1.210457 -0.575026
v 0.136125 1.217753 -0.551934
v 0.135670 1.214142 -0.529921
v 0.133200 1.200592 -0.514886
v 0.129379 1.180733 -0.510858
v 0.125229 1.159887 -0.518915
v 0.103434 1.140636 -0.532936
v 0.101524 1.132339 -0.559196
v 0.102042 1.136445 -0.584228
v 0.104850 1.151853 -0.601325
v 0.109196 1.174436 -0.605906
v 0.113914 1.198141 -0.596744
v 0.117742 1.216617 -0.576292
v 0.119653 1.224914 -0.550033
v 0.119134 1.220808 -0.525000
v 0.116326 1.205400 -0.507903
v 0.111980 1.182817 -0.503322
v 0.107262 1.159112 -0.512485
v 0.084741 1.142315 -0.531501
v 0.082830 1.134018 -0.557760
v 0.083348 1.138124 -0.582793
v 0.086156 1.153533 -0.599890
v 0.090502 1.176115 -0.604471
v 0.095221 1.199821 -0.595308
v 0.099048 1.218297 -0.574857
v 0.100959 1.226594 -0.548597
v 0.100441 1.222488 -0.523565
v 0.097633 1.207079 -0.506468
v 0.093287 1.184497 -0.501887
v 0.088568 1.160792 -0.511050
v 0.068037 1.148476 -0.532767
v 0.066357 1.141180 -0.555859
v 0.066813 1.144791 -0.577872
v 0.069282 1.158341 -0.592907
v 0.073104 1.178199 -0.596936
v 0.077254 1.199045 -0.588878
v 0.080619 1.215293 -0.570894
v 0.082300 1.222589 -0.547801
v 0.081844 1.218979 -0.525788
v 0.079374 1.205429 -0.510753
v 0.075553 1.185570 -0.506725
v 0.071403 1.164724 -0.514782
v 0.055339 1.158375 -0.536581
v 0.054092 1.152959 -0.553721
v 0.054430 1.155639 -0.570060
v 0.056263 1.165697 -0.581219
v 0.059099 1.180436 -0.584209
v 0.062179 1.195909 -0.578229
v 0.064678 1.207968 -0.564880
v 0.065925 1.213384 -0.547740
v 0.065586 1.210704 -0.531402
v 0.063754 1.200647 -0.520242
v 0.060917 1.185907 -0.517252
v 0.057837 1.170434 -0.523233
v 0.048177 1.170817 -0.542484
v 0.047513 1.167936 -0.551604
v 0.047693 1.169362 -0.560298
v 0.048669 1.174713 -0.566236
v 0.050178 1.182556 -0.567827
v 0.051817 1.190789 -0.564644
v 0.053146 1.197205 -0.557542
v 0.053810 1.200087 -0.548422
v 0.053630 1.198661 -0.539728
v 0.052654 1.193310 -0.533791
v 0.051145 1.185467 -0.532200
v 0.049506 1.177234 -0.535382
v 0.047415 1.184303 -0.549764
vt 0.167423 0.000499
vt 0.165138 0.000046
vt 0.162411 0.004204
vt 0.164696 0.004657
vt 0.124045 -0.037010
vt 0.121727 -0.037235
vt 0.119411 -0.032835
vt 0.121730 -0.032609
vt 0.040200 -0.082425
vt 0.037873 -0.082326
vt 0.036686 -0.077498
vt 0.039013 -0.077596
vt -0.060560 -0.084486
vt -0.062849 -0.084057
vt -0.062458 -0.079101
vt -0.060168 -0.079529
vt -0.135536 -0.044096
vt -0.137786 -0.043494
vt -0.136046 -0.038836
vt -0.133796 -0.039438
vt -0.169175 -0.003754
vt -0.171429 -0.003164
vt -0.168909 0.001123
vt -0.166655 0.000533
vt -0.164944 0.001021
vt -0.167229 0.001475
vt -0.164503 0.005633
vt -0.162218 0.005179
vt -0.121814 -0.038130
vt -0.124132 -0.037904
vt -0.121817 -0.033504
vt -0.119498 -0.033730
vt -0.037769 -0.084786
vt -0.040097 -0.084884
vt -0.038910 -0.080055
vt -0.036582 -0.079957
vt 0.063451 -0.087281
vt 0.061162 -0.087709
vt 0.060771 -0.082752
vt 0.063060 -0.082324
vt 0.138640 -0.046681
vt 0.136390 -0.047284
vt 0.134650 -0.042626
vt 0.136900 -0.042023
vt 0.172068 -0.005605
vt 0.169814 -0.006195
vt 0.167295 -0.001909
vt 0.169548 -0.001319
vt 0.068508 0.152991
vt 0.067061 0.151165
vt 0.064896 0.150308
vt 0.062591 0.150648
vt 0.060766 0.152095
vt 0.059908 0.154260
vt 0.060248 0.156565
vt 0.061695 0.158390
vt 0.063861 0.159248
vt 0.066165 0.158908
vt 0.067991 0.157461
vt 0.068848 0.155295
vt -0.070420 0.156429
vt -0.069563 0.158595
vt -0.067737 0.160042
vt -0.065433 0.160382
vt -0.063267 0.159525
vt -0.061820 0.157699
vt -0.061480 0.155395
vt -0.062337 0.153229
vt -0.064163 0.151782
vt -0.066467 0.151442
vt -0.068633 0.152299
vt -0.070080 0.154125
vt 0.170548 0.004651
vt 0.169334 0.004349
vt 0.168128 0.009202
vt 0.169341 0.009503
vt 0.147644 -0.011235
vt 0.146413 -0.011451
vt 0.145547 -0.006527
vt 0.146778 -0.006310
vt 0.083780 -0.032004
vt 0.082532 -0.032073
vt 0.082252 -0.027081
vt 0.083500 -0.027011
vt -0.004557 -0.036387
vt -0.005803 -0.036289
vt -0.005410 -0.031304
vt -0.004163 -0.031403
vt -0.090170 -0.019934
vt -0.091397 -0.019698
vt -0.090451 -0.014788
vt -0.089224 -0.015024
vt -0.149698 0.000335
vt -0.150909 0.000644
vt -0.149675 0.005489
vt -0.148464 0.005180
vt -0.170548 0.004651
vt -0.171761 0.004953
vt -0.170554 0.009805
vt -0.169341 0.009503
vt -0.147644 -0.011235
vt -0.148875 -0.011018
vt -0.148009 -0.006094
vt -0.146778 -0.006310
vt -0.083780 -0.032004
vt -0.085028 -0.031934
vt -0.084748 -0.026942
vt -0.083500 -0.027011
vt 0.004557 -0.036387
vt 0.003311 -0.036486
vt 0.002917 -0.031501
vt 0.004163 -0.031403
vt 0.090170 -0.019934
vt 0.088942 -0.020171
vt 0.087996 -0.015261
vt 0.089224 -0.015024
vt 0.149698 0.000335
vt 0.148487 0.000026
vt 0.147252 0.004872
vt 0.148464 0.005180
vt 0.051211 0.158569
vt 0.050513 0.157479
vt 0.049364 0.156884
vt 0.048071 0.156943
vt 0.046981 0.157641
vt 0.046386 0.158790
vt 0.046445 0.160083
vt 0.047142 0.161173
vt 0.048292 0.161768
vt 0.049584 0.161709
vt 0.050674 0.161011
vt 0.051270 0.159862
vt -0.051270 0.159862
vt -0.050674 0.161011
vt -0.049584 0.161709
vt -0.048292 0.161768
vt -0.047142 0.161173
vt -0.046445 0.160083
vt -0.046386 0.158790
vt -0.046981 0.157641
vt -0.048071 0.156943
vt -0.049364 0.156884
vt -0.050513 0.157479
vt -0.051211 0.158569
vt 0.098940 0.139316
vt 0.099571 0.138574
vt 0.097872 0.137767
vt 0.099747 0.137617
vt 0.099420 0.136699
vt 0.098679 0.136068
vt 0.097721 0.135892
vt 0.096804 0.136219
vt 0.096173 0.136960
vt 0.095997 0.137918
vt 0.096323 0.138835
vt 0.097065 0.139466
vt 0.098022 0.139642
vt 0.074552 -0.147224
vt 0.072780 -0.147651
vt 0.072735 -0.145785
vt 0.073678 -0.145558
vt 0.146493 -0.079474
vt 0.144757 -0.080029
vt 0.144576 -0.078172
vt 0.145500 -0.077877
vt 0.169138 -0.011206
vt 0.167363 -0.011621
vt 0.167331 -0.009755
vt 0.168275 -0.009534
vt 0.162509 0.047064
vt 0.160693 0.046909
vt 0.160930 0.048760
vt 0.161897 0.048842
vt 0.134532 0.093486
vt 0.132716 0.093648
vt 0.133271 0.095430
vt 0.134237 0.095343
vt 0.090225 0.127652
vt 0.088471 0.128147
vt 0.089346 0.129796
vt 0.090279 0.129532
vt 0.034502 0.148632
vt 0.032868 0.149440
vt 0.034029 0.150901
vt 0.034898 0.150471
vt -0.027401 0.153546
vt -0.028878 0.154615
vt -0.027489 0.155861
vt -0.026703 0.155292
vt -0.089989 0.136425
vt -0.091314 0.137677
vt -0.089775 0.138733
vt -0.089070 0.138067
vt -0.145572 0.085895
vt -0.146837 0.087207
vt -0.145251 0.088191
vt -0.144578 0.087492
vt -0.168518 -0.019184
vt -0.169969 -0.018081
vt -0.168553 -0.016866
vt -0.167780 -0.017453
vt -0.073834 -0.149593
vt -0.075634 -0.149303
vt -0.074955 -0.147565
vt -0.073998 -0.147719
vt 0.024866 -0.137266
vt 0.022435 -0.137251
vt 0.022695 -0.135410
vt 0.024500 -0.135421
vt 0.113091 -0.095640
vt 0.110667 -0.095824
vt 0.110775 -0.093968
vt 0.112574 -0.093831
vt 0.160388 -0.034235
vt 0.157963 -0.034408
vt 0.158080 -0.032552
vt 0.159880 -0.032424
vt 0.167807 0.023111
vt 0.165376 0.023101
vt 0.165616 0.024945
vt 0.167421 0.024953
vt 0.141322 0.067906
vt 0.138903 0.068149
vt 0.139335 0.069957
vt 0.141130 0.069777
vt 0.088420 0.099515
vt 0.086048 0.100048
vt 0.086695 0.101792
vt 0.088455 0.101395
vt 0.018641 0.117966
vt 0.016348 0.118776
vt 0.017196 0.120431
vt 0.018898 0.119830
vt -0.056517 0.119187
vt -0.058722 0.120211
vt -0.057721 0.121778
vt -0.056084 0.121018
vt -0.123672 0.094554
vt -0.125822 0.095689
vt -0.124742 0.097202
vt -0.123146 0.096360
vt -0.165293 0.036042
vt -0.167465 0.037134
vt -0.166416 0.038669
vt -0.164803 0.037859
vt -0.156912 -0.049973
vt -0.159192 -0.049128
vt -0.158319 -0.047487
vt -0.156627 -0.048113
vt -0.082934 -0.123724
vt -0.085329 -0.123305
vt -0.084766 -0.121533
vt -0.082989 -0.121843
vt 0.010440 -0.096825
vt 0.007708 -0.096821
vt 0.007790 -0.094957
vt 0.010193 -0.094960
vt 0.097926 -0.068646
vt 0.095199 -0.068825
vt 0.095157 -0.066959
vt 0.097555 -0.066802
vt 0.153604 -0.025058
vt 0.150879 -0.025261
vt 0.150821 -0.023395
vt 0.153217 -0.023217
vt 0.169007 0.013680
vt 0.166276 0.013596
vt 0.166299 0.015462
vt 0.168700 0.015535
vt 0.144655 0.040501
vt 0.141926 0.040638
vt 0.142099 0.042496
vt 0.144499 0.042376
vt 0.087440 0.058371
vt 0.084738 0.058775
vt 0.085093 0.060607
vt 0.087469 0.060252
vt 0.010250 0.070921
vt 0.007599 0.071580
vt 0.008126 0.073371
vt 0.010458 0.072791
vt -0.070080 0.074791
vt -0.072678 0.075637
vt -0.072024 0.077385
vt -0.069740 0.076641
vt -0.135589 0.060089
vt -0.138161 0.061011
vt -0.137457 0.062739
vt -0.135195 0.061929
vt -0.168257 0.019477
vt -0.170853 0.020330
vt -0.170195 0.022076
vt -0.167912 0.021326
vt -0.152207 -0.038993
vt -0.154865 -0.038360
vt -0.154355 -0.036565
vt -0.152018 -0.037122
vt -0.084888 -0.087082
vt -0.087602 -0.086770
vt -0.087311 -0.084927
vt -0.084923 -0.085201
vt 0.002399 -0.043717
vt -0.000307 -0.043885
vt -0.000511 -0.042015
vt 0.002195 -0.041847
vt 0.088017 -0.025489
vt 0.085327 -0.025822
vt 0.085009 -0.023968
vt 0.087699 -0.023635
vt 0.148088 -0.002357
vt 0.145402 -0.002729
vt 0.145058 -0.000879
vt 0.147744 -0.000508
vt 0.169288 0.010651
vt 0.166591 0.010370
vt 0.166310 0.012230
vt 0.169006 0.012511
vt 0.147075 0.011412
vt 0.144366 0.011327
vt 0.144219 0.013202
vt 0.146929 0.013287
vt 0.086679 0.009574
vt 0.083973 0.009739
vt 0.084000 0.011620
vt 0.086706 0.011455
vt 0.003886 0.014644
vt 0.001205 0.015048
vt 0.001399 0.016919
vt 0.004080 0.016515
vt -0.079476 0.024643
vt -0.082126 0.025212
vt -0.081817 0.027068
vt -0.079166 0.026498
vt -0.142566 0.027321
vt -0.145205 0.027943
vt -0.144859 0.029792
vt -0.142220 0.029170
vt -0.169099 0.012400
vt -0.171755 0.012944
vt -0.171463 0.014803
vt -0.168807 0.014258
vt -0.149381 -0.016435
vt -0.152069 -0.016086
vt -0.151914 -0.014211
vt -0.149226 -0.014560
vt -0.085908 -0.040918
vt -0.088618 -0.040833
vt -0.088647 -0.038953
vt -0.085937 -0.039037
vt -0.003886 0.014644
vt -0.006244 0.014288
vt -0.006761 0.016111
vt -0.004080 0.016515
vt 0.079476 0.024643
vt 0.077145 0.024142
vt 0.076516 0.025929
vt 0.079166 0.026498
vt 0.142566 0.027321
vt 0.140245 0.026775
vt 0.139581 0.028549
vt 0.142220 0.029170
vt 0.169099 0.012400
vt 0.166763 0.011921
vt 0.166151 0.013714
vt 0.168807 0.014258
vt 0.149381 -0.016435
vt 0.147016 -0.016742
vt 0.146537 -0.014909
vt 0.149226 -0.014560
vt 0.085908 -0.040918
vt 0.083525 -0.040991
vt 0.083227 -0.039121
vt 0.085937 -0.039037
vt -0.002399 -0.043717
vt -0.004779 -0.043569
vt -0.004901 -0.041678
vt -0.002195 -0.041847
vt -0.088017 -0.025489
vt -0.090383 -0.025196
vt -0.090390 -0.023302
vt -0.087699 -0.023635
vt -0.148088 -0.002357
vt -0.150450 -0.002031
vt -0.150430 -0.000137
vt -0.147744 -0.000508
vt -0.169288 0.010651
vt -0.171659 0.010897
vt -0.171703 0.012791
vt -0.169006 0.012511
vt -0.147075 0.011412
vt -0.149458 0.011486
vt -0.149639 0.013372
vt -0.146929 0.013287
vt -0.086679 0.009574
vt -0.089059 0.009428
vt -0.089412 0.011289
vt -0.086706 0.011455
vt -0.010250 0.070921
vt -0.011981 0.070490
vt -0.012790 0.072210
vt -0.010458 0.072791
vt 0.070080 0.074791
vt 0.068384 0.074238
vt 0.067455 0.075897
vt 0.069740 0.076641
vt 0.135589 0.060089
vt 0.133910 0.059488
vt 0.132933 0.061119
vt 0.135195 0.061929
vt 0.168257 0.019477
vt 0.166563 0.018920
vt 0.165630 0.020576
vt 0.167912 0.021326
vt 0.152207 -0.038993
vt 0.150472 -0.039407
vt 0.149680 -0.037679
vt 0.152018 -0.037122
vt 0.084888 -0.087082
vt 0.083116 -0.087285
vt 0.082536 -0.085474
vt 0.084923 -0.085201
vt -0.010440 -0.096825
vt -0.012224 -0.096828
vt -0.012596 -0.094964
vt -0.010193 -0.094960
vt -0.097926 -0.068646
vt -0.099706 -0.068529
vt -0.099952 -0.066644
vt -0.097555 -0.066802
vt -0.153604 -0.025058
vt -0.155383 -0.024926
vt -0.155613 -0.023040
vt -0.153217 -0.023217
vt -0.169007 0.013680
vt -0.170790 0.013734
vt -0.171102 0.015609
vt -0.168700 0.015535
vt -0.144655 0.040501
vt -0.146436 0.040412
vt -0.146898 0.042255
vt -0.144499 0.042376
vt -0.087440 0.058371
vt -0.089204 0.058107
vt -0.089845 0.059896
vt -0.087469 0.060252
vt -0.018641 0.117966
vt -0.019546 0.117647
vt -0.020599 0.119229
vt -0.018898 0.119830
vt 0.056517 0.119187
vt 0.055646 0.118782
vt 0.054447 0.120257
vt 0.056084 0.121018
vt 0.123672 0.094554
vt 0.122822 0.094106
vt 0.121550 0.095518
vt 0.123146 0.096360
vt 0.165293 0.036042
vt 0.164435 0.035611
vt 0.163191 0.037048
vt 0.164803 0.037859
vt 0.156912 -0.049973
vt 0.156012 -0.050306
vt 0.154935 -0.048740
vt 0.156627 -0.048113
vt 0.082934 -0.123724
vt 0.081988 -0.123889
vt 0.081211 -0.122154
vt 0.082989 -0.121843
vt -0.024866 -0.137266
vt -0.025826 -0.137273
vt -0.026304 -0.135433
vt -0.024500 -0.135421
vt -0.113091 -0.095640
vt -0.114049 -0.095567
vt -0.114374 -0.093694
vt -0.112574 -0.093831
vt -0.160388 -0.034235
vt -0.161346 -0.034166
vt -0.161679 -0.032295
vt -0.159880 -0.032424
vt -0.167807 0.023111
vt -0.168767 0.023116
vt -0.169225 0.024960
vt -0.167421 0.024953
vt -0.141322 0.067906
vt -0.142278 0.067810
vt -0.142926 0.069597
vt -0.141130 0.069777
vt -0.088420 0.099515
vt -0.089356 0.099304
vt -0.090216 0.100999
vt -0.088455 0.101395
vt -0.034502 0.148632
vt -0.035768 0.150041
vt -0.034898 0.150471
vt 0.027401 0.153546
vt 0.025918 0.154723
vt 0.026703 0.155292
vt 0.089989 0.136425
vt 0.088365 0.137401
vt 0.089070 0.138067
vt 0.145572 0.085895
vt 0.143904 0.086794
vt 0.144578 0.087492
vt 0.168518 -0.019184
vt 0.167008 -0.018039
vt 0.167780 -0.017453
vt 0.073834 -0.149593
vt 0.073040 -0.147873
vt 0.073998 -0.147719
vt -0.074552 -0.147224
vt -0.074621 -0.145331
vt -0.073678 -0.145558
vt -0.146493 -0.079474
vt -0.146424 -0.077581
vt -0.145500 -0.077876
vt -0.169138 -0.011206
vt -0.169219 -0.009313
vt -0.168275 -0.009534
vt -0.162509 0.047064
vt -0.162863 0.048925
vt -0.161897 0.048842
vt -0.134532 0.093486
vt -0.135203 0.095257
vt -0.134237 0.095343
vt -0.090225 0.127652
vt -0.091212 0.129268
vt -0.090279 0.129532
vn 0.0103 -0.1597 -0.9871
vn -0.1715 0.4003 -0.9002
vn -0.2735 0.7465 -0.6065
vn -0.3146 0.9179 -0.2417
vn -0.3012 0.9340 0.1923
vn -0.2041 0.7043 0.6799
vn -0.0103 0.1596 0.9871
vn 0.1715 -0.4002 0.9002
vn 0.2735 -0.7465 0.6065
vn 0.3146 -0.9179 0.2417
vn 0.3012 -0.9340 -0.1923
vn 0.2041 -0.7043 -0.6800
vn 0.9936 -0.1002 -0.0524
vn -0.9936 0.1002 0.0525
vn -0.0872 -0.4098 -0.9080
vn -0.1007 -0.4091 -0.9069
vn -0.0873 -0.4098 -0.9080
vn -0.0886 0.1361 -0.9867
vn -0.0971 0.1364 -0.9859
vn -0.0887 0.1361 -0.9867
vn -0.0694 0.5594 -0.8260
vn -0.0719 0.5594 -0.8258
vn -0.0695 0.5594 -0.8260
vn -0.0386 0.8517 -0.5226
vn -0.0349 0.8517 -0.5229
vn -0.0387 0.8517 -0.5226
vn 0.0036 0.9970 -0.0774
vn 0.0133 0.9969 -0.0779
vn 0.0134 0.9969 -0.0779
vn 0.0035 0.9970 -0.0774
vn 0.0534 0.8741 0.4829
vn 0.0675 0.8735 0.4822
vn 0.0676 0.8735 0.4822
vn 0.0873 0.4098 0.9080
vn 0.1007 0.4091 0.9069
vn 0.0887 -0.1361 0.9867
vn 0.0971 -0.1364 0.9859
vn 0.0886 -0.1361 0.9867
vn 0.0695 -0.5594 0.8260
vn 0.0719 -0.5594 0.8258
vn 0.0387 -0.8517 0.5226
vn 0.0349 -0.8517 0.5229
vn 0.0386 -0.8517 0.5226
vn -0.0035 -0.9970 0.0774
vn -0.0134 -0.9969 0.0779
vn -0.0036 -0.9970 0.0774
vn -0.0534 -0.8741 -0.4829
vn -0.0675 -0.8735 -0.4822
vn 0.9961 -0.0774 -0.0415
vn -0.9961 0.0774 0.0415
vn 0.9766 -0.2152 0.0029
vn 0.9778 -0.2092 -0.0133
vn 0.9823 -0.1866 -0.0140
vn 0.9815 -0.1911 -0.0146
vn 0.9818 -0.1900 -0.0070
vn 0.9806 -0.1950 -0.0200
vn 0.9833 -0.1780 -0.0378
vn 0.9870 -0.1581 -0.0301
vn 0.9862 -0.1651 -0.0085
vn 0.9821 -0.1883 -0.0049
vn 0.9810 -0.1933 -0.0148
vn 0.9822 -0.1879 -0.0065
vn 0.9797 -0.2001 0.0082
vn 0.8480 -0.4921 0.1969
vn 0.8467 -0.4923 0.2017
vn 0.8494 -0.4919 0.1911
vn 0.8492 -0.4920 0.1918
vn 0.8447 -0.5337 0.0418
vn 0.8469 -0.5305 0.0368
vn 0.8510 -0.5245 0.0264
vn 0.8488 -0.5278 0.0322
vn 0.8650 -0.4769 -0.1561
vn 0.8702 -0.4651 -0.1623
vn 0.8690 -0.4679 -0.1607
vn 0.8667 -0.4731 -0.1580
vn 0.8941 -0.3077 -0.3255
vn 0.8981 -0.2965 -0.3249
vn 0.8896 -0.3193 -0.3266
vn 0.8900 -0.3181 -0.3265
vn 0.9155 -0.0868 -0.3928
vn 0.9151 -0.0881 -0.3936
vn 0.9064 -0.1078 -0.4085
vn 0.9094 -0.1015 -0.4033
vn 0.9302 0.0984 -0.3537
vn 0.9251 0.0919 -0.3683
vn 0.9237 0.0903 -0.3724
vn 0.9268 0.0938 -0.3637
vn 0.9469 0.2120 -0.2419
vn 0.9428 0.2143 -0.2554
vn 0.9483 0.2114 -0.2368
vn 0.9486 0.2113 -0.2355
vn 0.9686 0.2396 -0.0660
vn 0.9692 0.2379 -0.0641
vn 0.9741 0.2221 -0.0435
vn 0.9725 0.2274 -0.0510
vn 0.9791 0.1493 0.1380
vn 0.9803 0.1362 0.1428
vn 0.9811 0.1252 0.1475
vn 0.9804 0.1350 0.1433
vn 0.9577 -0.0351 0.2857
vn 0.9577 -0.0483 0.2838
vn 0.9577 -0.0385 0.2851
vn 0.9577 -0.0348 0.2857
vn 0.9141 -0.2338 0.3312
vn 0.9142 -0.2366 0.3291
vn 0.9138 -0.2235 0.3391
vn 0.9139 -0.2260 0.3371
vn 0.8732 -0.3895 0.2929
vn 0.8725 -0.3866 0.2988
vn 0.8720 -0.3848 0.3026
vn 0.8725 -0.3868 0.2984
vn 0.6467 -0.6784 0.3486
vn 0.6475 -0.6783 0.3473
vn 0.6498 -0.6781 0.3435
vn 0.6484 -0.6782 0.3459
vn 0.6348 -0.7698 0.0667
vn 0.6398 -0.7661 0.0610
vn 0.6423 -0.7643 0.0581
vn 0.6383 -0.7672 0.0628
vn 0.6579 -0.6937 -0.2933
vn 0.6634 -0.6871 -0.2962
vn 0.6588 -0.6925 -0.2938
vn 0.6574 -0.6942 -0.2931
vn 0.6917 -0.4026 -0.5996
vn 0.6924 -0.4016 -0.5994
vn 0.6793 -0.4180 -0.6031
vn 0.6845 -0.4118 -0.6015
vn 0.7113 -0.0169 -0.7027
vn 0.7064 -0.0220 -0.7074
vn 0.6938 -0.0335 -0.7194
vn 0.7023 -0.0260 -0.7114
vn 0.7258 0.3047 -0.6167
vn 0.7191 0.3020 -0.6259
vn 0.7160 0.3010 -0.6299
vn 0.7214 0.3029 -0.6227
vn 0.7540 0.5165 -0.4058
vn 0.7526 0.5170 -0.4077
vn 0.7599 0.5145 -0.3974
vn 0.7577 0.5152 -0.4006
vn 0.8031 0.5896 -0.0861
vn 0.8093 0.5821 -0.0788
vn 0.8192 0.5698 -0.0654
vn 0.8116 0.5793 -0.0759
vn 0.8433 0.4549 0.2863
vn 0.8503 0.4392 0.2901
vn 0.8551 0.4273 0.2937
vn 0.8492 0.4417 0.2894
vn 0.8243 0.1329 0.5503
vn 0.8278 0.1228 0.5474
vn 0.8274 0.1241 0.5478
vn 0.8255 0.1296 0.5493
vn 0.7585 -0.2156 0.6149
vn 0.7591 -0.2167 0.6139
vn 0.7564 -0.2114 0.6190
vn 0.7573 -0.2129 0.6174
vn 0.6916 -0.4889 0.5316
vn 0.6906 -0.4881 0.5337
vn 0.6894 -0.4871 0.5361
vn 0.6906 -0.4880 0.5338
vn 0.4073 -0.7909 0.4567
vn 0.4079 -0.7910 0.4561
vn 0.4080 -0.7910 0.4560
vn 0.4076 -0.7909 0.4564
vn 0.3788 -0.9218 0.0828
vn 0.3801 -0.9213 0.0817
vn 0.3784 -0.9219 0.0831
vn 0.3799 -0.8341 -0.3999
vn 0.3783 -0.8352 -0.3992
vn 0.3708 -0.8400 -0.3961
vn 0.3756 -0.8370 -0.3980
vn 0.4006 -0.4490 -0.7987
vn 0.3936 -0.4544 -0.7991
vn 0.3809 -0.4633 -0.8002
vn 0.3919 -0.4557 -0.7992
vn 0.4234 0.0442 -0.9048
vn 0.4146 0.0389 -0.9092
vn 0.4038 0.0330 -0.9142
vn 0.4151 0.0391 -0.9089
vn 0.4496 0.4411 -0.7767
vn 0.4447 0.4398 -0.7803
vn 0.4415 0.4389 -0.7826
vn 0.4463 0.4402 -0.7791
vn 0.4891 0.7109 -0.5054
vn 0.4926 0.7105 -0.5025
vn 0.4977 0.7099 -0.4983
vn 0.4929 0.7104 -0.5023
vn 0.5474 0.8307 -0.1012
vn 0.5588 0.8241 -0.0928
vn 0.5681 0.8186 -0.0853
vn 0.5563 0.8256 -0.0948
vn 0.6001 0.6970 0.3926
vn 0.6123 0.6835 0.3973
vn 0.6198 0.6747 0.4008
vn 0.6084 0.6879 0.3957
vn 0.5918 0.2845 0.7542
vn 0.5987 0.2752 0.7522
vn 0.6016 0.2711 0.7514
vn 0.5958 0.2793 0.7530
vn 0.5290 -0.1790 0.8295
vn 0.5310 -0.1811 0.8278
vn 0.5310 -0.1812 0.8278
vn 0.5297 -0.1798 0.8289
vn 0.4602 -0.5391 0.7054
vn 0.4601 -0.5391 0.7054
vn 0.4599 -0.5390 0.7057
vn 0.4600 -0.5391 0.7055
vn 0.1374 -0.8432 0.5198
vn 0.1344 -0.8422 0.5221
vn 0.1325 -0.8417 0.5235
vn 0.1355 -0.8426 0.5212
vn 0.0879 -0.9925 0.0855
vn 0.0796 -0.9926 0.0916
vn 0.0743 -0.9927 0.0952
vn 0.0828 -0.9926 0.0893
vn 0.0535 -0.8836 -0.4653
vn 0.0408 -0.8877 -0.4586
vn 0.0328 -0.8901 -0.4547
vn 0.0457 -0.8862 -0.4611
vn 0.0604 -0.4407 -0.8956
vn 0.0477 -0.4470 -0.8933
vn 0.0397 -0.4506 -0.8918
vn 0.0526 -0.4447 -0.8941
vn 0.1036 0.0955 -0.9900
vn 0.0953 0.0916 -0.9912
vn 0.0901 0.0893 -0.9919
vn 0.0985 0.0931 -0.9908
vn 0.1558 0.5188 -0.8406
vn 0.1534 0.5180 -0.8415
vn 0.1519 0.5175 -0.8421
vn 0.1543 0.5183 -0.8412
vn 0.2077 0.8128 -0.5442
vn 0.2111 0.8132 -0.5423
vn 0.2132 0.8134 -0.5412
vn 0.2098 0.8130 -0.5431
vn 0.2573 0.9605 -0.1063
vn 0.2659 0.9587 -0.1009
vn 0.2712 0.9576 -0.0974
vn 0.2626 0.9594 -0.1030
vn 0.2913 0.8469 0.4450
vn 0.3031 0.8397 0.4507
vn 0.3101 0.8351 0.4544
vn 0.2986 0.8425 0.4484
vn 0.2838 0.4018 0.8706
vn 0.2946 0.3923 0.8714
vn 0.3010 0.3862 0.8719
vn 0.2905 0.3960 0.8711
vn 0.2407 -0.1313 0.9617
vn 0.2475 -0.1370 0.9592
vn 0.2516 -0.1405 0.9576
vn 0.2449 -0.1348 0.9601
vn 0.1889 -0.5508 0.8130
vn 0.1909 -0.5520 0.8117
vn 0.1922 -0.5528 0.8109
vn 0.1902 -0.5515 0.8122
vn -0.1640 -0.8294 0.5340
vn -0.1697 -0.8259 0.5377
vn -0.1730 -0.8239 0.5396
vn -0.1674 -0.8273 0.5362
vn -0.2307 -0.9701 0.0747
vn -0.2471 -0.9650 0.0880
vn -0.2537 -0.9628 0.0928
vn -0.2390 -0.9676 0.0816
vn -0.2906 -0.8294 -0.4772
vn -0.3099 -0.8307 -0.4625
vn -0.3163 -0.8308 -0.4579
vn -0.2997 -0.8302 -0.4701
vn -0.2827 -0.3783 -0.8815
vn -0.2947 -0.3828 -0.8756
vn -0.2976 -0.3838 -0.8742
vn -0.2879 -0.3804 -0.8789
vn -0.2125 0.1401 -0.9671
vn -0.2155 0.1386 -0.9666
vn -0.2135 0.1396 -0.9669
vn -0.1334 0.5534 -0.8222
vn -0.1332 0.5535 -0.8221
vn -0.1330 0.5536 -0.8221
vn -0.1332 0.5534 -0.8222
vn -0.0720 0.8454 -0.5292
vn -0.0729 0.8451 -0.5296
vn -0.0730 0.8451 -0.5296
vn -0.0724 0.8453 -0.5293
vn -0.0395 0.9945 -0.0968
vn -0.0400 0.9945 -0.0972
vn -0.0388 0.9946 -0.0964
vn -0.0391 0.9946 -0.0966
vn -0.0407 0.8951 0.4440
vn -0.0356 0.8936 0.4475
vn -0.0308 0.8920 0.4510
vn -0.0367 0.8939 0.4467
vn -0.0634 0.4705 0.8801
vn -0.0510 0.4619 0.8855
vn -0.0435 0.4561 0.8889
vn -0.0556 0.4653 0.8834
vn -0.0886 -0.0730 0.9934
vn -0.0754 -0.0841 0.9936
vn -0.0691 -0.0899 0.9936
vn -0.0812 -0.0791 0.9936
vn -0.1183 -0.5195 0.8463
vn -0.1123 -0.5243 0.8441
vn -0.1104 -0.5258 0.8434
vn -0.1155 -0.5217 0.8453
vn -0.4877 -0.7224 0.4901
vn -0.4916 -0.7179 0.4929
vn -0.4952 -0.7137 0.4953
vn -0.4910 -0.7186 0.4925
vn -0.5551 -0.8300 0.0548
vn -0.5703 -0.8182 0.0728
vn -0.5762 -0.8135 0.0789
vn -0.5632 -0.8238 0.0649
vn -0.6089 -0.6684 -0.4272
vn -0.6254 -0.6662 -0.4063
vn -0.6294 -0.6653 -0.4015
vn -0.6166 -0.6676 -0.4172
vn -0.5869 -0.2697 -0.7634
vn -0.5938 -0.2726 -0.7570
vn -0.5933 -0.2724 -0.7575
vn -0.5890 -0.2707 -0.7615
vn -0.5022 0.1774 -0.8463
vn -0.4993 0.1794 -0.8477
vn -0.4964 0.1814 -0.8489
vn -0.4997 0.1791 -0.8475
vn -0.4114 0.5485 -0.7280
vn -0.4079 0.5511 -0.7280
vn -0.4068 0.5519 -0.7279
vn -0.4096 0.5498 -0.7280
vn -0.3487 0.8147 -0.4633
vn -0.3522 0.8123 -0.4649
vn -0.3538 0.8112 -0.4656
vn -0.3508 0.8133 -0.4642
vn -0.3326 0.9403 -0.0719
vn -0.3406 0.9369 -0.0789
vn -0.3420 0.9363 -0.0801
vn -0.3361 0.9388 -0.0750
vn -0.3620 0.8439 0.3959
vn -0.3645 0.8442 0.3931
vn -0.3621 0.8440 0.3957
vn -0.3616 0.8439 0.3963
vn -0.4038 0.4826 0.7772
vn -0.3951 0.4762 0.7856
vn -0.3890 0.4711 0.7917
vn -0.3973 0.4779 0.7834
vn -0.4281 -0.0005 0.9037
vn -0.4136 -0.0169 0.9103
vn -0.4077 -0.0242 0.9128
vn -0.4196 -0.0098 0.9077
vn -0.4477 -0.4259 0.7862
vn -0.4383 -0.4377 0.7851
vn -0.4368 -0.4396 0.7848
vn -0.4436 -0.4310 0.7858
vn -0.7867 -0.4888 0.3771
vn -0.7869 -0.4881 0.3775
vn -0.7893 -0.4814 0.3812
vn -0.7883 -0.4841 0.3798
vn -0.8306 -0.5560 0.0316
vn -0.8370 -0.5449 0.0502
vn -0.8403 -0.5389 0.0587
vn -0.8353 -0.5479 0.0455
vn -0.8514 -0.4166 -0.3187
vn -0.8595 -0.4158 -0.2973
vn -0.8613 -0.4153 -0.2927
vn -0.8559 -0.4165 -0.3065
vn -0.8193 -0.1289 -0.5587
vn -0.8219 -0.1312 -0.5543
vn -0.8200 -0.1296 -0.5575
vn -0.8191 -0.1288 -0.5590
vn -0.7472 0.1993 -0.6340
vn -0.7421 0.2056 -0.6379
vn -0.7383 0.2105 -0.6407
vn -0.7425 0.2051 -0.6376
vn -0.6704 0.4917 -0.5557
vn -0.6646 0.4995 -0.5557
vn -0.6635 0.5010 -0.5557
vn -0.6672 0.4959 -0.5558
vn -0.6183 0.7058 -0.3457
vn -0.6202 0.7035 -0.3472
vn -0.6227 0.7003 -0.3491
vn -0.6208 0.7027 -0.3476
vn -0.6114 0.7906 -0.0348
vn -0.6188 0.7841 -0.0473
vn -0.6214 0.7818 -0.0512
vn -0.6161 0.7865 -0.0429
vn -0.6453 0.6995 0.3071
vn -0.6498 0.6999 0.2965
vn -0.6492 0.6999 0.2978
vn -0.6468 0.6997 0.3035
vn -0.6909 0.4368 0.5761
vn -0.6886 0.4333 0.5815
vn -0.6852 0.4280 0.5893
vn -0.6876 0.4319 0.5836
vn -0.7249 0.0855 0.6835
vn -0.7177 0.0678 0.6930
vn -0.7144 0.0584 0.6973
vn -0.7194 0.0722 0.6908
vn -0.7515 -0.2491 0.6109
vn -0.7452 -0.2681 0.6106
vn -0.7446 -0.2699 0.6105
vn -0.7483 -0.2583 0.6110
vn -0.9693 -0.1457 0.1979
vn -0.9690 -0.1412 0.2026
vn -0.9690 -0.1404 0.2033
vn -0.9834 -0.1812 0.0052
vn -0.9841 -0.1744 0.0341
vn -0.9839 -0.1768 0.0262
vn -0.9792 -0.1104 -0.1704
vn -0.9819 -0.1167 -0.1491
vn -0.9809 -0.1147 -0.1572
vn -0.9571 0.0252 -0.2887
vn -0.9561 0.0284 -0.2918
vn -0.9558 0.0293 -0.2926
vn -0.9224 0.1905 -0.3359
vn -0.9157 0.2117 -0.3415
vn -0.9174 0.2062 -0.3403
vn -0.8834 0.3591 -0.3012
vn -0.8781 0.3754 -0.2966
vn -0.8802 0.3690 -0.2986
vn -0.8536 0.4907 -0.1750
vn -0.8551 0.4862 -0.1799
vn -0.8552 0.4860 -0.1800
vn -0.8476 0.5305 0.0090
vn -0.8510 0.5249 -0.0160
vn -0.8499 0.5269 -0.0088
vn -0.8633 0.4702 0.1831
vn -0.8639 0.4751 0.1670
vn -0.8636 0.4732 0.1737
vn -0.8889 0.3402 0.3069
vn -0.8892 0.3325 0.3142
vn -0.8892 0.3329 0.3139
vn -0.9166 0.1715 0.3612
vn -0.9184 0.1439 0.3686
vn -0.9178 0.1514 0.3670
vn -0.9442 -0.0066 0.3294
vn -0.9457 -0.0279 0.3238
vn -0.9450 -0.0193 0.3264
usemtl mat15.001
s 1
f 17/33/17 18/34/17 19/35/17 20/36/17
f 18/37/18 21/38/18 22/39/18 19/40/18
f 21/41/19 23/42/19 24/43/19 22/44/19
f 23/45/20 25/46/20 26/47/20 24/48/20
f 25/49/21 27/50/21 28/51/21 26/52/21
f 27/53/22 29/54/22 30/55/22 28/56/22
f 29/57/23 31/58/23 32/59/23 30/60/23
f 31/61/24 33/62/24 34/63/24 32/64/24
f 33/65/25 35/66/25 36/67/25 34/68/25
f 35/69/26 37/70/26 38/71/26 36/72/26
f 37/73/27 39/74/27 40/75/27 38/76/27
f 39/77/28 17/78/28 20/79/28 40/80/28
f 20/81/29 19/82/29 22/83/29 24/84/29 26/85/29 28/86/29 30/87/29 32/88/29 34/89/29 36/90/29 38/91/29 40/92/29
f 39/93/30 37/94/30 35/95/30 33/96/30 31/97/30 29/98/30 27/99/30 25/100/30 23/101/30 21/102/30 18/103/30 17/104/30
f 41/105/31 42/106/32 43/107/32 44/108/33
f 42/109/34 45/110/35 46/111/35 43/112/36
f 45/113/37 47/114/38 48/115/38 46/116/39
f 47/117/40 49/118/41 50/119/41 48/120/42
f 49/121/43 51/122/44 52/123/45 50/124/46
f 51/125/47 53/126/48 54/127/49 52/128/47
f 53/129/50 55/130/51 56/131/51 54/132/50
f 55/133/52 57/134/53 58/135/53 56/136/54
f 57/137/55 59/138/56 60/139/56 58/140/55
f 59/141/57 61/142/58 62/143/58 60/144/59
f 61/145/60 63/146/61 64/147/61 62/148/62
f 63/149/63 41/150/64 44/151/64 64/152/63
f 44/153/65 43/154/65 46/155/65 48/156/65 50/157/65 52/158/65 54/159/65 56/160/65 58/161/65 60/162/65 62/163/65 64/164/65
f 63/165/66 61/166/66 59/167/66 57/168/66 55/169/66 53/170/66 51/171/66 49/172/66 47/173/66 45/174/66 42/175/66 41/176/66
f 65/177/67 66/178/68 67/179/69
f 66/178/68 68/180/70 67/179/69
f 68/180/70 69/181/71 67/179/69
f 69/181/71 70/182/72 67/179/69
f 70/182/72 71/183/73 67/179/69
f 71/183/73 72/184/74 67/179/69
f 72/184/74 73/185/75 67/179/69
f 73/185/75 74/186/76 67/179/69
f 74/186/76 75/187/77 67/179/69
f 75/187/77 76/188/78 67/179/69
f 76/188/78 77/189/79 67/179/69
f 77/189/79 65/177/67 67/179/69
f 78/190/80 79/191/81 66/192/82 65/193/83
f 79/194/84 80/195/85 68/196/86 66/197/87
f 80/198/88 81/199/89 69/200/90 68/201/91
f 81/202/92 82/203/93 70/204/94 69/205/95
f 82/206/96 83/207/97 71/208/98 70/209/99
f 83/210/100 84/211/101 72/212/102 71/213/103
f 84/214/104 85/215/105 73/216/106 72/217/107
f 85/218/108 86/219/109 74/220/110 73/221/111
f 86/222/112 87/223/113 75/224/114 74/225/115
f 87/226/116 88/227/117 76/228/118 75/229/119
f 88/230/120 89/231/121 77/232/122 76/233/123
f 89/234/124 78/235/125 65/236/126 77/237/127
f 90/238/128 91/239/129 79/240/130 78/241/131
f 91/242/132 92/243/133 80/244/134 79/245/135
f 92/246/136 93/247/137 81/248/138 80/249/139
f 93/250/140 94/251/141 82/252/142 81/253/143
f 94/254/144 95/255/145 83/256/146 82/257/147
f 95/258/148 96/259/149 84/260/150 83/261/151
f 96/262/152 97/263/153 85/264/154 84/265/155
f 97/266/156 98/267/157 86/268/158 85/269/159
f 98/270/160 99/271/161 87/272/162 86/273/163
f 99/274/164 100/275/165 88/276/166 87/277/167
f 100/278/168 101/279/169 89/280/170 88/281/171
f 101/282/172 90/283/173 78/284/174 89/285/175
f 102/286/176 103/287/177 91/288/178 90/289/179
f 103/290/180 104/291/181 92/292/182 91/293/182
f 104/294/183 105/295/184 93/296/185 92/297/186
f 105/298/187 106/299/188 94/300/189 93/301/190
f 106/302/191 107/303/192 95/304/193 94/305/194
f 107/306/195 108/307/196 96/308/197 95/309/198
f 108/310/199 109/311/200 97/312/201 96/313/202
f 109/314/203 110/315/204 98/316/205 97/317/206
f 110/318/207 111/319/208 99/320/209 98/321/210
f 111/322/211 112/323/212 100/324/213 99/325/214
f 112/326/215 113/327/216 101/328/217 100/329/218
f 113/330/219 102/331/220 90/332/221 101/333/222
f 114/334/223 115/335/224 103/336/225 102/337/226
f 115/338/227 116/339/228 104/340/229 103/341/230
f 116/342/231 117/343/232 105/344/233 104/345/234
f 117/346/235 118/347/236 106/348/237 105/349/238
f 118/350/239 119/351/240 107/352/241 106/353/242
f 119/354/243 120/355/244 108/356/245 107/357/246
f 120/358/247 121/359/248 109/360/249 108/361/250
f 121/362/251 122/363/252 110/364/253 109/365/254
f 122/366/255 123/367/256 111/368/257 110/369/258
f 123/370/259 124/371/260 112/372/261 111/373/262
f 124/374/263 125/375/264 113/376/265 112/377/266
f 125/378/267 114/379/268 102/380/269 113/381/270
f 126/382/271 127/383/272 115/384/273 114/385/274
f 127/386/275 128/387/276 116/388/277 115/389/278
f 128/390/279 129/391/280 117/392/281 116/393/282
f 129/394/283 130/395/284 118/396/285 117/397/286
f 130/398/287 131/399/288 119/400/288 118/401/289
f 131/402/290 132/403/291 120/404/292 119/405/293
f 132/406/294 133/407/295 121/408/296 120/409/297
f 133/410/298 134/411/299 122/412/300 121/413/301
f 134/414/302 135/415/303 123/416/304 122/417/305
f 135/418/306 136/419/307 124/420/308 123/421/309
f 136/422/310 137/423/311 125/424/312 124/425/313
f 137/426/314 126/427/315 114/428/316 125/429/317
f 138/430/318 139/431/319 127/432/320 126/433/321
f 139/434/322 140/435/323 128/436/324 127/437/325
f 140/438/326 141/439/327 129/440/328 128/441/329
f 141/442/330 142/443/331 130/444/332 129/445/333
f 142/446/334 143/447/335 131/448/336 130/449/337
f 143/450/338 144/451/339 132/452/340 131/453/341
f 144/454/342 145/455/343 133/456/344 132/457/345
f 145/458/346 146/459/347 134/460/348 133/461/349
f 146/462/350 147/463/351 135/464/352 134/465/353
f 147/466/354 148/467/355 136/468/356 135/469/357
f 148/470/358 149/471/359 137/472/360 136/473/361
f 149/474/362 138/475/363 126/476/364 137/477/365
f 150/478/366 151/479/367 139/480/368 138/481/369
f 151/482/370 152/483/371 140/484/372 139/485/373
f 152/486/374 153/487/375 141/488/376 140/489/377
f 153/490/378 154/491/379 142/492/380 141/493/381
f 154/494/382 155/495/383 143/496/384 142/497/385
f 155/498/386 156/499/387 144/500/388 143/501/389
f 156/502/390 157/503/391 145/504/392 144/505/393
f 157/506/394 158/507/395 146/508/396 145/509/397
f 158/510/398 159/511/399 147/512/400 146/513/401
f 159/514/402 160/515/403 148/516/404 147/517/405
f 160/518/406 161/519/407 149/520/408 148/521/409
f 161/522/410 150/523/411 138/524/412 149/525/413
f 162/526/414 151/527/415 150/528/416
f 162/529/417 152/530/418 151/531/419
f 162/532/420 153/533/421 152/534/422
f 162/535/423 154/536/424 153/537/425
f 162/538/426 155/539/427 154/540/428
f 162/541/429 156/542/430 155/543/431
f 162/544/432 157/545/433 156/546/434
f 162/547/435 158/548/436 157/549/437
f 162/550/438 159/551/439 158/552/440
f 162/553/441 160/554/442 159/555/443
f 162/556/444 161/557/445 160/558/446
f 162/559/447 150/560/448 161/561/449
