# Blender v2.91.2 OBJ File: ''
# www.blender.org
mtllib DoorFrame.mtl
o DoorFrame_Cube.002
v 0.192724 0.048139 0.678650
v 0.170968 -0.033366 0.789722
v 0.170968 -0.033366 0.678650
v 0.168965 0.048139 0.789722
v -0.222123 0.048139 0.789722
v -0.222123 -0.033366 0.789722
v -0.222123 0.048139 -0.669858
v -0.222123 0.048139 -0.789722
v -0.222123 -0.033366 -0.789722
v -0.222123 -0.033366 -0.669858
v 0.168965 0.048139 -0.789722
v 0.170968 -0.033366 -0.789722
v 0.168965 2.276667 -0.789722
v 0.162147 2.397674 -0.789722
v 0.192724 2.276667 -0.669858
v 0.170968 -0.033366 -0.669858
v -0.222123 -0.033366 0.678650
v -0.222123 2.276659 0.678650
v -0.222123 2.276667 -0.669858
v 0.192724 2.276659 0.678650
v 0.192724 0.048139 -0.669858
v -0.222123 0.048139 0.678650
v 0.162147 2.397674 -0.669858
v -0.222123 2.397674 -0.789722
v -0.222123 2.397674 -0.669858
v 0.162147 2.397674 0.789722
v 0.162147 2.397674 0.678650
v -0.222123 2.397674 0.678650
v -0.222123 2.397674 0.789722
v -0.222123 2.276659 0.789722
v -0.222123 2.276667 -0.789722
v 0.168965 2.276659 0.789722
vt 0.924653 0.115608
vt 0.955549 0.144480
vt 0.924653 0.144480
vt 0.406353 0.648933
vt 0.515695 0.648596
vt 0.515781 0.676885
vt 0.406001 0.677268
vt 0.578526 0.319338
vt 0.578526 0.352680
vt 0.550294 0.352680
vt 0.550294 0.319338
vt 0.258823 0.028935
vt 0.149751 0.028561
vt 0.149416 0.000213
vt 0.258941 0.000709
vt 0.150421 0.642401
vt 0.151567 0.676048
vt 0.116478 0.642889
vt 0.549549 0.253824
vt 0.516207 0.253824
vt 0.516207 0.144480
vt 0.549549 0.144480
vt 0.955549 0.253823
vt 0.924653 0.253823
vt 0.667811 0.934698
vt 0.292707 0.934695
vt 0.292708 0.819301
vt 0.667812 0.819303
vt 0.549549 0.115607
vt 0.549549 0.000213
vt 0.924653 0.000213
vt 0.581191 0.381336
vt 0.550294 0.381336
vt 0.550294 0.353105
vt 0.581191 0.353105
vt 0.891311 0.658010
vt 0.516207 0.658010
vt 0.516207 0.629779
vt 0.891311 0.629779
vt 0.115573 0.028739
vt 0.292708 0.784583
vt 0.259366 0.784583
vt 0.259366 0.677694
vt 0.292708 0.677694
vt 0.698709 0.784583
vt 0.667812 0.784583
vt 0.667812 0.677694
vt 0.698709 0.677694
vt 0.550294 0.288016
vt 0.583956 0.288016
vt 0.583956 0.318913
vt 0.550294 0.318913
vt 0.583954 0.287591
vt 0.550294 0.287591
vt 0.550294 0.254249
vt 0.583954 0.254249
vt 0.375779 0.034701
vt 0.408438 0.001519
vt 0.407290 0.035141
vt 0.258941 0.643610
vt 0.258547 0.677298
vt 0.515370 0.000213
vt 0.515781 0.033888
vt 0.374709 0.648754
vt 0.259366 0.968891
vt 0.873695 0.968891
vt 0.873695 0.999787
vt 0.259366 0.999787
vt 0.259366 0.648553
vt 0.260437 0.034500
vt 0.549869 0.254249
vt 0.549869 0.629353
vt 0.516209 0.629353
vt 0.516207 0.254249
vt 0.001118 0.643059
vt 0.000213 0.028910
vt 0.873699 0.968465
vt 0.259366 0.968465
vt 0.259366 0.935123
vt 0.873699 0.935123
vn 0.9662 -0.2579 -0.0000
vn 0.0000 -0.0000 1.0000
vn -1.0000 0.0000 0.0000
vn 0.0000 0.0000 -1.0000
vn 0.9794 0.0552 -0.1941
vn 0.0000 -1.0000 -0.0000
vn 0.0000 1.0000 0.0000
vn 0.9806 0.0241 -0.1944
vn 0.9764 0.0550 0.2089
vn 0.9779 -0.0000 0.2092
vn 0.9695 0.2450 0.0000
vn 0.9809 0.0000 -0.1944
vn 0.9776 0.0240 0.2091
usemtl None.001
s 1
f 1/1/1 2/2/1 3/3/1
f 4/4/2 5/5/2 6/6/2 2/7/2
f 7/8/3 8/9/3 9/10/3 10/11/3
f 8/12/4 11/13/4 12/14/4 9/15/4
f 13/16/5 14/17/5 15/18/5
f 10/19/6 9/20/6 12/21/6 16/22/6
f 6/23/6 17/24/6 3/3/6 2/2/6
f 17/24/6 10/19/6 16/22/6 3/3/6
f 18/25/6 19/26/6 15/27/6 20/28/6
f 1/1/7 21/29/7 7/30/7 22/31/7
f 5/32/3 22/33/3 17/34/3 6/35/3
f 22/36/3 7/37/3 10/38/3 17/39/3
f 11/13/8 21/40/8 12/14/8
f 21/29/1 1/1/1 3/3/1 16/22/1
f 23/41/7 14/42/7 24/43/7 25/44/7
f 26/45/7 27/46/7 28/47/7 29/48/7
f 30/49/3 29/50/3 28/51/3 18/52/3
f 19/53/3 25/54/3 24/55/3 31/56/3
f 20/57/9 26/58/9 32/59/9
f 31/60/4 24/61/4 14/17/4 13/16/4
f 32/59/2 26/58/2 29/62/2 30/63/2
f 4/4/2 32/59/2 30/63/2 5/5/2
f 1/64/10 20/57/10 32/59/10 4/4/10
f 5/65/3 30/66/3 18/67/3 22/68/3
f 22/69/4 18/70/4 20/57/4 1/64/4
f 26/45/11 20/28/11 27/46/11
f 20/28/11 15/27/11 23/41/11 27/46/11
f 27/46/7 23/41/7 25/44/7 28/47/7
f 28/71/3 25/72/3 19/73/3 18/74/3
f 8/12/4 31/60/4 13/16/4 11/13/4
f 21/40/2 15/18/2 19/75/2 7/76/2
f 7/77/3 19/78/3 31/79/3 8/80/3
f 11/13/12 13/16/12 15/18/12 21/40/12
f 14/42/11 23/41/11 15/27/11
f 21/29/1 16/22/1 12/21/1
f 2/7/13 1/64/13 4/4/13
