# Blender v2.91.2 OBJ File: ''
# www.blender.org
mtllib Standing_lamp_01.mtl
o Standing_lamp_01_Circle.003
v 0.163291 0.008086 -0.163233
v 0.000096 0.008086 -0.230830
v 0.000096 0.056144 -0.202622
v 0.143345 0.056144 -0.143286
v 0.163291 0.008086 0.163158
v 0.230889 0.008086 -0.000038
v 0.202680 0.056143 -0.000038
v 0.143345 0.056143 0.143211
v -0.163100 0.008086 0.163158
v 0.000096 0.008086 0.230755
v 0.000096 0.056143 0.202547
v -0.143153 0.056143 0.143211
v -0.163100 0.008086 -0.163233
v -0.230697 0.008086 -0.000038
v -0.202489 0.056143 -0.000038
v -0.143153 0.056144 -0.143286
v -0.034141 0.085757 -0.000038
v -0.024113 0.085757 -0.024247
v 0.024305 0.085757 -0.024247
v 0.034333 0.085757 -0.000038
v 0.024305 0.085757 0.024172
v 0.000096 0.085757 0.034200
v -0.024113 0.085757 0.024172
v 0.000096 0.085757 -0.034275
v 0.000096 1.908236 -0.034274
v 0.024305 1.908236 -0.024246
v 0.034333 1.908236 -0.000037
v 0.024305 1.908236 0.024172
v 0.000096 1.908236 0.034200
v -0.024113 1.908236 0.024172
v -0.034141 1.908236 -0.000037
v -0.024113 1.908236 -0.024246
v -0.034449 1.929702 0.034508
v -0.048758 1.929702 -0.000037
v -0.034449 1.929702 -0.034582
v 0.000096 1.929702 -0.048891
v 0.034641 1.929702 -0.034582
v 0.048950 1.929702 -0.000037
v 0.034641 1.929702 0.034508
v 0.000096 1.929702 0.048816
v 0.034641 2.021700 -0.034582
v 0.048950 2.021700 -0.000037
v 0.034641 2.021700 0.034508
v 0.000096 2.021700 0.048816
v -0.034449 2.021700 0.034508
v -0.048758 2.021700 -0.000037
v -0.034449 2.021700 -0.034582
v 0.000096 2.021700 -0.048891
v 0.000096 2.021700 -0.000037
v 0.000096 0.001878 -0.000038
v 0.344061 1.935217 -0.000037
v 0.243316 1.935217 -0.243257
v 0.163131 2.460667 -0.163072
v 0.230661 2.460667 -0.000037
v 0.000096 1.935217 0.343928
v 0.243316 1.935217 0.243183
v 0.163131 2.460667 0.162997
v 0.000096 2.460667 0.230529
v -0.343870 1.935217 -0.000037
v -0.243125 1.935217 0.243183
v -0.162939 2.460667 0.162997
v -0.230470 2.460667 -0.000037
v 0.000096 1.935217 -0.344003
v -0.243125 1.935217 -0.243257
v -0.162939 2.460667 -0.163072
v 0.000096 2.460667 -0.230603
v 0.334126 1.933073 -0.000037
v 0.220726 2.458523 -0.000037
v 0.156105 2.458523 -0.156046
v 0.236291 1.933073 -0.236232
v 0.000096 1.933073 0.333993
v 0.000096 2.458523 0.220593
v 0.156105 2.458523 0.155972
v 0.236291 1.933073 0.236158
v -0.333934 1.933073 -0.000037
v -0.220535 2.458523 -0.000037
v -0.155913 2.458523 0.155972
v -0.236099 1.933073 0.236158
v 0.000096 1.933073 -0.334067
v 0.000096 2.458523 -0.220668
v -0.155913 2.458523 -0.156046
v -0.236099 1.933073 -0.236232
v 0.000157 1.988021 0.037487
v 0.026709 1.988021 0.026489
v 0.026709 2.033265 0.026489
v 0.000157 2.033265 0.037487
v -0.037392 1.988021 -0.000062
v -0.026394 1.988021 0.026489
v -0.026394 2.033265 0.026489
v -0.037392 2.033265 -0.000062
v 0.000157 1.988021 -0.037611
v -0.026394 1.988021 -0.026613
v -0.026394 2.033265 -0.026613
v 0.000157 2.033265 -0.037611
v 0.026709 1.988021 -0.026613
v 0.026709 2.033265 -0.026613
v 0.037706 1.988021 -0.000062
v 0.037706 2.033265 -0.000062
v 0.000157 2.033265 -0.030995
v 0.022030 2.033265 -0.021935
v 0.031090 2.033265 -0.000062
v 0.022030 2.033265 0.021811
v 0.000157 2.033265 0.030871
v -0.021716 2.033265 0.021811
v -0.030776 2.033265 -0.000062
v -0.021716 2.033265 -0.021935
v 0.190409 2.444373 -0.067844
v 0.182614 2.444373 -0.086663
v 0.068144 2.015969 -0.038027
v 0.075076 2.015969 -0.021293
v -0.190218 2.444373 0.067769
v -0.182423 2.444373 0.086588
v -0.067953 2.015969 0.037952
v -0.074884 2.015969 0.021218
v 0.067903 2.444373 0.190277
v 0.086721 2.444373 0.182481
v 0.038085 2.015969 0.068011
v 0.021351 2.015969 0.074943
v -0.067711 2.444373 -0.190351
v -0.086530 2.444373 -0.182556
v -0.037894 2.015969 -0.068086
v -0.021160 2.015969 -0.075017
v 0.017699 2.011112 0.031848
v 0.010195 2.011112 0.034956
v -0.017507 2.011112 -0.031923
v -0.010003 2.011112 -0.035030
v 0.031981 2.011112 -0.017640
v 0.035089 2.011112 -0.010136
v -0.031790 2.011112 0.017566
v -0.034897 2.011112 0.010062
v 0.199419 2.441508 -0.071575
v 0.081436 2.008491 -0.023927
v 0.074504 2.008491 -0.040661
v 0.191624 2.441508 -0.090395
v -0.199227 2.441508 0.071501
v -0.081244 2.008491 0.023852
v -0.074313 2.008491 0.040586
v -0.191432 2.441508 0.090320
v 0.071634 2.441508 0.199286
v 0.023985 2.008491 0.081303
v 0.040719 2.008491 0.074371
v 0.090453 2.441508 0.191491
v -0.071442 2.441508 -0.199360
v -0.023794 2.008491 -0.081377
v -0.040528 2.008491 -0.074446
v -0.090262 2.441508 -0.191565
v 0.010808 2.001074 0.036435
v 0.018311 2.001074 0.033327
v -0.010616 2.001074 -0.036509
v -0.018119 2.001074 -0.033401
v 0.036568 2.001074 -0.010749
v 0.033460 2.001074 -0.018252
v -0.036376 2.001074 0.010675
v -0.033268 2.001074 0.018178
v -0.025178 2.065060 0.025273
v -0.035672 2.065060 -0.000062
v -0.025178 2.065060 -0.025397
v 0.000157 2.065060 -0.035891
v 0.025492 2.065060 -0.025397
v 0.035986 2.065060 -0.000062
v 0.025492 2.065060 0.025273
v 0.000157 2.065060 0.035767
v 0.050047 2.098076 -0.049952
v 0.070712 2.098076 -0.000062
v 0.050047 2.098076 0.049828
v 0.000157 2.098076 0.070493
v -0.049733 2.098076 0.049828
v -0.070398 2.098076 -0.000062
v -0.049733 2.098076 -0.049952
v 0.000157 2.098076 -0.070617
v 0.000157 2.131094 0.080109
v -0.056532 2.131094 0.056628
v -0.080014 2.131094 -0.000062
v -0.056532 2.131094 -0.056752
v 0.056847 2.131094 -0.056752
v 0.080329 2.131094 -0.000062
v 0.056847 2.131094 0.056628
v 0.000157 2.131094 -0.080234
v 0.000157 2.166834 -0.072171
v 0.051146 2.166834 -0.051051
v 0.072266 2.166834 -0.000062
v 0.051146 2.166834 0.050927
v 0.000157 2.166834 0.072047
v -0.050831 2.166834 0.050927
v -0.071952 2.166834 -0.000062
v -0.050831 2.166834 -0.051051
v 0.031279 2.193313 0.031060
v 0.000157 2.193313 0.043951
v -0.030965 2.193313 0.031060
v -0.043856 2.193313 -0.000062
v -0.030965 2.193313 -0.031184
v 0.000157 2.193313 -0.044075
v 0.031279 2.193313 -0.031184
v 0.044170 2.193313 -0.000062
v 0.000157 2.209909 -0.000062
vn 0.3364 0.4767 -0.8121
vn 0.8121 0.4767 0.3364
vn -0.3364 0.4767 0.8121
vn -0.8121 0.4767 -0.3364
vn 0.8121 0.4767 -0.3364
vn 0.3364 0.4767 0.8121
vn -0.8121 0.4767 0.3364
vn -0.3364 0.4767 -0.8121
vn -0.1728 0.9824 -0.0716
vn 0.1728 0.9824 -0.0716
vn 0.0716 0.9824 0.1728
vn -0.1728 0.9824 0.0716
vn -0.0716 0.9824 -0.1728
vn 0.0716 0.9824 -0.1728
vn 0.1728 0.9824 0.0716
vn -0.0716 0.9824 0.1728
vn 0.3827 0.0000 -0.9239
vn 0.9239 -0.0000 0.3827
vn -0.3827 -0.0000 0.9239
vn -0.9239 0.0000 -0.3827
vn 0.9239 0.0000 -0.3827
vn 0.3827 -0.0000 0.9239
vn -0.9239 -0.0000 0.3827
vn -0.3827 0.0000 -0.9239
vn -0.7820 -0.5325 0.3239
vn -0.3239 -0.5325 -0.7820
vn 0.3239 -0.5325 -0.7820
vn 0.7820 -0.5325 0.3239
vn -0.3239 -0.5325 0.7820
vn -0.7820 -0.5325 -0.3239
vn 0.7820 -0.5325 -0.3239
vn 0.3239 -0.5325 0.7820
vn 0.0000 1.0000 0.0000
vn 0.0111 -0.9996 -0.0269
vn 0.0269 -0.9996 0.0111
vn -0.0111 -0.9996 0.0269
vn -0.0269 -0.9996 -0.0111
vn 0.0269 -0.9996 -0.0111
vn 0.0111 -0.9996 0.0269
vn -0.0269 -0.9996 0.0111
vn -0.0111 -0.9996 -0.0269
vn 0.9060 0.1955 -0.3753
vn 0.3753 0.1955 0.9060
vn -0.9060 0.1955 0.3753
vn -0.3753 0.1955 -0.9060
vn 0.3753 0.1955 -0.9060
vn 0.9060 0.1955 0.3753
vn -0.3753 0.1955 0.9060
vn -0.9060 0.1955 -0.3753
vn -0.9060 -0.1955 0.3753
vn -0.3753 -0.1955 -0.9060
vn 0.9060 -0.1955 -0.3753
vn 0.3753 -0.1955 0.9060
vn -0.3753 -0.1955 0.9060
vn -0.9060 -0.1955 -0.3753
vn 0.3753 -0.1955 -0.9060
vn 0.9060 -0.1955 0.3753
vn -0.0870 -0.9738 -0.2101
vn -0.2101 -0.9738 -0.0870
vn -0.2101 -0.9738 0.0870
vn -0.0870 -0.9738 0.2101
vn 0.0870 -0.9738 0.2101
vn 0.2101 -0.9738 0.0870
vn 0.2101 -0.9738 -0.0870
vn 0.0870 -0.9738 -0.2101
vn 0.0871 0.9738 0.2102
vn 0.2102 0.9738 0.0871
vn 0.2102 0.9738 -0.0871
vn 0.0871 0.9738 -0.2102
vn -0.0871 0.9738 -0.2102
vn -0.2102 0.9738 -0.0871
vn -0.2102 0.9738 0.0871
vn -0.0871 0.9738 0.2102
vn -0.8872 0.2788 0.3675
vn 0.8873 0.2788 -0.3675
vn -0.3675 0.2788 -0.8872
vn 0.3675 0.2788 0.8872
vn -0.0448 0.9931 -0.1081
vn 0.0448 0.9931 0.1081
vn -0.1081 0.9931 0.0448
vn 0.1081 0.9931 -0.0448
vn 0.8864 -0.2819 -0.3672
vn -0.8864 -0.2819 0.3672
vn 0.3672 -0.2819 0.8864
vn -0.3672 -0.2819 -0.8864
vn 0.0603 -0.9875 0.1455
vn -0.0603 -0.9875 -0.1455
vn 0.1455 -0.9875 -0.0603
vn -0.1455 -0.9875 0.0603
vn -0.1079 0.9594 -0.2604
vn -0.2604 0.9594 0.1079
vn 0.1079 0.9594 0.2604
vn 0.2604 0.9594 -0.1079
vn 0.3814 -0.0022 0.9244
vn -0.3839 -0.0022 -0.9234
vn -0.3814 -0.0022 -0.9244
vn 0.3839 -0.0022 0.9234
vn -0.9244 -0.0022 0.3814
vn 0.9234 -0.0022 -0.3839
vn 0.9244 -0.0022 -0.3814
vn -0.9234 -0.0022 0.3839
vn 0.3779 -0.1575 0.9124
vn 0.9124 -0.1575 -0.3779
vn -0.3779 -0.1575 -0.9124
vn -0.9123 -0.1575 0.3779
vn -0.9580 -0.0513 0.2822
vn 0.8769 -0.0513 -0.4779
vn 0.9580 -0.0513 -0.2822
vn -0.8769 -0.0513 0.4779
vn 0.2821 -0.0513 0.9580
vn -0.4779 -0.0513 -0.8769
vn -0.2821 -0.0513 -0.9580
vn 0.4779 -0.0513 0.8769
vn -0.9147 -0.1408 0.3789
vn -0.3789 -0.1408 -0.9147
vn 0.3789 -0.1408 -0.9147
vn 0.9147 -0.1408 0.3789
vn -0.3789 -0.1408 0.9147
vn -0.9147 -0.1408 -0.3789
vn 0.9147 -0.1408 -0.3789
vn 0.3789 -0.1408 0.9147
vn 0.6626 -0.6969 -0.2744
vn 0.2745 -0.6969 0.6626
vn -0.6626 -0.6969 0.2745
vn -0.2744 -0.6969 -0.6626
vn 0.2744 -0.6969 -0.6626
vn 0.6626 -0.6969 0.2745
vn -0.2745 -0.6969 0.6626
vn -0.6626 -0.6969 -0.2744
vn -0.3695 -0.2598 0.8921
vn -0.8921 -0.2598 -0.3695
vn 0.8921 -0.2598 -0.3695
vn 0.3695 -0.2598 0.8921
vn -0.8921 -0.2598 0.3695
vn -0.3695 -0.2598 -0.8921
vn 0.3695 -0.2598 -0.8921
vn 0.8921 -0.2598 0.3695
vn 0.3746 0.2040 -0.9044
vn 0.9044 0.2040 0.3746
vn -0.3746 0.2040 0.9044
vn -0.9044 0.2040 -0.3746
vn 0.9044 0.2040 -0.3746
vn 0.3746 0.2040 0.9044
vn -0.9044 0.2040 0.3746
vn -0.3746 0.2040 -0.9044
vn 0.2733 0.7000 0.6597
vn -0.6597 0.7000 0.2733
vn -0.2733 0.7000 -0.6597
vn 0.2733 0.7000 -0.6597
vn 0.6597 0.7000 0.2733
vn -0.2733 0.7000 0.6597
vn -0.6597 0.7000 -0.2733
vn 0.6597 0.7000 -0.2733
vn 0.3491 0.9259 -0.1446
vn 0.1446 0.9259 0.3491
vn -0.3491 0.9258 0.1446
vn -0.1446 0.9259 -0.3491
vn 0.1446 0.9259 -0.3491
vn 0.3491 0.9259 0.1446
vn -0.1446 0.9259 0.3491
vn -0.3491 0.9259 -0.1446
usemtl StandingLamp_Trunk
s 1
f 1//1 2//1 3//1 4//1
f 5//2 6//2 7//2 8//2
f 9//3 10//3 11//3 12//3
f 13//4 14//4 15//4 16//4
f 6//5 1//5 4//5 7//5
f 10//6 5//6 8//6 11//6
f 14//7 9//7 12//7 15//7
f 2//8 13//8 16//8 3//8
f 16//9 15//9 17//9 18//9
f 7//10 4//10 19//10 20//10
f 11//11 8//11 21//11 22//11
f 15//12 12//12 23//12 17//12
f 3//13 16//13 18//13 24//13
f 4//14 3//14 24//14 19//14
f 8//15 7//15 20//15 21//15
f 12//16 11//16 22//16 23//16
f 19//17 24//17 25//17 26//17
f 21//18 20//18 27//18 28//18
f 23//19 22//19 29//19 30//19
f 18//20 17//20 31//20 32//20
f 20//21 19//21 26//21 27//21
f 22//22 21//22 28//22 29//22
f 17//23 23//23 30//23 31//23
f 24//24 18//24 32//24 25//24
f 31//25 30//25 33//25 34//25
f 25//26 32//26 35//26 36//26
f 26//27 25//27 36//27 37//27
f 28//28 27//28 38//28 39//28
f 30//29 29//29 40//29 33//29
f 32//30 31//30 34//30 35//30
f 27//31 26//31 37//31 38//31
f 29//32 28//32 39//32 40//32
f 38//21 37//21 41//21 42//21
f 40//22 39//22 43//22 44//22
f 34//23 33//23 45//23 46//23
f 36//24 35//24 47//24 48//24
f 37//17 36//17 48//17 41//17
f 39//18 38//18 42//18 43//18
f 33//19 40//19 44//19 45//19
f 35//20 34//20 46//20 47//20
f 45//33 44//33 49//33
f 47//33 46//33 49//33
f 42//33 41//33 49//33
f 44//33 43//33 49//33
f 46//33 45//33 49//33
f 48//33 47//33 49//33
f 41//33 48//33 49//33
f 43//33 42//33 49//33
f 2//34 1//34 50//34
f 6//35 5//35 50//35
f 10//36 9//36 50//36
f 14//37 13//37 50//37
f 1//38 6//38 50//38
f 5//39 10//39 50//39
f 9//40 14//40 50//40
f 13//41 2//41 50//41
usemtl StandingLamp_Top
f 51//42 52//42 53//42 54//42
f 55//43 56//43 57//43 58//43
f 59//44 60//44 61//44 62//44
f 63//45 64//45 65//45 66//45
f 52//46 63//46 66//46 53//46
f 56//47 51//47 54//47 57//47
f 60//48 55//48 58//48 61//48
f 64//49 59//49 62//49 65//49
f 67//50 68//50 69//50 70//50
f 71//51 72//51 73//51 74//51
f 75//52 76//52 77//52 78//52
f 79//53 80//53 81//53 82//53
f 70//54 69//54 80//54 79//54
f 74//55 73//55 68//55 67//55
f 78//56 77//56 72//56 71//56
f 82//57 81//57 76//57 75//57
f 64//58 63//58 79//58 82//58
f 59//59 64//59 82//59 75//59
f 60//60 59//60 75//60 78//60
f 55//61 60//61 78//61 71//61
f 56//62 55//62 71//62 74//62
f 51//63 56//63 74//63 67//63
f 52//64 51//64 67//64 70//64
f 63//65 52//65 70//65 79//65
f 66//66 65//66 81//66 80//66
f 65//67 62//67 76//67 81//67
f 62//68 61//68 77//68 76//68
f 61//69 58//69 72//69 77//69
f 58//70 57//70 73//70 72//70
f 57//71 54//71 68//71 73//71
f 54//72 53//72 69//72 68//72
f 53//73 66//73 80//73 69//73
f 83//22 84//22 85//22 86//22
f 87//23 88//23 89//23 90//23
f 91//24 92//24 93//24 94//24
f 95//17 91//17 94//17 96//17
f 84//18 97//18 98//18 85//18
f 88//19 83//19 86//19 89//19
f 92//20 87//20 90//20 93//20
f 97//21 95//21 96//21 98//21
f 96//33 94//33 99//33 100//33
f 85//33 98//33 101//33 102//33
f 89//33 86//33 103//33 104//33
f 93//33 90//33 105//33 106//33
f 98//33 96//33 100//33 101//33
f 86//33 85//33 102//33 103//33
f 90//33 89//33 104//33 105//33
f 94//33 93//33 106//33 99//33
f 107//74 108//74 109//74 110//74
f 111//75 112//75 113//75 114//75
f 115//76 116//76 117//76 118//76
f 119//77 120//77 121//77 122//77
f 118//78 117//78 123//78 124//78
f 122//79 121//79 125//79 126//79
f 110//80 109//80 127//80 128//80
f 114//81 113//81 129//81 130//81
f 131//82 132//82 133//82 134//82
f 135//83 136//83 137//83 138//83
f 139//84 140//84 141//84 142//84
f 143//85 144//85 145//85 146//85
f 140//86 147//86 148//86 141//86
f 144//87 149//87 150//87 145//87
f 132//88 151//88 152//88 133//88
f 136//89 153//89 154//89 137//89
f 120//90 119//90 143//90 146//90
f 112//91 111//91 135//91 138//91
f 116//92 115//92 139//92 142//92
f 108//93 107//93 131//93 134//93
f 107//94 110//94 132//94 131//94
f 109//95 108//95 134//95 133//95
f 111//96 114//96 136//96 135//96
f 113//97 112//97 138//97 137//97
f 115//98 118//98 140//98 139//98
f 117//99 116//99 142//99 141//99
f 119//100 122//100 144//100 143//100
f 121//101 120//101 146//101 145//101
f 126//102 125//102 150//102 149//102
f 130//103 129//103 154//103 153//103
f 124//104 123//104 148//104 147//104
f 128//105 127//105 152//105 151//105
f 118//106 124//106 147//106 140//106
f 123//107 117//107 141//107 148//107
f 122//108 126//108 149//108 144//108
f 125//109 121//109 145//109 150//109
f 110//110 128//110 151//110 132//110
f 127//111 109//111 133//111 152//111
f 114//112 130//112 153//112 136//112
f 129//113 113//113 137//113 154//113
f 105//114 104//114 155//114 156//114
f 99//115 106//115 157//115 158//115
f 100//116 99//116 158//116 159//116
f 102//117 101//117 160//117 161//117
f 104//118 103//118 162//118 155//118
f 106//119 105//119 156//119 157//119
f 101//120 100//120 159//120 160//120
f 103//121 102//121 161//121 162//121
f 160//122 159//122 163//122 164//122
f 162//123 161//123 165//123 166//123
f 156//124 155//124 167//124 168//124
f 158//125 157//125 169//125 170//125
f 159//126 158//126 170//126 163//126
f 161//127 160//127 164//127 165//127
f 155//128 162//128 166//128 167//128
f 157//129 156//129 168//129 169//129
f 167//130 166//130 171//130 172//130
f 169//131 168//131 173//131 174//131
f 164//132 163//132 175//132 176//132
f 166//133 165//133 177//133 171//133
f 168//134 167//134 172//134 173//134
f 170//135 169//135 174//135 178//135
f 163//136 170//136 178//136 175//136
f 165//137 164//137 176//137 177//137
f 175//138 178//138 179//138 180//138
f 177//139 176//139 181//139 182//139
f 172//140 171//140 183//140 184//140
f 174//141 173//141 185//141 186//141
f 176//142 175//142 180//142 181//142
f 171//143 177//143 182//143 183//143
f 173//144 172//144 184//144 185//144
f 178//145 174//145 186//145 179//145
f 183//146 182//146 187//146 188//146
f 185//147 184//147 189//147 190//147
f 179//148 186//148 191//148 192//148
f 180//149 179//149 192//149 193//149
f 182//150 181//150 194//150 187//150
f 184//151 183//151 188//151 189//151
f 186//152 185//152 190//152 191//152
f 181//153 180//153 193//153 194//153
f 194//154 193//154 195//154
f 188//155 187//155 195//155
f 190//156 189//156 195//156
f 192//157 191//157 195//157
f 193//158 192//158 195//158
f 187//159 194//159 195//159
f 189//160 188//160 195//160
f 191//161 190//161 195//161
