# Blender v2.91.2 OBJ File: ''
# www.blender.org
mtllib Stove.mtl
o Stove
v -0.576932 2.422425 0.084601
v -0.576932 2.448568 0.080461
v -0.576932 2.472152 0.068444
v -0.576932 2.490868 0.049728
v -0.576932 2.502885 0.026144
v -0.576932 2.507025 0.000000
v -0.576932 2.502885 -0.026143
v -0.576932 2.490868 -0.049727
v -0.576932 2.472152 -0.068443
v -0.576932 2.448568 -0.080460
v -0.576932 2.422425 -0.084600
v -0.576932 2.396281 -0.080460
v -0.576932 2.372697 -0.068443
v -0.576932 2.353981 -0.049727
v -0.576932 2.341964 -0.026143
v -0.576932 2.337824 0.000000
v -0.576932 2.341964 0.026143
v -0.576932 2.353981 0.049728
v -0.576932 2.372697 0.068444
v -0.576932 2.396281 0.080461
v 0.236147 0.281499 -0.244864
v 0.249128 0.313411 -0.231789
v 0.249128 0.276562 -0.231789
v 0.226645 0.294987 -0.254436
v 0.223166 0.313411 -0.257939
v 0.226645 0.331836 -0.254436
v 0.236147 0.345323 -0.244864
v 0.249128 0.350260 -0.231789
v 0.262109 0.345323 -0.218714
v 0.271612 0.331836 -0.209143
v 0.275090 0.313411 -0.205639
v 0.271612 0.294987 -0.209143
v 0.262109 0.281499 -0.218714
v 0.224643 0.281499 -0.233443
v 0.237624 0.276562 -0.220368
v 0.215141 0.294987 -0.243014
v 0.211662 0.313411 -0.246518
v 0.215141 0.331836 -0.243014
v 0.224643 0.345323 -0.233443
v 0.237624 0.350260 -0.220368
v 0.250605 0.345323 -0.207293
v 0.260108 0.331836 -0.197722
v 0.263586 0.313411 -0.194218
v 0.260108 0.294987 -0.197722
v 0.250605 0.281499 -0.207293
v -0.140399 2.401489 0.080438
v -0.230679 2.438668 0.080439
v -0.237226 2.412944 0.084601
v -0.153937 2.378639 0.084601
v -0.128218 2.422049 0.068339
v -0.224788 2.461816 0.068343
v -0.118599 2.438284 0.049563
v -0.220135 2.480098 0.049569
v -0.112460 2.448645 0.026015
v -0.217165 2.491768 0.026020
v -0.110361 2.452187 0.000000
v -0.216149 2.495759 0.000000
v -0.112482 2.448607 -0.026000
v -0.217175 2.491727 -0.026005
v -0.118629 2.438233 -0.049519
v -0.220149 2.480043 -0.049527
v -0.128239 2.422012 -0.068279
v -0.224798 2.461776 -0.068285
v -0.140406 2.401477 -0.080395
v -0.230682 2.438655 -0.080398
v -0.153937 2.378639 -0.084601
v -0.237226 2.412944 -0.084600
v -0.167475 2.355790 -0.080438
v -0.243772 2.387221 -0.080438
v -0.179656 2.335230 -0.068338
v -0.249664 2.364073 -0.068342
v -0.189275 2.318995 -0.049563
v -0.254317 2.345791 -0.049569
v -0.195414 2.308634 -0.026014
v -0.257287 2.334121 -0.026019
v -0.197513 2.305092 0.000000
v -0.258302 2.330130 0.000000
v -0.195392 2.308671 0.026001
v -0.257276 2.334161 0.026006
v -0.189245 2.319046 0.049520
v -0.254303 2.345846 0.049528
v -0.179635 2.335267 0.068280
v -0.249654 2.364113 0.068286
v -0.167468 2.355802 0.080396
v -0.243769 2.387233 0.080398
v -0.323482 2.448587 0.080458
v -0.324892 2.422425 0.084601
v -0.322210 2.472180 0.068429
v -0.321201 2.490891 0.049705
v -0.320554 2.502894 0.026126
v -0.320332 2.507025 0.000000
v -0.320555 2.502888 -0.026123
v -0.321202 2.490883 -0.049698
v -0.322210 2.472174 -0.068420
v -0.323482 2.448585 -0.080451
v -0.324892 2.422425 -0.084600
v -0.326303 2.396262 -0.080457
v -0.327575 2.372669 -0.068429
v -0.328584 2.353958 -0.049704
v -0.329231 2.341955 -0.026125
v -0.329453 2.337824 0.000000
v -0.329230 2.341961 0.026124
v -0.328583 2.353966 0.049699
v -0.327575 2.372674 0.068421
v -0.326303 2.396264 0.080452
v 0.026143 1.155846 0.080459
v 0.026135 2.075041 0.080460
v 0.000000 2.074356 0.084601
v 0.000000 1.155846 0.084600
v 0.049726 1.155846 0.068443
v 0.049711 2.075660 0.068442
v 0.068443 1.155846 0.049727
v 0.068418 2.076151 0.049724
v 0.080459 1.155846 0.026143
v 0.080427 2.076467 0.026140
v 0.084600 1.155846 0.000000
v 0.084564 2.076576 0.000000
v 0.080459 1.155846 -0.026143
v 0.080426 2.076467 -0.026139
v 0.068443 1.155846 -0.049726
v 0.068416 2.076151 -0.049722
v 0.049726 1.155846 -0.068442
v 0.049709 2.075660 -0.068439
v 0.026143 1.155846 -0.080459
v 0.026135 2.075041 -0.080458
v 0.000000 1.155846 -0.084599
v 0.000000 2.074356 -0.084600
v -0.026143 1.155846 -0.080459
v -0.026135 2.073671 -0.080459
v -0.049726 1.155846 -0.068442
v -0.049711 2.073054 -0.068441
v -0.068443 1.155846 -0.049726
v -0.068418 2.072565 -0.049723
v -0.080459 1.155846 -0.026143
v -0.080427 2.072252 -0.026139
v -0.084600 1.155846 0.000000
v -0.084564 2.072144 0.000000
v -0.080459 1.155846 0.026143
v -0.080426 2.072252 0.026140
v -0.068443 1.155846 0.049727
v -0.068416 2.072566 0.049722
v -0.049726 1.155846 0.068443
v -0.049709 2.073054 0.068439
v -0.026143 1.155846 0.080459
v -0.026135 2.073671 0.080459
v 0.021436 2.166989 0.080442
v -0.004606 2.162145 0.084601
v 0.044878 2.171351 0.068357
v 0.063404 2.174799 0.049592
v 0.075240 2.177001 0.026037
v 0.079292 2.177756 0.000000
v 0.075204 2.176995 -0.026024
v 0.063355 2.174790 -0.049555
v 0.044843 2.171345 -0.068307
v 0.021424 2.166987 -0.080406
v -0.004606 2.162145 -0.084600
v -0.030647 2.157301 -0.080442
v -0.054089 2.152941 -0.068357
v -0.072617 2.149497 -0.049591
v -0.084453 2.147296 -0.026037
v -0.088506 2.146543 0.000000
v -0.084418 2.147303 0.026026
v -0.072568 2.149506 0.049556
v -0.054055 2.152948 0.068308
v -0.030636 2.157303 0.080407
v -0.008778 2.259655 0.080438
v -0.032578 2.247865 0.084601
v 0.012638 2.270263 0.068339
v 0.029548 2.278640 0.049563
v 0.040339 2.283986 0.026014
v 0.044029 2.285814 0.000000
v 0.040300 2.283967 -0.025999
v 0.029495 2.278614 -0.049518
v 0.012599 2.270244 -0.068279
v -0.008790 2.259649 -0.080395
v -0.032578 2.247865 -0.084601
v -0.056379 2.236075 -0.080438
v -0.077794 2.225466 -0.068338
v -0.094705 2.217089 -0.049562
v -0.105496 2.211744 -0.026013
v -0.109186 2.209916 0.000000
v -0.105457 2.211763 0.026000
v -0.094652 2.217116 0.049519
v -0.077756 2.225485 0.068279
v -0.056367 2.236081 0.080396
v -0.064344 2.340105 0.080439
v -0.083809 2.322040 0.084601
v -0.046829 2.356359 0.068340
v -0.032998 2.369195 0.049564
v -0.024171 2.377387 0.026016
v -0.021152 2.380188 0.000000
v -0.024202 2.377357 -0.026001
v -0.033041 2.369155 -0.049521
v -0.046860 2.356330 -0.068281
v -0.064354 2.340095 -0.080396
v -0.083809 2.322040 -0.084601
v -0.103274 2.303976 -0.080438
v -0.120789 2.287721 -0.068339
v -0.134620 2.274885 -0.049564
v -0.143448 2.266693 -0.026015
v -0.146466 2.263892 0.000000
v -0.143416 2.266722 0.026002
v -0.134577 2.274925 0.049521
v -0.120758 2.287750 0.068281
v -0.103264 2.303985 0.080396
v 0.088430 -0.000000 0.272158
v 0.000000 -0.000000 0.286164
v 0.000000 0.000000 0.000000
v 0.101309 0.035979 0.311796
v 0.101309 0.126067 0.311796
v 0.000000 0.126067 0.327842
v 0.000000 0.035979 0.327842
v 0.109566 1.155846 0.337211
v 0.000000 1.155846 0.354565
v 0.168203 -0.000000 0.231512
v 0.192701 0.126067 0.265230
v 0.192701 0.412573 0.265230
v 0.101309 0.412573 0.311796
v 0.208408 1.155846 0.286849
v 0.231512 -0.000000 0.168203
v 0.265230 0.035979 0.192701
v 0.265230 0.126067 0.192701
v 0.192701 0.035979 0.265230
v 0.286849 1.155846 0.208408
v 0.272158 -0.000000 0.088430
v 0.311796 0.135236 0.101309
v 0.311796 0.403404 0.101309
v 0.265230 0.403404 0.192701
v 0.265230 0.135236 0.192701
v 0.337211 1.155846 0.109567
v 0.286164 0.000000 0.000000
v 0.327842 0.035979 0.000000
v 0.327842 0.126067 0.000000
v 0.311796 0.126067 0.101309
v 0.311796 0.035979 0.101309
v 0.354565 1.155846 0.000000
v 0.272158 0.000000 -0.088430
v 0.311796 0.135236 -0.101309
v 0.311796 0.403404 -0.101309
v 0.327842 0.403404 0.000000
v 0.327842 0.135236 0.000000
v 0.337211 1.155846 -0.109566
v 0.231512 0.000001 -0.168203
v 0.265230 0.412573 -0.192700
v 0.265230 0.469706 -0.192700
v 0.311796 0.469706 -0.101309
v 0.311796 0.412573 -0.101309
v 0.286849 1.155846 -0.208408
v 0.168203 0.000001 -0.231512
v 0.199184 0.135236 -0.258746
v 0.199184 0.403404 -0.258746
v 0.265230 0.403404 -0.192701
v 0.265230 0.135236 -0.192701
v 0.208408 1.155846 -0.286849
v 0.088430 0.000001 -0.272158
v 0.101309 0.989259 -0.311796
v 0.101309 1.131693 -0.311796
v 0.192701 1.131693 -0.265229
v 0.192701 0.989259 -0.265229
v 0.109566 1.155846 -0.337211
v 0.000000 0.000001 -0.286164
v 0.000000 0.126067 -0.327842
v 0.000000 0.412573 -0.327842
v 0.101309 0.412573 -0.311796
v 0.101309 0.126067 -0.311796
v 0.000000 1.155846 -0.354564
v -0.088430 0.000001 -0.272158
v -0.101309 0.989259 -0.311796
v -0.101309 1.131693 -0.311796
v 0.000000 1.131693 -0.327842
v 0.000000 0.989259 -0.327842
v -0.109566 1.155846 -0.337211
v -0.168203 0.000001 -0.231512
v -0.192701 0.126067 -0.265230
v -0.192701 0.412573 -0.265230
v -0.101309 0.412573 -0.311796
v -0.101309 0.126067 -0.311796
v -0.208408 1.155846 -0.286849
v -0.231512 0.000001 -0.168203
v -0.265230 0.989259 -0.192700
v -0.265230 1.131693 -0.192700
v -0.192701 1.131693 -0.265229
v -0.192701 0.989259 -0.265229
v -0.286849 1.155846 -0.208408
v -0.272158 0.000000 -0.088430
v -0.311796 0.035979 -0.101309
v -0.311796 0.126067 -0.101309
v -0.265230 0.126067 -0.192701
v -0.265230 0.035979 -0.192701
v -0.337211 1.155846 -0.109566
v -0.286164 0.000000 0.000000
v -0.327842 0.412573 0.000000
v -0.327842 0.469706 0.000000
v -0.311796 0.469706 -0.101309
v -0.311796 0.412573 -0.101309
v -0.354565 1.155846 0.000000
v -0.272158 -0.000000 0.088430
v -0.311796 0.035979 0.101309
v -0.311796 0.126067 0.101309
v -0.327842 0.126067 0.000000
v -0.327842 0.035979 0.000000
v -0.337211 1.155846 0.109567
v -0.231512 -0.000000 0.168203
v -0.265230 0.412573 0.192701
v -0.265230 0.469706 0.192701
v -0.311796 0.469706 0.101309
v -0.311796 0.412573 0.101309
v -0.286849 1.155846 0.208408
v -0.168203 -0.000000 0.231512
v -0.192701 0.035979 0.265230
v -0.192701 0.126067 0.265230
v -0.265230 0.126067 0.192701
v -0.265230 0.035979 0.192701
v -0.208408 1.155846 0.286849
v -0.088430 -0.000000 0.272158
v -0.101309 0.412573 0.311796
v -0.101309 0.469706 0.311796
v -0.192701 0.469706 0.265230
v -0.192701 0.412573 0.265230
v -0.109566 1.155846 0.337211
v 0.000000 0.412573 0.327842
v -0.101309 0.126067 0.311796
v 0.101309 1.131693 0.311796
v 0.109566 1.131693 0.337211
v 0.000000 1.131693 0.354565
v 0.000000 1.131693 0.327842
v 0.192701 1.131693 0.265230
v 0.208408 1.131693 0.286849
v 0.265230 1.131693 0.192701
v 0.286849 1.131693 0.208408
v 0.311796 1.131693 0.101309
v 0.337211 1.131693 0.109567
v 0.327842 1.131693 0.000000
v 0.354565 1.131693 0.000000
v 0.311796 1.131693 -0.101308
v 0.337211 1.131693 -0.109566
v 0.265230 1.131693 -0.192700
v 0.286849 1.131693 -0.208408
v 0.208408 1.131693 -0.286849
v 0.109566 1.131693 -0.337211
v 0.000000 1.131693 -0.354564
v -0.109566 1.131693 -0.337211
v -0.208408 1.131693 -0.286849
v -0.286849 1.131693 -0.208408
v -0.311796 1.131693 -0.101308
v -0.337211 1.131693 -0.109566
v -0.327842 1.131693 0.000000
v -0.354565 1.131693 0.000000
v -0.311796 1.131693 0.101309
v -0.337211 1.131693 0.109567
v -0.265230 1.131693 0.192701
v -0.286849 1.131693 0.208408
v -0.192701 1.131693 0.265230
v -0.208408 1.131693 0.286849
v -0.101309 1.131693 0.311796
v -0.109566 1.131693 0.337211
v 0.101309 0.989258 0.311796
v 0.000000 0.989258 0.327842
v 0.192701 0.469706 0.265230
v 0.101309 0.469706 0.311796
v 0.265230 0.989258 0.192701
v 0.192701 0.989258 0.265230
v 0.311796 0.989258 0.101309
v 0.327842 0.989258 0.000000
v 0.327842 0.469706 0.000000
v 0.327842 0.412573 0.000000
v 0.311796 0.126067 -0.101309
v 0.311796 0.035979 -0.101309
v 0.265230 0.035979 -0.192701
v 0.265230 0.126067 -0.192701
v 0.265230 0.989259 -0.192700
v 0.192701 0.126067 -0.265230
v 0.192701 0.035979 -0.265230
v 0.101309 0.035979 -0.311796
v 0.000000 0.469706 -0.327842
v 0.101309 0.469706 -0.311796
v 0.000000 0.035979 -0.327842
v -0.101309 0.035979 -0.311796
v -0.192701 0.469706 -0.265229
v -0.101309 0.469706 -0.311796
v -0.265230 0.412573 -0.192700
v -0.311796 0.989258 -0.101309
v -0.311796 0.989258 0.101309
v -0.327842 0.989258 0.000000
v -0.192701 0.989258 0.265230
v -0.265230 0.989258 0.192701
v -0.101309 0.035979 0.311796
v -0.101309 0.989258 0.311796
v 0.311796 0.989258 -0.101309
v 0.192701 0.469706 -0.265229
v -0.265230 0.469706 -0.192700
v 0.000000 0.469706 0.327842
v 0.199184 0.980089 0.258746
v 0.199184 0.478876 0.258746
v 0.265230 0.478876 0.192701
v 0.265230 0.980089 0.192701
v 0.265230 0.469706 0.192701
v 0.265230 0.412573 0.192701
v 0.311796 0.412573 0.101309
v 0.311796 0.469706 0.101309
v 0.293097 0.943521 0.095233
v 0.293097 0.633264 0.095233
v 0.308180 0.633264 0.000000
v 0.308180 0.943521 0.000000
v 0.265230 0.980089 -0.192700
v 0.265230 0.478876 -0.192700
v 0.199184 0.478876 -0.258746
v 0.199184 0.980089 -0.258746
v 0.274592 0.633264 -0.131551
v 0.274592 0.943521 -0.131551
v 0.293097 0.943521 -0.095233
v 0.293097 0.633264 -0.095233
v 0.192701 0.412573 -0.265230
v 0.274592 0.943521 0.131551
v 0.274592 0.633264 0.131551
v 0.199184 0.403404 0.258746
v 0.199184 0.135236 0.258746
v -0.192701 0.035979 -0.265230
v 0.311796 0.980089 0.101309
v 0.327842 0.980089 0.000000
v 0.327842 0.478876 0.000000
v 0.311796 0.478876 0.101309
v 0.311796 0.478876 -0.101309
v 0.311796 0.980089 -0.101309
v 0.311796 0.943521 0.101309
v 0.327842 0.943521 0.000000
v 0.327842 0.633264 0.000000
v 0.311796 0.633264 0.101309
v 0.291895 0.633264 -0.140367
v 0.311796 0.633264 -0.101309
v 0.291895 0.943521 -0.140367
v 0.311796 0.943521 -0.101309
v 0.291895 0.633264 0.140367
v 0.291895 0.943521 0.140368
v 0.000000 0.035979 0.286164
v 0.088430 0.035979 0.272158
v 0.168203 0.035979 0.231512
v 0.231512 0.035979 0.168203
v 0.272158 0.035979 0.088430
v 0.286164 0.035979 0.000000
v 0.272158 0.035979 -0.088430
v 0.231512 0.035979 -0.168203
v 0.168203 0.035979 -0.231512
v 0.088430 0.035979 -0.272158
v 0.000000 0.035979 -0.286164
v -0.088430 0.035979 -0.272158
v -0.168203 0.035979 -0.231512
v -0.231512 0.035979 -0.168203
v -0.272158 0.035979 -0.088430
v -0.286164 0.035979 0.000000
v -0.272158 0.035979 0.088430
v -0.231512 0.035979 0.168203
v -0.168203 0.035979 0.231512
v -0.088430 0.035979 0.272158
vt 0.246175 0.947702
vt 0.246879 0.952150
vt 0.248923 0.956162
vt 0.252108 0.959347
vt 0.256120 0.961391
vt 0.260568 0.962095
vt 0.265016 0.961391
vt 0.269028 0.959347
vt 0.272212 0.956162
vt 0.274257 0.952150
vt 0.274961 0.947702
vt 0.274257 0.943254
vt 0.272212 0.939242
vt 0.269028 0.936058
vt 0.265016 0.934013
vt 0.260568 0.933309
vt 0.256120 0.934013
vt 0.252108 0.936058
vt 0.248923 0.939242
vt 0.246879 0.943254
vt 0.370287 0.193469
vt 0.366465 0.202799
vt 0.366465 0.192025
vt 0.373086 0.197412
vt 0.374110 0.202799
vt 0.373086 0.208185
vt 0.370287 0.212129
vt 0.366465 0.213572
vt 0.362642 0.212129
vt 0.359843 0.208185
vt 0.358819 0.202799
vt 0.359843 0.197412
vt 0.362642 0.193469
vt 0.366948 0.193469
vt 0.363125 0.192025
vt 0.369746 0.197412
vt 0.370771 0.202799
vt 0.369746 0.208185
vt 0.366948 0.212129
vt 0.363125 0.213572
vt 0.359303 0.212129
vt 0.356504 0.208185
vt 0.355480 0.202799
vt 0.356504 0.197412
vt 0.359303 0.193469
vt 0.246883 0.944140
vt 0.246883 0.950466
vt 0.246175 0.946089
vt 0.246175 0.940253
vt 0.248941 0.947638
vt 0.248941 0.954404
vt 0.252136 0.950400
vt 0.252135 0.957514
vt 0.256142 0.952163
vt 0.256141 0.959500
vt 0.260568 0.952766
vt 0.260568 0.960179
vt 0.264991 0.952157
vt 0.264992 0.959493
vt 0.268993 0.950392
vt 0.268994 0.957505
vt 0.272184 0.947632
vt 0.272185 0.954397
vt 0.274246 0.944138
vt 0.274246 0.950463
vt 0.274961 0.940253
vt 0.274961 0.946089
vt 0.274253 0.936365
vt 0.274253 0.941713
vt 0.272194 0.932868
vt 0.272195 0.937775
vt 0.269000 0.930106
vt 0.269001 0.934664
vt 0.264994 0.928343
vt 0.264995 0.932679
vt 0.260568 0.927740
vt 0.260568 0.932000
vt 0.256144 0.928349
vt 0.256143 0.932686
vt 0.252143 0.930114
vt 0.252142 0.934674
vt 0.248951 0.932874
vt 0.248950 0.937781
vt 0.246890 0.936367
vt 0.246890 0.941715
vt 0.246880 0.952153
vt 0.246175 0.947702
vt 0.248926 0.956167
vt 0.252112 0.959350
vt 0.256123 0.961392
vt 0.260568 0.962095
vt 0.265012 0.961391
vt 0.269023 0.959349
vt 0.272208 0.956166
vt 0.274255 0.952153
vt 0.274961 0.947702
vt 0.274256 0.943251
vt 0.272210 0.939237
vt 0.269024 0.936054
vt 0.265013 0.934012
vt 0.260568 0.933309
vt 0.256123 0.934013
vt 0.252113 0.936055
vt 0.248927 0.939238
vt 0.246881 0.943251
vt 0.246879 0.732217
vt 0.246879 0.888601
vt 0.246175 0.888485
vt 0.246175 0.732217
vt 0.248924 0.732217
vt 0.248924 0.888706
vt 0.252108 0.732217
vt 0.252108 0.888790
vt 0.256120 0.732217
vt 0.256121 0.888844
vt 0.260568 0.732217
vt 0.260568 0.888862
vt 0.265016 0.732217
vt 0.265015 0.888844
vt 0.269028 0.732217
vt 0.269027 0.888790
vt 0.272212 0.732217
vt 0.272212 0.888706
vt 0.274256 0.732217
vt 0.274256 0.888601
vt 0.274961 0.732217
vt 0.274961 0.888485
vt 0.274256 0.732217
vt 0.274257 0.888368
vt 0.272212 0.732217
vt 0.272212 0.888263
vt 0.269028 0.732217
vt 0.269027 0.888180
vt 0.265016 0.732217
vt 0.265015 0.888127
vt 0.260568 0.732217
vt 0.260568 0.888108
vt 0.256120 0.732217
vt 0.256121 0.888127
vt 0.252108 0.732217
vt 0.252109 0.888180
vt 0.248924 0.732217
vt 0.248924 0.888263
vt 0.246879 0.732217
vt 0.246879 0.888368
vt 0.246882 0.904245
vt 0.246175 0.903420
vt 0.248938 0.904987
vt 0.252131 0.905573
vt 0.256138 0.905948
vt 0.260568 0.906076
vt 0.264995 0.905947
vt 0.268999 0.905572
vt 0.272189 0.904985
vt 0.274247 0.904244
vt 0.274961 0.903420
vt 0.274254 0.902596
vt 0.272198 0.901854
vt 0.269005 0.901268
vt 0.264998 0.900894
vt 0.260568 0.900766
vt 0.256140 0.900895
vt 0.252137 0.901270
vt 0.248946 0.901856
vt 0.246888 0.902597
vt 0.246883 0.920010
vt 0.246175 0.918004
vt 0.248941 0.921815
vt 0.252136 0.923240
vt 0.256142 0.924149
vt 0.260568 0.924460
vt 0.264991 0.924146
vt 0.268993 0.923235
vt 0.272184 0.921811
vt 0.274246 0.920009
vt 0.274961 0.918004
vt 0.274253 0.915998
vt 0.272194 0.914193
vt 0.269000 0.912768
vt 0.264994 0.911859
vt 0.260568 0.911548
vt 0.256144 0.911862
vt 0.252143 0.912773
vt 0.248951 0.914196
vt 0.246890 0.915999
vt 0.246883 0.933697
vt 0.246175 0.930624
vt 0.248941 0.936462
vt 0.252135 0.938646
vt 0.256142 0.940040
vt 0.260568 0.940516
vt 0.264991 0.940035
vt 0.268993 0.938639
vt 0.272185 0.936457
vt 0.274246 0.933695
vt 0.274961 0.930624
vt 0.274253 0.927550
vt 0.272195 0.924785
vt 0.269000 0.922601
vt 0.264994 0.921207
vt 0.260568 0.920731
vt 0.256144 0.921212
vt 0.252143 0.922608
vt 0.248951 0.924790
vt 0.246890 0.927552
vt 0.219127 0.111168
vt 0.215032 0.111168
vt 0.298697 0.111168
vt 0.207521 0.541692
vt 0.207521 0.557019
vt 0.204792 0.557019
vt 0.204792 0.541692
vt 0.200108 0.449098
vt 0.275174 0.449098
vt 0.273963 0.449098
vt 0.195034 0.449098
vt 0.231011 0.111168
vt 0.215444 0.557019
vt 0.215444 0.605763
vt 0.207521 0.605763
vt 0.214832 0.449098
vt 0.278687 0.449098
vt 0.249520 0.111168
vt 0.227783 0.541692
vt 0.227783 0.557019
vt 0.215444 0.541692
vt 0.237766 0.449098
vt 0.284159 0.449098
vt 0.272843 0.111168
vt 0.243332 0.558579
vt 0.243332 0.604203
vt 0.227783 0.604203
vt 0.227783 0.558579
vt 0.266664 0.449098
vt 0.291054 0.449098
vt 0.298697 0.111168
vt 0.260568 0.541692
vt 0.260568 0.557019
vt 0.243332 0.557019
vt 0.243332 0.541692
vt 0.298697 0.449098
vt 0.298697 0.449098
vt 0.324551 0.111168
vt 0.277804 0.558579
vt 0.277804 0.604203
vt 0.260568 0.604203
vt 0.260568 0.558579
vt 0.330731 0.449098
vt 0.306340 0.449098
vt 0.347874 0.111168
vt 0.293352 0.605763
vt 0.293352 0.615483
vt 0.277804 0.615483
vt 0.277804 0.605763
vt 0.359629 0.449098
vt 0.313235 0.449098
vt 0.366383 0.111168
vt 0.304589 0.558579
vt 0.304589 0.604203
vt 0.293352 0.604203
vt 0.293352 0.558579
vt 0.382562 0.449098
vt 0.318707 0.449098
vt 0.378267 0.111168
vt 0.313614 0.703875
vt 0.313614 0.728108
vt 0.305692 0.728108
vt 0.305692 0.703875
vt 0.397286 0.449098
vt 0.322221 0.449098
vt 0.382362 0.111168
vt 0.316344 0.557019
vt 0.316344 0.605763
vt 0.313614 0.605763
vt 0.313614 0.557019
vt 0.402360 0.449098
vt 0.323431 0.449098
vt 0.378267 0.111168
vt 0.313614 0.703875
vt 0.313614 0.728108
vt 0.316344 0.728108
vt 0.316344 0.703875
vt 0.397286 0.449098
vt 0.322221 0.449098
vt 0.366383 0.111168
vt 0.305692 0.557019
vt 0.305692 0.605763
vt 0.313614 0.605763
vt 0.313614 0.557019
vt 0.382562 0.449098
vt 0.318707 0.449098
vt 0.347874 0.111168
vt 0.293352 0.703875
vt 0.293352 0.728108
vt 0.305692 0.728108
vt 0.305692 0.703875
vt 0.359629 0.449098
vt 0.313235 0.449098
vt 0.324551 0.111168
vt 0.277804 0.541692
vt 0.277804 0.557019
vt 0.293352 0.557019
vt 0.293352 0.541692
vt 0.330731 0.449098
vt 0.306340 0.449098
vt 0.298697 0.111168
vt 0.260568 0.605763
vt 0.260568 0.615483
vt 0.277804 0.615483
vt 0.277804 0.605763
vt 0.298697 0.449098
vt 0.298697 0.449098
vt 0.272843 0.111168
vt 0.243332 0.541692
vt 0.243332 0.557019
vt 0.260568 0.557019
vt 0.260568 0.541692
vt 0.266664 0.449098
vt 0.291054 0.449098
vt 0.249520 0.111168
vt 0.227783 0.605763
vt 0.227783 0.615483
vt 0.243332 0.615483
vt 0.243332 0.605763
vt 0.237766 0.449098
vt 0.284159 0.449098
vt 0.231011 0.111168
vt 0.215444 0.541692
vt 0.215444 0.557019
vt 0.227783 0.557019
vt 0.227783 0.541692
vt 0.214832 0.449098
vt 0.278687 0.449098
vt 0.219127 0.111168
vt 0.207521 0.605763
vt 0.207521 0.615483
vt 0.215444 0.615483
vt 0.215444 0.605763
vt 0.200108 0.449098
vt 0.275174 0.449098
vt 0.204792 0.605763
vt 0.207521 0.557019
vt 0.207539 0.442037
vt 0.200108 0.442037
vt 0.195034 0.442037
vt 0.202847 0.442037
vt 0.221153 0.442037
vt 0.214832 0.442037
vt 0.242358 0.442037
vt 0.237766 0.442037
vt 0.269078 0.442037
vt 0.266664 0.442037
vt 0.298697 0.442037
vt 0.298697 0.442037
vt 0.328316 0.442037
vt 0.330731 0.442037
vt 0.355036 0.442037
vt 0.359629 0.442037
vt 0.376241 0.442037
vt 0.382562 0.442037
vt 0.389856 0.442037
vt 0.397286 0.442037
vt 0.394547 0.442037
vt 0.402360 0.442037
vt 0.389856 0.442037
vt 0.397286 0.442037
vt 0.376241 0.442037
vt 0.382562 0.442037
vt 0.355036 0.442037
vt 0.359629 0.442037
vt 0.328316 0.442037
vt 0.330731 0.442037
vt 0.298697 0.442037
vt 0.298697 0.442037
vt 0.269078 0.442037
vt 0.266664 0.442037
vt 0.242358 0.442037
vt 0.237766 0.442037
vt 0.221153 0.442037
vt 0.214832 0.442037
vt 0.207539 0.442037
vt 0.200108 0.442037
vt 0.207521 0.703875
vt 0.207521 0.728108
vt 0.204792 0.728108
vt 0.204792 0.703875
vt 0.215444 0.615483
vt 0.207521 0.615483
vt 0.227783 0.703875
vt 0.227783 0.728108
vt 0.215444 0.728108
vt 0.215444 0.703875
vt 0.243332 0.703875
vt 0.243332 0.728108
vt 0.260568 0.703875
vt 0.260568 0.728108
vt 0.260568 0.615483
vt 0.260568 0.605763
vt 0.277804 0.557019
vt 0.277804 0.541692
vt 0.293352 0.541692
vt 0.293352 0.557019
vt 0.293352 0.728108
vt 0.293352 0.703875
vt 0.305692 0.557019
vt 0.305692 0.541692
vt 0.313614 0.541692
vt 0.316344 0.615483
vt 0.313614 0.615483
vt 0.316344 0.541692
vt 0.313614 0.541692
vt 0.305692 0.615483
vt 0.313614 0.615483
vt 0.293352 0.605763
vt 0.277804 0.703875
vt 0.277804 0.728108
vt 0.243332 0.703875
vt 0.243332 0.728108
vt 0.260568 0.728108
vt 0.260568 0.703875
vt 0.215444 0.703875
vt 0.227783 0.703875
vt 0.207521 0.541692
vt 0.207521 0.728108
vt 0.207521 0.703875
vt 0.277804 0.728108
vt 0.277804 0.703875
vt 0.305692 0.615483
vt 0.293352 0.615483
vt 0.227783 0.728108
vt 0.215444 0.728108
vt 0.204792 0.615483
vt 0.216547 0.702315
vt 0.216547 0.617043
vt 0.227783 0.617043
vt 0.227783 0.702315
vt 0.227783 0.615483
vt 0.227783 0.605763
vt 0.243332 0.605763
vt 0.243332 0.615483
vt 0.693505 0.785442
vt 0.693505 0.688006
vt 0.723413 0.688006
vt 0.723413 0.785442
vt 0.293352 0.702315
vt 0.293352 0.617043
vt 0.304589 0.617043
vt 0.304589 0.702315
vt 0.764726 0.688006
vt 0.764726 0.785442
vt 0.753321 0.785442
vt 0.753321 0.688006
vt 0.305692 0.605763
vt 0.682099 0.785442
vt 0.682099 0.688006
vt 0.216547 0.604203
vt 0.216547 0.558579
vt 0.305692 0.541692
vt 0.269078 0.148026
vt 0.269078 0.150706
vt 0.242358 0.150706
vt 0.242358 0.148026
vt 0.242358 0.231790
vt 0.242358 0.229109
vt 0.269078 0.229109
vt 0.269078 0.231790
vt 0.328316 0.148026
vt 0.328316 0.150706
vt 0.298697 0.150706
vt 0.298697 0.148026
vt 0.298697 0.231790
vt 0.298697 0.229109
vt 0.328316 0.229109
vt 0.328316 0.231790
vt 0.376241 0.148026
vt 0.374346 0.150706
vt 0.355036 0.150706
vt 0.355036 0.148026
vt 0.376241 0.231790
vt 0.374346 0.229109
vt 0.355036 0.231790
vt 0.355036 0.229109
vt 0.223049 0.150706
vt 0.221153 0.148026
vt 0.221153 0.231790
vt 0.223049 0.229109
vt 0.221153 0.400393
vt 0.223049 0.397713
vt 0.242358 0.397713
vt 0.242358 0.400393
vt 0.221153 0.248494
vt 0.223049 0.251175
vt 0.242358 0.248494
vt 0.242358 0.251175
vt 0.269078 0.400393
vt 0.269078 0.397713
vt 0.298697 0.397713
vt 0.298697 0.400393
vt 0.298697 0.248494
vt 0.298697 0.251175
vt 0.269078 0.251175
vt 0.269078 0.248494
vt 0.355036 0.400393
vt 0.355036 0.397713
vt 0.374346 0.397713
vt 0.376241 0.400393
vt 0.376241 0.248494
vt 0.374346 0.251175
vt 0.355036 0.251175
vt 0.355036 0.248494
vt 0.328316 0.251175
vt 0.328316 0.248494
vt 0.328316 0.400393
vt 0.328316 0.397713
vt 0.243332 0.702315
vt 0.243332 0.696094
vt 0.260568 0.696094
vt 0.260568 0.702315
vt 0.260568 0.617043
vt 0.260568 0.643309
vt 0.243332 0.643309
vt 0.243332 0.617043
vt 0.284449 0.643309
vt 0.277804 0.643309
vt 0.277804 0.617043
vt 0.284449 0.696094
vt 0.277804 0.702315
vt 0.277804 0.696094
vt 0.236687 0.643309
vt 0.236687 0.696094
vt 0.244366 0.696094
vt 0.260568 0.696094
vt 0.260568 0.643309
vt 0.244366 0.643309
vt 0.282949 0.643309
vt 0.276770 0.643309
vt 0.282949 0.696094
vt 0.276770 0.696094
vt 0.238187 0.643309
vt 0.238187 0.696094
vt 0.211882 0.541692
vt 0.214265 0.541692
vt 0.221180 0.541692
vt 0.231951 0.541692
vt 0.245523 0.541692
vt 0.260568 0.541692
vt 0.275613 0.541692
vt 0.289184 0.541692
vt 0.299955 0.541692
vt 0.306871 0.541692
vt 0.309253 0.541692
vt 0.306871 0.541692
vt 0.299955 0.541692
vt 0.289184 0.541692
vt 0.275613 0.541692
vt 0.260568 0.541692
vt 0.245523 0.541692
vt 0.231951 0.541692
vt 0.221180 0.541692
vt 0.214265 0.541692
vt 0.215032 0.121687
vt 0.219127 0.121687
vt 0.231011 0.121687
vt 0.249520 0.121687
vt 0.272843 0.121687
vt 0.298697 0.121687
vt 0.324551 0.121687
vt 0.347874 0.121687
vt 0.366383 0.121687
vt 0.378267 0.121687
vt 0.382362 0.121687
vt 0.378267 0.121687
vt 0.366383 0.121687
vt 0.347874 0.121687
vt 0.324551 0.121687
vt 0.298697 0.121687
vt 0.272843 0.121687
vt 0.249520 0.121687
vt 0.231011 0.121687
vt 0.219127 0.121687
vn -1.0000 0.0000 0.0000
vn 0.7097 -0.0000 -0.7045
vn 0.7097 0.0000 -0.7046
vn 0.7096 0.0000 -0.7046
vn -0.1824 -0.9659 -0.1837
vn -0.4982 -0.7071 -0.5018
vn -0.6805 -0.2589 -0.6855
vn -0.6805 0.2588 -0.6855
vn -0.4982 0.7071 -0.5018
vn -0.1824 0.9659 -0.1837
vn 0.1824 0.9659 0.1837
vn 0.4982 0.7071 0.5018
vn 0.6805 0.2588 0.6855
vn 0.6805 -0.2588 0.6855
vn 0.4982 -0.7071 0.5018
vn 0.1824 -0.9659 0.1837
vn 0.0596 0.1446 0.9877
vn 0.1734 0.4211 0.8903
vn 0.2700 0.6556 0.7052
vn 0.3398 0.8250 0.4516
vn 0.3762 0.9135 0.1548
vn 0.3762 0.9133 -0.1564
vn 0.3396 0.8246 -0.4525
vn 0.2700 0.6555 -0.7052
vn 0.1738 0.4220 -0.8898
vn 0.0602 0.1461 -0.9874
vn -0.0596 -0.1446 -0.9877
vn -0.1735 -0.4211 -0.8903
vn -0.2700 -0.6555 -0.7052
vn -0.3398 -0.8250 -0.4516
vn -0.3763 -0.9135 -0.1548
vn -0.3762 -0.9133 0.1564
vn -0.3396 -0.8246 0.4525
vn -0.2700 -0.6556 0.7052
vn -0.1738 -0.4220 0.8898
vn -0.0602 -0.1461 0.9874
vn 0.0168 0.1555 0.9877
vn 0.0487 0.4522 0.8906
vn 0.0758 0.7041 0.7061
vn 0.0956 0.8865 0.4527
vn 0.1060 0.9821 0.1555
vn 0.1062 0.9820 -0.1564
vn 0.0960 0.8863 -0.4531
vn 0.0764 0.7040 -0.7061
vn 0.0493 0.4527 -0.8903
vn 0.0171 0.1564 -0.9876
vn -0.0168 -0.1555 -0.9877
vn -0.0491 -0.4521 -0.8906
vn -0.0765 -0.7040 -0.7061
vn -0.0963 -0.8865 -0.4527
vn -0.1065 -0.9821 -0.1555
vn -0.1062 -0.9820 0.1564
vn -0.0956 -0.8863 0.4532
vn -0.0757 -0.7041 0.7060
vn -0.0486 -0.4527 0.8903
vn -0.0167 -0.1564 0.9875
vn 0.0000 0.1564 0.9877
vn -0.0000 0.4541 0.8909
vn -0.0000 0.7072 0.7070
vn -0.0000 0.8911 0.4538
vn -0.0000 0.9877 0.1563
vn 0.0000 0.9877 -0.1564
vn 0.0000 0.8911 -0.4539
vn 0.0000 0.7072 -0.7070
vn 0.0000 0.4542 -0.8909
vn 0.0000 0.1565 -0.9877
vn -0.0000 -0.1564 -0.9877
vn -0.0000 -0.4541 -0.8910
vn -0.0000 -0.7072 -0.7070
vn -0.0000 -0.8911 -0.4538
vn -0.0000 -0.9877 -0.1563
vn -0.0000 -0.9877 0.1564
vn 0.0000 -0.8911 0.4539
vn 0.0000 -0.7072 0.7070
vn 0.0000 -0.4542 0.8909
vn 0.0000 -0.1565 0.9877
vn 0.1565 -0.0000 0.9877
vn 0.1564 0.0041 0.9877
vn 0.4541 0.0000 0.8910
vn 0.7072 0.0000 0.7070
vn 0.8911 0.0000 0.4539
vn 0.9877 0.0000 0.1564
vn 0.9877 0.0000 -0.1564
vn 0.8911 0.0000 -0.4539
vn 0.7072 0.0000 -0.7070
vn 0.4541 0.0000 -0.8909
vn 0.1565 0.0000 -0.9877
vn 0.1567 0.0042 -0.9876
vn -0.1565 0.0000 -0.9877
vn -0.1563 -0.0041 -0.9877
vn -0.4541 0.0000 -0.8910
vn -0.7072 0.0000 -0.7070
vn -0.8911 0.0000 -0.4539
vn -0.9877 0.0000 -0.1564
vn -0.9877 0.0000 0.1564
vn -0.8911 0.0000 0.4539
vn -0.7072 0.0000 0.7070
vn -0.4541 0.0000 0.8909
vn -0.1565 -0.0000 0.9877
vn -0.1567 -0.0040 0.9876
vn 0.1562 0.0082 0.9877
vn 0.4541 0.0236 0.8906
vn 0.7071 0.0366 0.7062
vn 0.8904 0.0461 0.4529
vn 0.9865 0.0512 0.1557
vn 0.9864 0.0514 -0.1564
vn 0.8902 0.0466 -0.4533
vn 0.7070 0.0372 -0.7062
vn 0.4545 0.0241 -0.8904
vn 0.1569 0.0084 -0.9876
vn -0.1562 -0.0082 -0.9877
vn -0.4540 -0.0241 -0.8907
vn -0.7070 -0.0377 -0.7062
vn -0.8903 -0.0475 -0.4529
vn -0.9864 -0.0525 -0.1557
vn -0.9863 -0.0522 0.1564
vn -0.8901 -0.0469 0.4533
vn -0.7070 -0.0370 0.7062
vn -0.4545 -0.0236 0.8904
vn -0.1570 -0.0080 0.9876
vn 0.1487 0.0485 0.9877
vn 0.4329 0.1412 0.8903
vn 0.6739 0.2198 0.7054
vn 0.8481 0.2767 0.4518
vn 0.9392 0.3065 0.1549
vn 0.9390 0.3064 -0.1564
vn 0.8477 0.2767 -0.4526
vn 0.6739 0.2200 -0.7053
vn 0.4337 0.1416 -0.8899
vn 0.1501 0.0490 -0.9874
vn -0.1487 -0.0485 -0.9877
vn -0.4329 -0.1413 -0.8903
vn -0.6738 -0.2200 -0.7054
vn -0.8481 -0.2769 -0.4518
vn -0.9392 -0.3065 -0.1549
vn -0.9390 -0.3064 0.1564
vn -0.8477 -0.2766 0.4526
vn -0.6739 -0.2198 0.7053
vn -0.4337 -0.1415 0.8899
vn -0.1501 -0.0489 0.9875
vn 0.1287 0.0889 0.9877
vn 0.3748 0.2588 0.8903
vn 0.5834 0.4029 0.7052
vn 0.7342 0.5071 0.4516
vn 0.8129 0.5615 0.1548
vn 0.8127 0.5613 -0.1564
vn 0.7338 0.5068 -0.4525
vn 0.5834 0.4029 -0.7052
vn 0.3755 0.2594 -0.8898
vn 0.1301 0.0898 -0.9874
vn -0.1287 -0.0889 -0.9877
vn -0.3748 -0.2588 -0.8903
vn -0.5834 -0.4029 -0.7052
vn -0.7342 -0.5071 -0.4516
vn -0.8129 -0.5615 -0.1548
vn -0.8127 -0.5613 0.1564
vn -0.7338 -0.5068 0.4525
vn -0.5834 -0.4029 0.7052
vn -0.3755 -0.2594 0.8898
vn -0.1301 -0.0898 0.9874
vn 0.0982 0.1217 0.9877
vn 0.2861 0.3544 0.8903
vn 0.4453 0.5517 0.7052
vn 0.5604 0.6943 0.4516
vn 0.6205 0.7688 0.1548
vn 0.6203 0.7686 -0.1564
vn 0.5601 0.6940 -0.4525
vn 0.4453 0.5517 -0.7052
vn 0.2866 0.3551 -0.8898
vn 0.0993 0.1230 -0.9874
vn -0.0983 -0.1217 -0.9877
vn -0.2861 -0.3544 -0.8903
vn -0.4453 -0.5517 -0.7052
vn -0.5604 -0.6943 -0.4516
vn -0.6205 -0.7688 -0.1548
vn -0.6203 -0.7686 0.1564
vn -0.5601 -0.6939 0.4525
vn -0.4453 -0.5517 0.7052
vn -0.2866 -0.3551 0.8898
vn -0.0993 -0.1230 0.9874
vn 0.0000 -1.0000 -0.0000
vn 0.1564 -0.0000 0.9877
vn 0.0000 1.0000 0.0000
vn 0.4540 -0.0000 0.8910
vn 0.7071 -0.0000 0.7071
vn 0.8910 -0.0000 0.4540
vn 0.8910 0.0000 -0.4540
vn 0.7071 0.0000 -0.7071
vn 0.4540 0.0000 -0.8910
vn 0.1564 0.0000 -0.9877
vn -0.1564 0.0000 -0.9877
vn -0.4540 0.0000 -0.8910
vn -0.7071 0.0000 -0.7071
vn -0.8910 -0.0000 -0.4540
vn -0.8910 -0.0000 0.4540
vn -0.7071 -0.0000 0.7071
vn -0.4540 -0.0000 0.8910
vn -0.1564 -0.0000 0.9877
usemtl Mat
s 1
f 1/1/1 2/2/1 3/3/1 4/4/1 5/5/1 6/6/1 7/7/1 8/8/1 9/9/1 10/10/1 11/11/1 12/12/1 13/13/1 14/14/1 15/15/1 16/16/1 17/17/1 18/18/1 19/19/1 20/20/1
f 21/21/2 22/22/2 23/23/3
f 24/24/2 22/22/2 21/21/2
f 25/25/3 22/22/2 24/24/2
f 26/26/2 22/22/2 25/25/3
f 27/27/2 22/22/2 26/26/2
f 28/28/3 22/22/2 27/27/2
f 29/29/4 22/22/2 28/28/3
f 30/30/4 22/22/2 29/29/4
f 31/31/3 22/22/2 30/30/4
f 32/32/4 22/22/2 31/31/3
f 33/33/4 22/22/2 32/32/4
f 23/23/3 22/22/2 33/33/4
f 34/34/5 21/21/5 23/23/5 35/35/5
f 36/36/6 24/24/6 21/21/6 34/34/6
f 37/37/7 25/25/7 24/24/7 36/36/7
f 38/38/8 26/26/8 25/25/8 37/37/8
f 39/39/9 27/27/9 26/26/9 38/38/9
f 40/40/10 28/28/10 27/27/10 39/39/10
f 41/41/11 29/29/11 28/28/11 40/40/11
f 42/42/12 30/30/12 29/29/12 41/41/12
f 43/43/13 31/31/13 30/30/13 42/42/13
f 44/44/14 32/32/14 31/31/14 43/43/14
f 45/45/15 33/33/15 32/32/15 44/44/15
f 35/35/16 23/23/16 33/33/16 45/45/16
f 46/46/17 47/47/17 48/48/17 49/49/17
f 50/50/18 51/51/18 47/47/18 46/46/18
f 52/52/19 53/53/19 51/51/19 50/50/19
f 54/54/20 55/55/20 53/53/20 52/52/20
f 56/56/21 57/57/21 55/55/21 54/54/21
f 58/58/22 59/59/22 57/57/22 56/56/22
f 60/60/23 61/61/23 59/59/23 58/58/23
f 62/62/24 63/63/24 61/61/24 60/60/24
f 64/64/25 65/65/25 63/63/25 62/62/25
f 66/66/26 67/67/26 65/65/26 64/64/26
f 68/68/27 69/69/27 67/67/27 66/66/27
f 70/70/28 71/71/28 69/69/28 68/68/28
f 72/72/29 73/73/29 71/71/29 70/70/29
f 74/74/30 75/75/30 73/73/30 72/72/30
f 76/76/31 77/77/31 75/75/31 74/74/31
f 78/78/32 79/79/32 77/77/32 76/76/32
f 80/80/33 81/81/33 79/79/33 78/78/33
f 82/82/34 83/83/34 81/81/34 80/80/34
f 84/84/35 85/85/35 83/83/35 82/82/35
f 49/49/36 48/48/36 85/85/36 84/84/36
f 47/47/37 86/86/37 87/87/37 48/48/37
f 51/51/38 88/88/38 86/86/38 47/47/38
f 53/53/39 89/89/39 88/88/39 51/51/39
f 55/55/40 90/90/40 89/89/40 53/53/40
f 57/57/41 91/91/41 90/90/41 55/55/41
f 59/59/42 92/92/42 91/91/42 57/57/42
f 61/61/43 93/93/43 92/92/43 59/59/43
f 63/63/44 94/94/44 93/93/44 61/61/44
f 65/65/45 95/95/45 94/94/45 63/63/45
f 67/67/46 96/96/46 95/95/46 65/65/46
f 69/69/47 97/97/47 96/96/47 67/67/47
f 71/71/48 98/98/48 97/97/48 69/69/48
f 73/73/49 99/99/49 98/98/49 71/71/49
f 75/75/50 100/100/50 99/99/50 73/73/50
f 77/77/51 101/101/51 100/100/51 75/75/51
f 79/79/52 102/102/52 101/101/52 77/77/52
f 81/81/53 103/103/53 102/102/53 79/79/53
f 83/83/54 104/104/54 103/103/54 81/81/54
f 85/85/55 105/105/55 104/104/55 83/83/55
f 48/48/56 87/87/56 105/105/56 85/85/56
f 86/86/57 2/2/57 1/1/57 87/87/57
f 88/88/58 3/3/58 2/2/58 86/86/58
f 89/89/59 4/4/59 3/3/59 88/88/59
f 90/90/60 5/5/60 4/4/60 89/89/60
f 91/91/61 6/6/61 5/5/61 90/90/61
f 92/92/62 7/7/62 6/6/62 91/91/62
f 93/93/63 8/8/63 7/7/63 92/92/63
f 94/94/64 9/9/64 8/8/64 93/93/64
f 95/95/65 10/10/65 9/9/65 94/94/65
f 96/96/66 11/11/66 10/10/66 95/95/66
f 97/97/67 12/12/67 11/11/67 96/96/67
f 98/98/68 13/13/68 12/12/68 97/97/68
f 99/99/69 14/14/69 13/13/69 98/98/69
f 100/100/70 15/15/70 14/14/70 99/99/70
f 101/101/71 16/16/71 15/15/71 100/100/71
f 102/102/72 17/17/72 16/16/72 101/101/72
f 103/103/73 18/18/73 17/17/73 102/102/73
f 104/104/74 19/19/74 18/18/74 103/103/74
f 105/105/75 20/20/75 19/19/75 104/104/75
f 87/87/76 1/1/76 20/20/76 105/105/76
f 106/106/77 107/107/78 108/108/78 109/109/77
f 110/110/79 111/111/79 107/107/79 106/106/79
f 112/112/80 113/113/80 111/111/80 110/110/80
f 114/114/81 115/115/81 113/113/81 112/112/81
f 116/116/82 117/117/82 115/115/82 114/114/82
f 118/118/83 119/119/83 117/117/83 116/116/83
f 120/120/84 121/121/84 119/119/84 118/118/84
f 122/122/85 123/123/85 121/121/85 120/120/85
f 124/124/86 125/125/86 123/123/86 122/122/86
f 126/126/87 127/127/88 125/125/88 124/124/87
f 128/128/89 129/129/90 127/127/90 126/126/89
f 130/130/91 131/131/91 129/129/91 128/128/91
f 132/132/92 133/133/92 131/131/92 130/130/92
f 134/134/93 135/135/93 133/133/93 132/132/93
f 136/136/94 137/137/94 135/135/94 134/134/94
f 138/138/95 139/139/95 137/137/95 136/136/95
f 140/140/96 141/141/96 139/139/96 138/138/96
f 142/142/97 143/143/97 141/141/97 140/140/97
f 144/144/98 145/145/98 143/143/98 142/142/98
f 109/109/99 108/108/100 145/145/100 144/144/99
f 107/107/78 146/146/101 147/147/101 108/108/78
f 111/111/102 148/148/102 146/146/102 107/107/102
f 113/113/103 149/149/103 148/148/103 111/111/103
f 115/115/104 150/150/104 149/149/104 113/113/104
f 117/117/105 151/151/105 150/150/105 115/115/105
f 119/119/106 152/152/106 151/151/106 117/117/106
f 121/121/107 153/153/107 152/152/107 119/119/107
f 123/123/108 154/154/108 153/153/108 121/121/108
f 125/125/109 155/155/109 154/154/109 123/123/109
f 127/127/88 156/156/110 155/155/110 125/125/88
f 129/129/90 157/157/111 156/156/111 127/127/90
f 131/131/112 158/158/112 157/157/112 129/129/112
f 133/133/113 159/159/113 158/158/113 131/131/113
f 135/135/114 160/160/114 159/159/114 133/133/114
f 137/137/115 161/161/115 160/160/115 135/135/115
f 139/139/116 162/162/116 161/161/116 137/137/116
f 141/141/117 163/163/117 162/162/117 139/139/117
f 143/143/118 164/164/118 163/163/118 141/141/118
f 145/145/119 165/165/119 164/164/119 143/143/119
f 108/108/100 147/147/120 165/165/120 145/145/100
f 146/146/121 166/166/121 167/167/121 147/147/121
f 148/148/122 168/168/122 166/166/122 146/146/122
f 149/149/123 169/169/123 168/168/123 148/148/123
f 150/150/124 170/170/124 169/169/124 149/149/124
f 151/151/125 171/171/125 170/170/125 150/150/125
f 152/152/126 172/172/126 171/171/126 151/151/126
f 153/153/127 173/173/127 172/172/127 152/152/127
f 154/154/128 174/174/128 173/173/128 153/153/128
f 155/155/129 175/175/129 174/174/129 154/154/129
f 156/156/130 176/176/130 175/175/130 155/155/130
f 157/157/131 177/177/131 176/176/131 156/156/131
f 158/158/132 178/178/132 177/177/132 157/157/132
f 159/159/133 179/179/133 178/178/133 158/158/133
f 160/160/134 180/180/134 179/179/134 159/159/134
f 161/161/135 181/181/135 180/180/135 160/160/135
f 162/162/136 182/182/136 181/181/136 161/161/136
f 163/163/137 183/183/137 182/182/137 162/162/137
f 164/164/138 184/184/138 183/183/138 163/163/138
f 165/165/139 185/185/139 184/184/139 164/164/139
f 147/147/140 167/167/140 185/185/140 165/165/140
f 166/166/141 186/186/141 187/187/141 167/167/141
f 168/168/142 188/188/142 186/186/142 166/166/142
f 169/169/143 189/189/143 188/188/143 168/168/143
f 170/170/144 190/190/144 189/189/144 169/169/144
f 171/171/145 191/191/145 190/190/145 170/170/145
f 172/172/146 192/192/146 191/191/146 171/171/146
f 173/173/147 193/193/147 192/192/147 172/172/147
f 174/174/148 194/194/148 193/193/148 173/173/148
f 175/175/149 195/195/149 194/194/149 174/174/149
f 176/176/150 196/196/150 195/195/150 175/175/150
f 177/177/151 197/197/151 196/196/151 176/176/151
f 178/178/152 198/198/152 197/197/152 177/177/152
f 179/179/153 199/199/153 198/198/153 178/178/153
f 180/180/154 200/200/154 199/199/154 179/179/154
f 181/181/155 201/201/155 200/200/155 180/180/155
f 182/182/156 202/202/156 201/201/156 181/181/156
f 183/183/157 203/203/157 202/202/157 182/182/157
f 184/184/158 204/204/158 203/203/158 183/183/158
f 185/185/159 205/205/159 204/204/159 184/184/159
f 167/167/160 187/187/160 205/205/160 185/185/160
f 186/186/161 46/46/161 49/49/161 187/187/161
f 188/188/162 50/50/162 46/46/162 186/186/162
f 189/189/163 52/52/163 50/50/163 188/188/163
f 190/190/164 54/54/164 52/52/164 189/189/164
f 191/191/165 56/56/165 54/54/165 190/190/165
f 192/192/166 58/58/166 56/56/166 191/191/166
f 193/193/167 60/60/167 58/58/167 192/192/167
f 194/194/168 62/62/168 60/60/168 193/193/168
f 195/195/169 64/64/169 62/62/169 194/194/169
f 196/196/170 66/66/170 64/64/170 195/195/170
f 197/197/171 68/68/171 66/66/171 196/196/171
f 198/198/172 70/70/172 68/68/172 197/197/172
f 199/199/173 72/72/173 70/70/173 198/198/173
f 200/200/174 74/74/174 72/72/174 199/199/174
f 201/201/175 76/76/175 74/74/175 200/200/175
f 202/202/176 78/78/176 76/76/176 201/201/176
f 203/203/177 80/80/177 78/78/177 202/202/177
f 204/204/178 82/82/178 80/80/178 203/203/178
f 205/205/179 84/84/179 82/82/179 204/204/179
f 187/187/180 49/49/180 84/84/180 205/205/180
f 206/206/181 207/207/181 208/208/181
f 209/209/182 210/210/182 211/211/182 212/212/182
f 213/213/183 106/214/183 109/215/183 214/216/183
f 215/217/181 206/206/181 208/208/181
f 216/218/184 217/219/184 218/220/184 210/210/184
f 219/221/183 110/222/183 106/214/183 213/213/183
f 220/223/181 215/217/181 208/208/181
f 221/224/185 222/225/185 216/218/185 223/226/185
f 224/227/183 112/228/183 110/222/183 219/221/183
f 225/229/181 220/223/181 208/208/181
f 226/230/186 227/231/186 228/232/186 229/233/186
f 230/234/183 114/235/183 112/228/183 224/227/183
f 231/236/181 225/229/181 208/208/181
f 232/237/82 233/238/82 234/239/82 235/240/82
f 236/241/183 116/242/183 114/235/183 230/234/183
f 237/243/181 231/236/181 208/208/181
f 238/244/83 239/245/83 240/246/83 241/247/83
f 242/248/183 118/249/183 116/242/183 236/241/183
f 243/250/181 237/243/181 208/208/181
f 244/251/187 245/252/187 246/253/187 247/254/187
f 248/255/183 120/256/183 118/249/183 242/248/183
f 249/257/181 243/250/181 208/208/181
f 250/258/188 251/259/188 252/260/188 253/261/188
f 254/262/183 122/263/183 120/256/183 248/255/183
f 255/264/181 249/257/181 208/208/181
f 256/265/189 257/266/189 258/267/189 259/268/189
f 260/269/183 124/270/183 122/263/183 254/262/183
f 261/271/181 255/264/181 208/208/181
f 262/272/190 263/273/190 264/274/190 265/275/190
f 266/276/183 126/277/183 124/270/183 260/269/183
f 267/278/181 261/271/181 208/208/181
f 268/279/191 269/280/191 270/281/191 271/282/191
f 272/283/183 128/284/183 126/277/183 266/276/183
f 273/285/181 267/278/181 208/208/181
f 274/286/192 275/287/192 276/288/192 277/289/192
f 278/290/183 130/291/183 128/284/183 272/283/183
f 279/292/181 273/285/181 208/208/181
f 280/293/193 281/294/193 282/295/193 283/296/193
f 284/297/183 132/298/183 130/291/183 278/290/183
f 285/299/181 279/292/181 208/208/181
f 286/300/194 287/301/194 288/302/194 289/303/194
f 290/304/183 134/305/183 132/298/183 284/297/183
f 291/306/181 285/299/181 208/208/181
f 292/307/94 293/308/94 294/309/94 295/310/94
f 296/311/183 136/312/183 134/305/183 290/304/183
f 297/313/181 291/306/181 208/208/181
f 298/314/95 299/315/95 300/316/95 301/317/95
f 302/318/183 138/319/183 136/312/183 296/311/183
f 303/320/181 297/313/181 208/208/181
f 304/321/195 305/322/195 306/323/195 307/324/195
f 308/325/183 140/326/183 138/319/183 302/318/183
f 309/327/181 303/320/181 208/208/181
f 310/328/196 311/329/196 312/330/196 313/331/196
f 314/332/183 142/333/183 140/326/183 308/325/183
f 315/334/181 309/327/181 208/208/181
f 316/335/197 317/336/197 318/337/197 319/338/197
f 320/339/183 144/340/183 142/333/183 314/332/183
f 207/207/181 315/334/181 208/208/181
f 211/211/198 321/341/198 316/335/198 322/342/198
f 214/216/183 109/215/183 144/340/183 320/339/183
f 323/343/181 324/344/181 325/345/181 326/346/181
f 327/347/181 328/348/181 324/344/181 323/343/181
f 329/349/181 330/350/181 328/348/181 327/347/181
f 331/351/181 332/352/181 330/350/181 329/349/181
f 333/353/181 334/354/181 332/352/181 331/351/181
f 335/355/181 336/356/181 334/354/181 333/353/181
f 337/357/181 338/358/181 336/356/181 335/355/181
f 258/359/181 339/360/181 338/358/181 337/357/181
f 257/361/181 340/362/181 339/360/181 258/359/181
f 270/363/181 341/364/181 340/362/181 257/361/181
f 269/365/181 342/366/181 341/364/181 270/363/181
f 282/367/181 343/368/181 342/366/181 269/365/181
f 281/369/181 344/370/181 343/368/181 282/367/181
f 345/371/181 346/372/181 344/370/181 281/369/181
f 347/373/181 348/374/181 346/372/181 345/371/181
f 349/375/181 350/376/181 348/374/181 347/373/181
f 351/377/181 352/378/181 350/376/181 349/375/181
f 353/379/181 354/380/181 352/378/181 351/377/181
f 355/381/181 356/382/181 354/380/181 353/379/181
f 326/346/181 325/345/181 356/382/181 355/381/181
f 324/344/182 213/213/182 214/216/182 325/345/182
f 328/348/184 219/221/184 213/213/184 324/344/184
f 330/350/185 224/227/185 219/221/185 328/348/185
f 332/352/186 230/234/186 224/227/186 330/350/186
f 334/354/82 236/241/82 230/234/82 332/352/82
f 336/356/83 242/248/83 236/241/83 334/354/83
f 338/358/187 248/255/187 242/248/187 336/356/187
f 339/360/188 254/262/188 248/255/188 338/358/188
f 340/362/189 260/269/189 254/262/189 339/360/189
f 341/364/190 266/276/190 260/269/190 340/362/190
f 342/366/191 272/283/191 266/276/191 341/364/191
f 343/368/192 278/290/192 272/283/192 342/366/192
f 344/370/193 284/297/193 278/290/193 343/368/193
f 346/372/194 290/304/194 284/297/194 344/370/194
f 348/374/94 296/311/94 290/304/94 346/372/94
f 350/376/95 302/318/95 296/311/95 348/374/95
f 352/378/195 308/325/195 302/318/195 350/376/195
f 354/380/196 314/332/196 308/325/196 352/378/196
f 356/382/197 320/339/197 314/332/197 354/380/197
f 325/345/198 214/216/198 320/339/198 356/382/198
f 357/383/182 323/384/182 326/385/182 358/386/182
f 217/219/184 359/387/184 360/388/184 218/220/184
f 361/389/185 329/390/185 327/391/185 362/392/185
f 363/393/186 331/394/186 329/390/186 361/389/186
f 364/395/82 333/396/82 331/394/82 363/393/82
f 247/254/83 246/253/83 365/397/83 366/398/83
f 367/399/187 368/400/187 369/401/187 370/402/187
f 259/268/188 258/267/188 337/403/188 371/404/188
f 372/405/189 373/406/189 374/407/189 265/275/189
f 375/408/190 271/282/190 256/265/190 376/409/190
f 262/272/191 377/410/191 378/411/191 277/289/191
f 379/412/192 283/296/192 268/279/192 380/413/192
f 275/287/193 274/286/193 288/302/193 381/414/193
f 382/415/194 345/416/194 281/294/194 280/293/194
f 287/301/94 286/300/94 301/317/94 300/316/94
f 383/417/95 349/418/95 347/419/95 384/420/95
f 299/315/195 298/314/195 313/331/195 312/330/195
f 318/337/196 385/421/196 386/422/196 305/322/196
f 311/329/197 310/328/197 387/423/197 322/342/197
f 358/386/198 326/385/198 355/424/198 388/425/198
f 371/404/187 337/403/187 335/426/187 389/427/187
f 259/268/189 390/428/189 376/409/189 256/265/189
f 271/282/191 375/408/191 380/413/191 268/279/191
f 283/296/193 379/412/193 391/429/193 280/293/193
f 384/420/94 347/419/94 345/416/94 382/415/94
f 386/422/195 351/430/195 349/418/195 383/417/195
f 388/425/197 355/424/197 353/431/197 385/421/197
f 358/386/182 392/432/182 360/388/182 357/383/182
f 362/392/184 327/391/184 323/384/184 357/383/184
f 393/433/185 394/434/185 395/435/185 396/436/185
f 397/437/186 398/438/186 399/439/186 400/440/186
f 401/441/82 402/442/82 403/443/82 404/444/82
f 389/427/83 335/426/83 333/396/83 364/395/83
f 405/445/188 406/446/188 407/447/188 408/448/188
f 271/282/190 270/281/190 257/266/190 256/265/190
f 283/296/192 282/295/192 269/280/192 268/279/192
f 280/293/194 391/429/194 294/309/194 382/415/194
f 293/308/95 292/307/95 307/324/95 306/323/95
f 385/421/196 353/431/196 351/430/196 386/422/196
f 317/336/198 316/335/198 321/341/198 392/432/198
f 409/449/187 410/450/187 411/451/187 412/452/187
f 293/308/94 384/420/94 382/415/94 294/309/94
f 305/322/195 386/422/195 383/417/195 306/323/195
f 317/336/197 388/425/197 385/421/197 318/337/197
f 359/387/184 362/392/184 357/383/184 360/388/184
f 412/452/83 411/451/83 404/444/83 403/443/83
f 376/409/190 264/274/190 263/273/190 375/408/190
f 380/413/192 276/288/192 275/287/192 379/412/192
f 305/322/196 304/321/196 319/338/196 318/337/196
f 390/428/189 413/453/189 264/274/189 376/409/189
f 375/408/191 263/273/191 276/288/191 380/413/191
f 379/412/193 275/287/193 381/414/193 391/429/193
f 392/432/182 321/341/182 218/220/182 360/388/182
f 359/387/185 217/219/185 398/438/185 397/437/185
f 402/442/186 401/441/186 414/454/186 415/455/186
f 400/440/82 399/439/82 366/398/82 365/397/82
f 245/252/188 244/251/188 413/453/188 390/428/188
f 391/429/194 381/414/194 295/310/194 294/309/194
f 306/323/95 383/417/95 384/420/95 293/308/95
f 392/432/198 358/386/198 388/425/198 317/336/198
f 210/210/182 218/220/182 321/341/182 211/211/182
f 210/210/184 209/209/184 223/226/184 216/218/184
f 229/233/185 228/232/185 416/456/185 417/457/185
f 222/225/186 221/224/186 235/240/186 234/239/186
f 241/247/82 240/246/82 227/231/82 226/230/82
f 233/238/83 232/237/83 368/400/83 367/399/83
f 370/402/188 369/401/188 373/406/188 372/405/188
f 265/275/190 374/407/190 377/410/190 262/272/190
f 277/289/192 378/411/192 418/458/192 274/286/192
f 287/301/194 295/310/194 381/414/194 288/302/194
f 299/315/95 307/324/95 292/307/95 300/316/95
f 311/329/196 319/338/196 304/321/196 312/330/196
f 322/342/198 387/423/198 212/212/198 211/211/198
f 253/261/187 252/260/187 239/245/187 238/244/187
f 265/275/189 264/274/189 413/453/189 372/405/189
f 277/289/191 276/288/191 263/273/191 262/272/191
f 274/286/193 418/458/193 289/303/193 288/302/193
f 300/316/94 292/307/94 295/310/94 287/301/94
f 312/330/195 304/321/195 307/324/195 299/315/195
f 322/342/197 316/335/197 319/338/197 311/329/197
f 234/459/186 226/460/186 229/461/186 222/462/186
f 398/463/186 228/464/186 227/465/186 399/466/186
f 367/467/83 238/468/83 241/469/83 233/470/83
f 366/471/83 240/472/83 239/473/83 247/474/83
f 372/475/188 250/476/188 253/477/188 370/478/188
f 413/479/188 251/480/188 250/476/188 372/475/188
f 244/481/188 252/482/188 251/480/188 413/479/188
f 222/462/185 229/461/185 417/483/185 216/484/185
f 217/485/185 416/486/185 228/464/185 398/463/185
f 216/484/185 417/483/185 416/486/185 217/485/185
f 233/470/82 241/469/82 226/460/82 234/459/82
f 399/466/82 227/465/82 240/472/82 366/471/82
f 370/478/187 253/477/187 238/468/187 367/467/187
f 247/474/187 239/473/187 252/482/187 244/481/187
f 362/487/185 393/488/185 396/489/185 361/490/185
f 359/491/185 394/492/185 393/488/185 362/487/185
f 397/493/185 395/494/185 394/492/185 359/491/185
f 363/495/82 419/496/82 420/497/82 364/498/82
f 365/499/82 421/500/82 422/501/82 400/502/82
f 371/503/188 405/504/188 408/505/188 259/506/188
f 390/507/188 407/508/188 406/509/188 245/510/188
f 259/506/188 408/505/188 407/508/188 390/507/188
f 245/510/187 406/509/187 423/511/187 246/512/187
f 389/513/187 424/514/187 405/504/187 371/503/187
f 246/512/83 423/511/83 421/500/83 365/499/83
f 364/498/83 420/497/83 424/514/83 389/513/83
f 400/502/186 422/501/186 395/494/186 397/493/186
f 361/490/186 396/489/186 419/496/186 363/495/186
f 419/515/82 425/516/82 426/517/82 420/518/82
f 421/519/82 427/520/82 428/521/82 422/522/82
f 406/446/187 429/523/187 430/524/187 423/525/187
f 405/445/187 431/526/187 429/523/187 406/446/187
f 424/527/187 432/528/187 431/526/187 405/445/187
f 423/525/83 430/524/83 427/520/83 421/519/83
f 420/518/83 426/517/83 432/528/83 424/527/83
f 422/522/186 428/521/186 433/529/186 395/435/186
f 396/436/186 434/530/186 425/516/186 419/515/186
f 395/435/186 433/529/186 434/530/186 396/436/186
f 425/516/181 401/531/181 404/532/181 426/517/181
f 427/520/183 403/533/183 402/534/183 428/521/183
f 429/523/183 409/535/183 412/536/183 430/524/183
f 431/526/184 410/537/184 409/535/184 429/523/184
f 432/528/181 411/538/181 410/537/181 431/526/181
f 430/524/183 412/536/183 403/533/183 427/520/183
f 426/517/181 404/532/181 411/538/181 432/528/181
f 428/521/183 402/534/183 415/539/183 433/529/183
f 434/530/181 414/540/181 401/531/181 425/516/181
f 433/529/189 415/539/189 414/540/189 434/530/189
f 212/212/181 435/541/181 436/542/181 209/209/181
f 209/209/181 436/542/181 437/543/181 223/226/181
f 223/226/181 437/543/181 438/544/181 221/224/181
f 221/224/181 438/544/181 439/545/181 235/240/181
f 235/240/181 439/545/181 440/546/181 232/237/181
f 232/237/181 440/546/181 441/547/181 368/400/181
f 368/400/181 441/547/181 442/548/181 369/401/181
f 369/401/181 442/548/181 443/549/181 373/406/181
f 373/406/181 443/549/181 444/550/181 374/407/181
f 374/407/181 444/550/181 445/551/181 377/410/181
f 377/410/181 445/551/181 446/552/181 378/411/181
f 378/411/181 446/552/181 447/553/181 418/458/181
f 418/458/181 447/553/181 448/554/181 289/303/181
f 289/303/181 448/554/181 449/555/181 286/300/181
f 286/300/181 449/555/181 450/556/181 301/317/181
f 301/317/181 450/556/181 451/557/181 298/314/181
f 298/314/181 451/557/181 452/558/181 313/331/181
f 313/331/181 452/558/181 453/559/181 310/328/181
f 310/328/181 453/559/181 454/560/181 387/423/181
f 387/423/181 454/560/181 435/541/181 212/212/181
f 435/561/182 207/207/182 206/206/182 436/562/182
f 436/562/184 206/206/184 215/217/184 437/563/184
f 437/563/185 215/217/185 220/223/185 438/564/185
f 438/564/186 220/223/186 225/229/186 439/565/186
f 439/565/82 225/229/82 231/236/82 440/566/82
f 440/566/83 231/236/83 237/243/83 441/567/83
f 441/567/187 237/243/187 243/250/187 442/568/187
f 442/568/188 243/250/188 249/257/188 443/569/188
f 443/569/189 249/257/189 255/264/189 444/570/189
f 444/570/190 255/264/190 261/271/190 445/571/190
f 445/571/191 261/271/191 267/278/191 446/572/191
f 446/572/192 267/278/192 273/285/192 447/573/192
f 447/573/193 273/285/193 279/292/193 448/574/193
f 448/574/194 279/292/194 285/299/194 449/575/194
f 449/575/94 285/299/94 291/306/94 450/576/94
f 450/576/95 291/306/95 297/313/95 451/577/95
f 451/577/195 297/313/195 303/320/195 452/578/195
f 452/578/196 303/320/196 309/327/196 453/579/196
f 453/579/197 309/327/197 315/334/197 454/580/197
f 454/580/198 315/334/198 207/207/198 435/561/198
