# Blender v2.91.2 OBJ File: ''
# www.blender.org
mtllib OLD_TV.mtl
o group970267179
v 0.705008 -0.061990 -0.227928
v 0.705008 -0.061991 0.122072
v 0.705008 -0.241991 0.122072
v 0.705008 -0.241990 -0.227928
v -0.984992 -0.241991 0.122072
v -0.984992 -0.061991 0.122072
v -0.984992 -0.061990 -0.227928
v -0.984992 -0.241990 -0.227928
vt -0.055566 0.075328
vt -0.027086 0.054985
vt -0.037548 0.040338
vt -0.066029 0.060681
vt 0.037548 0.040338
vt 0.027086 0.054985
vt 0.055566 0.075328
vt 0.066029 0.060681
vt -0.077761 -0.057177
vt -0.134602 -0.216332
vt -0.167563 -0.204560
vt -0.110722 -0.045405
vt 0.167563 -0.204560
vt 0.134602 -0.216332
vt 0.077761 -0.057177
vt 0.110722 -0.045405
vt -0.121195 -0.217793
vt -0.137295 -0.209743
vt -0.061715 -0.058585
vt -0.045616 -0.066635
vt 0.061715 -0.058585
vt 0.137295 -0.209743
vt 0.121195 -0.217793
vt 0.045616 -0.066635
vn 1.0000 0.0000 0.0000
vn -1.0000 0.0000 0.0000
vn 0.0000 -1.0000 -0.0000
vn 0.0000 1.0000 0.0000
vn 0.0000 0.0000 -1.0000
vn 0.0000 -0.0000 1.0000
usemtl mat23.001
s 1
f 1/1/1 2/2/1 3/3/1 4/4/1
f 5/5/2 6/6/2 7/7/2 8/8/2
f 3/9/3 5/10/3 8/11/3 4/12/3
f 7/13/4 6/14/4 2/15/4 1/16/4
f 8/17/5 7/18/5 1/19/5 4/20/5
f 2/21/6 6/22/6 5/23/6 3/24/6
o group2129653897
v -0.974993 -0.281992 -0.207928
v -0.974992 1.348010 -0.207928
v -0.974993 1.348010 0.142072
v -0.974993 -0.281992 0.142072
v -1.044992 1.348010 0.142072
v -1.044992 1.348010 -0.207928
v -1.044993 -0.281992 -0.207928
v -1.044993 -0.281991 0.142072
v 0.785008 -0.281991 -0.207928
v 0.785008 1.318010 -0.207928
v 0.785008 1.318010 0.152072
v 0.785008 -0.281991 0.152072
v 0.715008 1.318010 0.152072
v 0.715008 1.318010 -0.207928
v 0.715008 -0.281991 -0.207928
v 0.715008 -0.281991 0.152072
v 0.785008 1.348009 -0.207928
v 0.785008 1.348009 0.172072
v 0.785008 1.278010 0.172072
v 0.785008 1.278010 -0.207928
v -1.044992 1.278010 0.172072
v -1.044992 1.348009 0.172072
v -1.044992 1.348009 -0.207928
v -1.044992 1.278010 -0.207928
v 0.785008 -0.281991 -0.207928
v 0.785008 -0.041990 -0.207928
v 0.785008 -0.041990 -0.087928
v 0.785008 -0.281991 -0.087928
v -1.044992 -0.041990 -0.087928
v -1.044992 -0.041990 -0.207928
v -1.044992 -0.281991 -0.207928
v -1.044992 -0.281991 -0.087928
v 0.755008 1.288010 0.282073
v -0.984992 1.288010 0.282072
v -0.984992 -0.051990 0.282072
v 0.755008 -0.051990 0.282072
v -0.984992 -0.051990 -0.047928
v -0.984992 1.288010 -0.047928
v 0.755008 1.288010 -0.047928
v 0.755008 -0.051990 -0.047928
v 0.745008 -0.031991 0.042072
v 0.745008 1.288009 0.042072
v -0.984992 1.288010 0.042072
v -0.984992 -0.031991 0.042072
v -0.984992 1.288010 -0.027928
v 0.745008 1.288009 -0.027928
v 0.745008 -0.031991 -0.027928
v -0.984992 -0.031991 -0.027928
vt -0.066726 0.056264
vt 0.028016 0.188902
vt 0.056497 0.168559
vt -0.038245 0.035920
vt -0.056497 0.168559
vt -0.028016 0.188902
vt 0.066726 0.056264
vt 0.038245 0.035920
vt 0.262962 -0.145792
vt 0.266092 -0.152053
vt 0.120301 -0.224949
vt 0.117170 -0.218688
vt -0.120300 -0.224949
vt -0.266092 -0.152053
vt -0.262962 -0.145792
vt -0.117170 -0.218688
vt -0.134736 -0.222655
vt -0.167697 -0.210883
vt -0.165343 -0.204291
vt -0.132382 -0.216063
vt 0.165342 -0.204290
vt 0.167697 -0.210882
vt 0.134736 -0.222654
vt 0.132381 -0.216062
vt -0.066726 0.056264
vt 0.026272 0.186461
vt 0.055566 0.165537
vt -0.037432 0.035339
vt -0.055566 0.165537
vt -0.026272 0.186461
vt 0.066726 0.056264
vt 0.037432 0.035339
vt 0.181569 0.010286
vt 0.184699 0.004025
vt 0.041591 -0.067529
vt 0.038460 -0.061268
vt -0.041591 -0.067529
vt -0.184699 0.004025
vt -0.181569 0.010286
vt -0.038460 -0.061268
vt -0.074599 -0.057244
vt -0.108502 -0.045136
vt -0.106148 -0.038544
vt -0.072245 -0.050652
vt 0.106148 -0.038544
vt 0.108502 -0.045136
vt 0.074600 -0.057244
vt 0.072245 -0.050652
vt 0.028016 0.188902
vt 0.058938 0.166815
vt 0.054869 0.161119
vt 0.023947 0.183206
vt -0.054869 0.161119
vt -0.058937 0.166815
vt -0.028016 0.188902
vt -0.023947 0.183206
vt -0.070362 -0.051325
vt -0.131911 -0.223664
vt -0.167697 -0.210883
vt -0.106148 -0.038544
vt 0.167697 -0.210883
vt 0.131911 -0.223664
vt 0.070362 -0.051325
vt 0.106148 -0.038544
vt -0.259831 -0.155183
vt -0.266092 -0.152053
vt -0.184252 0.011628
vt -0.177991 0.008497
vt 0.184252 0.011628
vt 0.266092 -0.152053
vt 0.259831 -0.155183
vt 0.177991 0.008497
vt -0.066726 0.056264
vt -0.052776 0.075793
vt -0.043012 0.068819
vt -0.056961 0.049289
vt 0.043012 0.068819
vt 0.052776 0.075793
vt 0.066726 0.056264
vt 0.056961 0.049289
vt 0.059927 -0.050535
vt 0.141767 -0.214215
vt 0.120301 -0.224948
vt 0.038460 -0.061268
vt -0.120301 -0.224948
vt -0.141767 -0.214215
vt -0.059927 -0.050535
vt -0.038460 -0.061268
vt -0.156396 -0.214919
vt -0.167697 -0.210883
vt -0.106148 -0.038544
vt -0.094847 -0.042580
vt 0.106148 -0.038544
vt 0.167697 -0.210883
vt 0.156396 -0.214919
vt 0.094847 -0.042580
vt 0.180227 0.006261
vt 0.258042 -0.149369
vt 0.138189 -0.209296
vt 0.060374 -0.053666
vt -0.138189 -0.209296
vt -0.258042 -0.149369
vt -0.180227 0.006261
vt -0.060374 -0.053666
vt -0.119534 -0.221713
vt -0.150611 -0.210614
vt -0.092089 -0.046751
vt -0.061011 -0.057850
vt 0.092089 -0.046751
vt 0.150611 -0.210614
vt 0.119534 -0.221713
vt 0.061011 -0.057850
vt -0.040338 0.065680
vt 0.037548 0.174720
vt 0.064401 0.155539
vt -0.013485 0.046499
vt -0.064401 0.155539
vt -0.037548 0.174720
vt 0.040338 0.065680
vt 0.013485 0.046499
vt 0.062610 -0.053666
vt 0.180674 0.005367
vt 0.258042 -0.149369
vt 0.139978 -0.208402
vt -0.258042 -0.149369
vt -0.180674 0.005367
vt -0.062610 -0.053666
vt -0.139978 -0.208402
vt -0.044872 0.169489
vt -0.039176 0.173558
vt 0.037548 0.066145
vt 0.031852 0.062076
vt -0.037548 0.066145
vt 0.039175 0.173558
vt 0.044872 0.169489
vt -0.031852 0.062076
vt -0.148728 -0.211287
vt -0.090542 -0.048365
vt -0.083950 -0.050720
vt -0.142136 -0.213641
vt 0.083949 -0.050720
vt 0.090542 -0.048365
vt 0.148728 -0.211287
vt 0.142136 -0.213641
vn 1.0000 -0.0000 0.0000
vn -1.0000 0.0000 -0.0000
vn -0.0000 -0.0000 1.0000
vn 0.0000 0.0000 -1.0000
vn -0.0000 -1.0000 0.0000
vn 0.0000 1.0000 0.0000
usemtl mat20
s 1
f 9/25/7 10/26/7 11/27/7 12/28/7
f 13/29/8 14/30/8 15/31/8 16/32/8
f 11/33/9 13/34/9 16/35/9 12/36/9
f 15/37/10 14/38/10 10/39/10 9/40/10
f 16/41/11 15/42/11 9/43/11 12/44/11
f 10/45/12 14/46/12 13/47/12 11/48/12
f 17/49/7 18/50/7 19/51/7 20/52/7
f 21/53/8 22/54/8 23/55/8 24/56/8
f 19/57/9 21/58/9 24/59/9 20/60/9
f 23/61/10 22/62/10 18/63/10 17/64/10
f 24/65/11 23/66/11 17/67/11 20/68/11
f 18/69/12 22/70/12 21/71/12 19/72/12
f 25/73/7 26/74/7 27/75/7 28/76/7
f 29/77/8 30/78/8 31/79/8 32/80/8
f 27/81/11 29/82/11 32/83/11 28/84/11
f 31/85/12 30/86/12 26/87/12 25/88/12
f 32/89/10 31/90/10 25/91/10 28/92/10
f 26/93/9 30/94/9 29/95/9 27/96/9
f 33/97/7 34/98/7 35/99/7 36/100/7
f 37/101/8 38/102/8 39/103/8 40/104/8
f 35/105/9 37/106/9 40/107/9 36/108/9
f 39/109/10 38/110/10 34/111/10 33/112/10
f 40/113/11 39/114/11 33/115/11 36/116/11
f 34/117/12 38/118/12 37/119/12 35/120/12
usemtl ScreenTV
f 41/121/9 42/122/9 43/123/9 44/124/9
f 45/125/10 46/126/10 47/127/10 48/128/10
f 43/129/11 45/130/11 48/131/11 44/132/11
f 47/133/12 46/134/12 42/135/12 41/136/12
f 48/137/7 47/138/7 41/139/7 44/140/7
f 42/141/8 46/142/8 45/143/8 43/144/8
usemtl mat23.001
f 49/145/9 50/146/9 51/147/9 52/148/9
f 53/149/10 54/150/10 55/151/10 56/152/10
f 51/153/8 53/154/8 56/155/8 52/156/8
f 55/157/7 54/158/7 50/159/7 49/160/7
f 56/161/11 55/162/11 49/163/11 52/164/11
f 50/165/12 54/166/12 53/167/12 51/168/12
o group1626004127
v 0.710008 0.613010 0.042072
v 0.710008 0.953010 0.029345
v -0.999992 0.953009 0.029345
v -0.999992 0.613010 0.042072
v 0.710008 1.201907 -0.005428
v -0.999992 1.201907 -0.005428
v 0.710008 1.293010 -0.052928
v -0.999992 1.293010 -0.052928
v 0.710008 1.201907 -0.100428
v -0.999992 1.201907 -0.100428
v 0.710008 0.953010 -0.135200
v -0.999992 0.953010 -0.135200
v 0.710008 0.613010 -0.147928
v -0.999992 0.613010 -0.147928
v 0.710008 0.273010 -0.135201
v -0.999992 0.273009 -0.135201
v 0.710008 0.015738 -0.116490
v -0.999993 0.015738 -0.116490
v 0.710008 -0.075365 -0.068990
v -0.999993 -0.075365 -0.068990
v 0.710008 0.024112 -0.005428
v -0.999992 0.024112 -0.005428
v 0.710008 0.273010 0.029344
v -0.999992 0.273010 0.029344
vt -0.004246 -0.326764
vt -0.004246 -0.527746
vt 1.005866 -0.527744
vt 1.005866 -0.326763
vt -0.004246 -0.676200
vt 1.005866 -0.676198
vt -0.004246 -0.736889
vt 1.005866 -0.736889
vt -0.004246 0.916577
vt -0.004246 0.855887
vt 1.005866 0.855886
vt 1.005866 0.916577
vt -0.004246 0.707433
vt 1.005866 0.707433
vt -0.004246 0.506451
vt 1.005866 0.506451
vt -0.004246 0.305471
vt 1.005866 0.305469
vt -0.004246 0.153095
vt 1.005866 0.153097
vt -0.004246 0.092405
vt 1.005866 0.092404
vt -0.004246 0.022671
vt 1.005866 0.022671
vt -0.004246 -0.125782
vt 1.005866 -0.125783
vt -0.044291 0.463492
vt -0.044291 0.585016
vt -0.053377 0.674318
vt -0.069113 0.707469
vt -0.087285 0.675587
vt -0.103021 0.587214
vt -0.112107 0.466031
vt -0.112107 0.344507
vt -0.108865 0.252431
vt -0.093128 0.219280
vt -0.069113 0.253936
vt -0.053377 0.342309
vt 1.082841 0.389184
vt 1.098578 0.300811
vt 1.122594 0.266155
vt 1.138330 0.299306
vt 1.141571 0.391382
vt 1.141571 0.512906
vt 1.132486 0.634090
vt 1.116750 0.722462
vt 1.098579 0.754344
vt 1.082842 0.721193
vt 1.073756 0.631891
vt 1.073756 0.510367
vn 0.6988 -0.0000 0.7153
vn 0.6959 0.0632 0.7154
vn -0.6959 0.0632 0.7154
vn -0.6988 -0.0000 0.7153
vn 0.6708 0.2261 0.7064
vn -0.6708 0.2261 0.7064
vn 0.5519 0.8339 0.0000
vn -0.5519 0.8339 0.0000
vn 0.6708 0.2260 -0.7064
vn -0.6708 0.2261 -0.7064
vn 0.6959 0.0632 -0.7154
vn -0.6959 0.0632 -0.7154
vn 0.6988 0.0000 -0.7153
vn -0.6988 0.0000 -0.7153
vn 0.7032 -0.0391 -0.7099
vn -0.7032 -0.0391 -0.7099
vn 0.6642 -0.2041 -0.7191
vn -0.6642 -0.2041 -0.7191
vn 0.5548 -0.8312 -0.0366
vn -0.5548 -0.8312 -0.0366
vn 0.6621 -0.2596 0.7030
vn -0.6621 -0.2596 0.7030
vn 0.6959 -0.0632 0.7154
vn -0.6959 -0.0632 0.7154
usemtl ScreenTV
s 1
f 57/169/13 58/170/14 59/171/15 60/172/16
f 58/170/14 61/173/17 62/174/18 59/171/15
f 61/173/17 63/175/19 64/176/20 62/174/18
f 63/177/19 65/178/21 66/179/22 64/180/20
f 65/178/21 67/181/23 68/182/24 66/179/22
f 67/181/23 69/183/25 70/184/26 68/182/24
f 69/183/25 71/185/27 72/186/28 70/184/26
f 71/185/27 73/187/29 74/188/30 72/186/28
f 73/187/29 75/189/31 76/190/32 74/188/30
f 75/189/31 77/191/33 78/192/34 76/190/32
f 77/191/33 79/193/35 80/194/36 78/192/34
f 79/193/35 57/169/13 60/172/16 80/194/36
f 60/195/16 59/196/15 62/197/18 64/198/20 66/199/22 68/200/24 70/201/26 72/202/28 74/203/30 76/204/32 78/205/34 80/206/36
f 79/207/35 77/208/33 75/209/31 73/210/29 71/211/27 69/212/25 67/213/23 65/214/21 63/215/19 61/216/17 58/217/14 57/218/13
o group693330270
v 0.795008 1.368010 0.082072
v 0.795008 1.368010 1.192072
v 0.795008 -0.291991 1.192072
v 0.795008 -0.291990 0.082072
v -1.064992 -0.291991 1.192072
v -1.064992 1.368010 1.192072
v -1.064992 1.368010 0.082072
v -1.064992 -0.291990 0.082072
v -1.024992 0.528010 1.142072
v -1.024992 0.923010 1.148101
v 0.725008 0.923009 1.148101
v 0.725008 0.528009 1.142072
v -1.024992 1.212170 1.164572
v 0.725008 1.212170 1.164572
v -1.024992 1.318010 1.187072
v 0.725008 1.318010 1.187072
v -1.024992 1.212170 1.209572
v 0.725008 1.212170 1.209572
v -1.024992 0.923010 1.226043
v 0.725008 0.923009 1.226043
v -1.024992 0.528010 1.232072
v 0.725008 0.528009 1.232072
v -1.024992 0.133009 1.226043
v 0.725008 0.133009 1.226043
v -1.024992 -0.156151 1.209572
v 0.725008 -0.156151 1.209572
v -1.024992 -0.261991 1.187072
v 0.725008 -0.261991 1.187072
v -1.024992 -0.156151 1.164572
v 0.725008 -0.156151 1.164572
v -1.024992 0.133010 1.148101
v 0.725008 0.133009 1.148101
vt 0.052776 0.173674
vt 0.143101 0.109156
vt 0.046615 -0.025923
vt -0.043709 0.038594
vt -0.046615 -0.025923
vt -0.143101 0.109156
vt -0.052776 0.173674
vt 0.043709 0.038594
vt 0.026032 -0.084690
vt -0.036526 -0.259854
vt -0.141060 -0.222520
vt -0.078501 -0.047356
vt 0.141060 -0.222520
vt 0.036526 -0.259854
vt -0.026032 -0.084690
vt 0.078501 -0.047356
vt -0.120301 -0.227185
vt -0.268775 -0.152947
vt -0.185594 0.013416
vt -0.037119 -0.060821
vt 0.185594 0.013416
vt 0.268775 -0.152947
vt 0.120301 -0.227185
vt 0.037119 -0.060821
vt -0.191675 -0.187461
vt -0.227086 -0.169950
vt -0.149516 -0.013081
vt -0.114104 -0.030592
vt -0.226574 -0.172012
vt -0.252697 -0.159502
vt -0.177112 -0.001667
vt -0.150990 -0.014176
vt -0.247910 -0.171068
vt -0.257905 -0.166922
vt -0.190853 -0.005277
vt -0.180858 -0.009423
vt 0.256985 -0.145614
vt 0.247558 -0.150925
vt 0.161665 0.001547
vt 0.171093 0.006858
vt 0.252450 -0.153955
vt 0.226748 -0.167307
vt 0.146072 -0.012013
vt 0.171774 0.001339
vt 0.227130 -0.168686
vt 0.191872 -0.186505
vt 0.112937 -0.030318
vt 0.148194 -0.012499
vt 0.191798 -0.187400
vt 0.156386 -0.204911
vt 0.078816 -0.048042
vt 0.114227 -0.030531
vt 0.155838 -0.205886
vt 0.129716 -0.218395
vt 0.054132 -0.060560
vt 0.080254 -0.048051
vt 0.125147 -0.221991
vt 0.115152 -0.226137
vt 0.048101 -0.064492
vt 0.058096 -0.060346
vt -0.122334 -0.221467
vt -0.131762 -0.216156
vt -0.045870 -0.063685
vt -0.036442 -0.068996
vt -0.131449 -0.216815
vt -0.157151 -0.203463
vt -0.076475 -0.048169
vt -0.050773 -0.061521
vt -0.156737 -0.204262
vt -0.191995 -0.186443
vt -0.113059 -0.030256
vt -0.077802 -0.048075
vt 0.090208 0.043709
vt 0.113658 0.075501
vt 0.131805 0.098074
vt 0.139788 0.105378
vt 0.135467 0.095458
vt 0.120000 0.070971
vt 0.097532 0.038478
vt 0.074082 0.006686
vt 0.055935 -0.015887
vt 0.047952 -0.023191
vt 0.052273 -0.013271
vt 0.067740 0.011216
vt -0.067740 0.011216
vt -0.052273 -0.013271
vt -0.047952 -0.023191
vt -0.055935 -0.015887
vt -0.074082 0.006686
vt -0.097532 0.038478
vt -0.120000 0.070971
vt -0.135467 0.095458
vt -0.139788 0.105379
vt -0.131805 0.098074
vt -0.113658 0.075501
vt -0.090208 0.043709
vn 1.0000 0.0000 0.0000
vn -1.0000 0.0000 0.0000
vn 0.0000 -1.0000 -0.0000
vn 0.0000 1.0000 0.0000
vn 0.0000 0.0000 -1.0000
vn 0.0000 -0.0000 1.0000
vn 0.0000 0.0153 -0.9999
vn 0.0000 0.0569 -0.9984
vn 0.0000 0.2079 -0.9781
vn 0.0000 0.2079 0.9781
vn 0.0000 0.0569 0.9984
vn 0.0000 0.0153 0.9999
vn 0.0000 -0.0153 0.9999
vn 0.0000 -0.0569 0.9984
vn 0.0000 -0.2079 0.9781
vn 0.0000 -0.2079 -0.9781
vn 0.0000 -0.0569 -0.9984
vn 0.0000 -0.0153 -0.9999
usemtl mat23.001
s 1
f 81/219/37 82/220/37 83/221/37 84/222/37
f 85/223/38 86/224/38 87/225/38 88/226/38
f 83/227/39 85/228/39 88/229/39 84/230/39
f 87/231/40 86/232/40 82/233/40 81/234/40
f 88/235/41 87/236/41 81/237/41 84/238/41
f 82/239/42 86/240/42 85/241/42 83/242/42
f 89/243/43 90/244/43 91/245/43 92/246/43
f 90/247/44 93/248/44 94/249/44 91/250/44
f 93/251/45 95/252/45 96/253/45 94/254/45
f 95/255/46 97/256/46 98/257/46 96/258/46
f 97/259/47 99/260/47 100/261/47 98/262/47
f 99/263/48 101/264/48 102/265/48 100/266/48
f 101/267/49 103/268/49 104/269/49 102/270/49
f 103/271/50 105/272/50 106/273/50 104/274/50
f 105/275/51 107/276/51 108/277/51 106/278/51
f 107/279/52 109/280/52 110/281/52 108/282/52
f 109/283/53 111/284/53 112/285/53 110/286/53
f 111/287/54 89/288/54 92/289/54 112/290/54
f 92/291/37 91/292/37 94/293/37 96/294/37 98/295/37 100/296/37 102/297/37 104/298/37 106/299/37 108/300/37 110/301/37 112/302/37
f 111/303/38 109/304/38 107/305/38 105/306/38 103/307/38 101/308/38 99/309/38 97/310/38 95/311/38 93/312/38 90/313/38 89/314/38
o group458220756
v 0.575008 -0.201990 0.117072
v 0.579697 -0.201990 0.099572
v 0.579697 -0.491991 0.099572
v 0.575008 -0.491991 0.117072
v 0.592508 -0.201990 0.086761
v 0.592508 -0.491991 0.086761
v 0.610008 -0.201990 0.082072
v 0.610008 -0.491991 0.082072
v 0.627508 -0.201990 0.086761
v 0.627508 -0.491991 0.086761
v 0.640319 -0.201990 0.099572
v 0.640319 -0.491991 0.099572
v 0.645008 -0.201990 0.117072
v 0.645008 -0.491991 0.117072
v 0.640319 -0.201990 0.134572
v 0.640319 -0.491991 0.134572
v 0.627508 -0.201990 0.147383
v 0.627508 -0.491991 0.147383
v 0.610008 -0.201990 0.152072
v 0.610008 -0.491991 0.152072
v 0.592508 -0.201990 0.147383
v 0.592508 -0.491991 0.147383
v 0.579697 -0.201990 0.134572
v 0.579697 -0.491991 0.134572
vt 0.006671 0.031574
vt 0.007826 0.032969
vt 0.030162 0.014473
vt 0.029007 0.013078
vt -0.025157 -0.015821
vt -0.024320 -0.014214
vt 0.001399 -0.027614
vt 0.000562 -0.029221
vt -0.044852 -0.059824
vt -0.044078 -0.058186
vt -0.017857 -0.070574
vt -0.018631 -0.072212
vt -0.063423 -0.080604
vt -0.062523 -0.079032
vt -0.037354 -0.093439
vt -0.038254 -0.095011
vt -0.086102 -0.058006
vt -0.084762 -0.056788
vt -0.065254 -0.078245
vt -0.066594 -0.079464
vt -0.073052 0.027809
vt -0.071267 0.027501
vt -0.076191 -0.001078
vt -0.077976 -0.000770
vt -0.007826 0.032969
vt -0.006671 0.031574
vt -0.029007 0.013078
vt -0.030162 0.014473
vt 0.024320 -0.014214
vt 0.025157 -0.015821
vt -0.000562 -0.029221
vt -0.001399 -0.027614
vt 0.044078 -0.058186
vt 0.044852 -0.059824
vt 0.018631 -0.072212
vt 0.017857 -0.070574
vt 0.062523 -0.079032
vt 0.063423 -0.080604
vt 0.038254 -0.095011
vt 0.037354 -0.093439
vt 0.084762 -0.056788
vt 0.086102 -0.058006
vt 0.066594 -0.079464
vt 0.065253 -0.078245
vt 0.071266 0.027501
vt 0.073052 0.027809
vt 0.077976 -0.000770
vt 0.076191 -0.001078
vt -0.082604 -0.069252
vt -0.084095 -0.068221
vt -0.084870 -0.066584
vt -0.084723 -0.064778
vt -0.083693 -0.063288
vt -0.082056 -0.062512
vt -0.080250 -0.062659
vt -0.078760 -0.063690
vt -0.077984 -0.065327
vt -0.078131 -0.067133
vt -0.079161 -0.068623
vt -0.080798 -0.069399
vt 0.080798 -0.069399
vt 0.079161 -0.068623
vt 0.078131 -0.067133
vt 0.077984 -0.065327
vt 0.078760 -0.063690
vt 0.080250 -0.062659
vt 0.082056 -0.062512
vt 0.083693 -0.063288
vt 0.084723 -0.064778
vt 0.084870 -0.066584
vt 0.084095 -0.068221
vt 0.082604 -0.069252
vn -0.9659 0.0000 -0.2588
vn -0.7071 0.0000 -0.7071
vn -0.2588 0.0000 -0.9659
vn 0.2588 0.0000 -0.9659
vn 0.7071 0.0000 -0.7071
vn 0.9659 0.0000 -0.2588
vn 0.9659 0.0000 0.2588
vn 0.7071 -0.0000 0.7071
vn 0.2588 -0.0000 0.9659
vn -0.2588 -0.0000 0.9659
vn -0.7071 -0.0000 0.7071
vn -0.9659 -0.0000 0.2588
vn 0.0000 -1.0000 -0.0000
vn 0.0000 1.0000 0.0000
usemtl mat20
s 1
f 113/315/55 114/316/55 115/317/55 116/318/55
f 114/319/56 117/320/56 118/321/56 115/322/56
f 117/323/57 119/324/57 120/325/57 118/326/57
f 119/327/58 121/328/58 122/329/58 120/330/58
f 121/331/59 123/332/59 124/333/59 122/334/59
f 123/335/60 125/336/60 126/337/60 124/338/60
f 125/339/61 127/340/61 128/341/61 126/342/61
f 127/343/62 129/344/62 130/345/62 128/346/62
f 129/347/63 131/348/63 132/349/63 130/350/63
f 131/351/64 133/352/64 134/353/64 132/354/64
f 133/355/65 135/356/65 136/357/65 134/358/65
f 135/359/66 113/360/66 116/361/66 136/362/66
f 116/363/67 115/364/67 118/365/67 120/366/67 122/367/67 124/368/67 126/369/67 128/370/67 130/371/67 132/372/67 134/373/67 136/374/67
f 135/375/68 133/376/68 131/377/68 129/378/68 127/379/68 125/380/68 123/381/68 121/382/68 119/383/68 117/384/68 114/385/68 113/386/68
o group1365676106
v -0.894992 -0.221990 0.057072
v -0.890303 -0.221990 0.039572
v -0.890303 -0.511990 0.039572
v -0.894992 -0.511990 0.057072
v -0.877492 -0.221990 0.026761
v -0.877492 -0.511990 0.026761
v -0.859992 -0.221990 0.022072
v -0.859992 -0.511990 0.022072
v -0.842492 -0.221990 0.026761
v -0.842492 -0.511990 0.026761
v -0.829681 -0.221990 0.039572
v -0.829681 -0.511990 0.039572
v -0.824992 -0.221990 0.057072
v -0.824992 -0.511990 0.057072
v -0.829681 -0.221990 0.074572
v -0.829681 -0.511990 0.074572
v -0.842492 -0.221990 0.087383
v -0.842492 -0.511990 0.087383
v -0.859992 -0.221990 0.092072
v -0.859992 -0.511990 0.092072
v -0.877492 -0.221990 0.087383
v -0.877492 -0.511990 0.087383
v -0.890303 -0.221990 0.074572
v -0.890303 -0.511990 0.074572
vt -0.012359 0.005459
vt -0.011203 0.006854
vt 0.011133 -0.011642
vt 0.009977 -0.013038
vt -0.069452 -0.105165
vt -0.068615 -0.103558
vt -0.042897 -0.116958
vt -0.043734 -0.118565
vt -0.103033 -0.187659
vt -0.102259 -0.186021
vt -0.076038 -0.198409
vt -0.076812 -0.200047
vt -0.132997 -0.206176
vt -0.132097 -0.204604
vt -0.106929 -0.219010
vt -0.107829 -0.220583
vt -0.164807 -0.132263
vt -0.163466 -0.131044
vt -0.143958 -0.152502
vt -0.145299 -0.153721
vt -0.116597 0.033282
vt -0.114811 0.032975
vt -0.119736 0.004396
vt -0.121521 0.004703
vt 0.011203 0.006854
vt 0.012359 0.005459
vt -0.009977 -0.013038
vt -0.011133 -0.011642
vt 0.068615 -0.103558
vt 0.069452 -0.105165
vt 0.043734 -0.118565
vt 0.042897 -0.116958
vt 0.102259 -0.186021
vt 0.103033 -0.187659
vt 0.076812 -0.200047
vt 0.076038 -0.198409
vt 0.132097 -0.204604
vt 0.132997 -0.206176
vt 0.107829 -0.220583
vt 0.106929 -0.219010
vt 0.163466 -0.131044
vt 0.164807 -0.132263
vt 0.145299 -0.153721
vt 0.143958 -0.152502
vt 0.114811 0.032975
vt 0.116597 0.033282
vt 0.121521 0.004704
vt 0.119736 0.004396
vt -0.137696 -0.205670
vt -0.139187 -0.204639
vt -0.139962 -0.203002
vt -0.139815 -0.201196
vt -0.138785 -0.199706
vt -0.137148 -0.198931
vt -0.135342 -0.199078
vt -0.133851 -0.200108
vt -0.133076 -0.201745
vt -0.133223 -0.203551
vt -0.134253 -0.205041
vt -0.135890 -0.205817
vt 0.135890 -0.205817
vt 0.134253 -0.205041
vt 0.133223 -0.203551
vt 0.133076 -0.201745
vt 0.133851 -0.200108
vt 0.135342 -0.199078
vt 0.137148 -0.198931
vt 0.138785 -0.199706
vt 0.139815 -0.201196
vt 0.139962 -0.203002
vt 0.139187 -0.204639
vt 0.137696 -0.205670
vn -0.9659 0.0000 -0.2588
vn -0.7071 0.0000 -0.7071
vn -0.2588 0.0000 -0.9659
vn 0.2588 0.0000 -0.9659
vn 0.7071 0.0000 -0.7071
vn 0.9659 0.0000 -0.2588
vn 0.9659 0.0000 0.2588
vn 0.7071 0.0000 0.7071
vn 0.2588 -0.0000 0.9659
vn -0.2588 -0.0000 0.9659
vn -0.7071 -0.0000 0.7071
vn -0.9659 0.0000 0.2588
vn 0.0000 -1.0000 0.0000
vn 0.0000 1.0000 0.0000
usemtl mat20
s 1
f 137/387/69 138/388/69 139/389/69 140/390/69
f 138/391/70 141/392/70 142/393/70 139/394/70
f 141/395/71 143/396/71 144/397/71 142/398/71
f 143/399/72 145/400/72 146/401/72 144/402/72
f 145/403/73 147/404/73 148/405/73 146/406/73
f 147/407/74 149/408/74 150/409/74 148/410/74
f 149/411/75 151/412/75 152/413/75 150/414/75
f 151/415/76 153/416/76 154/417/76 152/418/76
f 153/419/77 155/420/77 156/421/77 154/422/77
f 155/423/78 157/424/78 158/425/78 156/426/78
f 157/427/79 159/428/79 160/429/79 158/430/79
f 159/431/80 137/432/80 140/433/80 160/434/80
f 140/435/81 139/436/81 142/437/81 144/438/81 146/439/81 148/440/81 150/441/81 152/442/81 154/443/81 156/444/81 158/445/81 160/446/81
f 159/447/82 157/448/82 155/449/82 153/450/82 151/451/82 149/452/82 147/453/82 145/454/82 143/455/82 141/456/82 138/457/82 137/458/82
o group1291801872
v -0.934992 -0.221991 0.917072
v -0.930303 -0.221991 0.899572
v -0.930303 -0.511991 0.899572
v -0.934992 -0.511991 0.917072
v -0.917492 -0.221991 0.886761
v -0.917492 -0.511991 0.886761
v -0.899992 -0.221991 0.882072
v -0.899992 -0.511991 0.882072
v -0.882492 -0.221991 0.886761
v -0.882492 -0.511991 0.886761
v -0.869681 -0.221991 0.899572
v -0.869681 -0.511991 0.899572
v -0.864992 -0.221991 0.917072
v -0.864992 -0.511991 0.917072
v -0.869681 -0.221991 0.934572
v -0.869681 -0.511991 0.934572
v -0.882492 -0.221991 0.947383
v -0.882492 -0.511991 0.947383
v -0.899992 -0.221991 0.952072
v -0.899992 -0.511991 0.952072
v -0.917492 -0.221991 0.947383
v -0.917492 -0.511991 0.947383
v -0.930303 -0.221991 0.934572
v -0.930303 -0.511991 0.934572
vt -0.066001 -0.059319
vt -0.064845 -0.057924
vt -0.042509 -0.076420
vt -0.043665 -0.077815
vt -0.098858 -0.161603
vt -0.098021 -0.159997
vt -0.072303 -0.173397
vt -0.073140 -0.175003
vt -0.114192 -0.211278
vt -0.113418 -0.209640
vt -0.087197 -0.222028
vt -0.087971 -0.223666
vt -0.123859 -0.190212
vt -0.122959 -0.188639
vt -0.097791 -0.203046
vt -0.098691 -0.204618
vt -0.121904 -0.093258
vt -0.120564 -0.092040
vt -0.101056 -0.113497
vt -0.102396 -0.114716
vt -0.035754 0.019352
vt -0.033968 0.019045
vt -0.038893 -0.009534
vt -0.040678 -0.009227
vt 0.064845 -0.057924
vt 0.066001 -0.059319
vt 0.043665 -0.077815
vt 0.042509 -0.076420
vt 0.098021 -0.159997
vt 0.098858 -0.161603
vt 0.073140 -0.175003
vt 0.072303 -0.173397
vt 0.113418 -0.209640
vt 0.114192 -0.211278
vt 0.087971 -0.223666
vt 0.087197 -0.222028
vt 0.122959 -0.188639
vt 0.123859 -0.190212
vt 0.098691 -0.204618
vt 0.097791 -0.203046
vt 0.120564 -0.092040
vt 0.121904 -0.093258
vt 0.102396 -0.114716
vt 0.101056 -0.113497
vt 0.033968 0.019045
vt 0.035754 0.019352
vt 0.040678 -0.009227
vt 0.038893 -0.009534
vt -0.058052 -0.238362
vt -0.059542 -0.237331
vt -0.060318 -0.235694
vt -0.060171 -0.233888
vt -0.059140 -0.232398
vt -0.057503 -0.231622
vt -0.055697 -0.231769
vt -0.054207 -0.232800
vt -0.053431 -0.234437
vt -0.053578 -0.236243
vt -0.054609 -0.237733
vt -0.056246 -0.238509
vt 0.056246 -0.238509
vt 0.054609 -0.237733
vt 0.053578 -0.236243
vt 0.053431 -0.234437
vt 0.054207 -0.232800
vt 0.055697 -0.231769
vt 0.057503 -0.231622
vt 0.059140 -0.232398
vt 0.060171 -0.233888
vt 0.060318 -0.235694
vt 0.059542 -0.237331
vt 0.058052 -0.238362
vn -0.9659 0.0000 -0.2588
vn -0.7071 0.0000 -0.7071
vn -0.2588 0.0000 -0.9659
vn 0.2588 0.0000 -0.9659
vn 0.7071 0.0000 -0.7071
vn 0.9659 0.0000 -0.2588
vn 0.9659 0.0000 0.2588
vn 0.7071 0.0000 0.7071
vn 0.2588 0.0000 0.9659
vn -0.2588 0.0000 0.9659
vn -0.7071 0.0000 0.7071
vn -0.9659 0.0000 0.2588
vn 0.0000 -1.0000 -0.0000
vn 0.0000 1.0000 0.0000
usemtl mat20
s 1
f 161/459/83 162/460/83 163/461/83 164/462/83
f 162/463/84 165/464/84 166/465/84 163/466/84
f 165/467/85 167/468/85 168/469/85 166/470/85
f 167/471/86 169/472/86 170/473/86 168/474/86
f 169/475/87 171/476/87 172/477/87 170/478/87
f 171/479/88 173/480/88 174/481/88 172/482/88
f 173/483/89 175/484/89 176/485/89 174/486/89
f 175/487/90 177/488/90 178/489/90 176/490/90
f 177/491/91 179/492/91 180/493/91 178/494/91
f 179/495/92 181/496/92 182/497/92 180/498/92
f 181/499/93 183/500/93 184/501/93 182/502/93
f 183/503/94 161/504/94 164/505/94 184/506/94
f 164/507/95 163/508/95 166/509/95 168/510/95 170/511/95 172/512/95 174/513/95 176/514/95 178/515/95 180/516/95 182/517/95 184/518/95
f 183/519/96 181/520/96 179/521/96 177/522/96 175/523/96 173/524/96 171/525/96 169/526/96 167/527/96 165/528/96 162/529/96 161/530/96
o group1131956557
v 0.575008 -0.221991 0.927072
v 0.579697 -0.221991 0.909572
v 0.579697 -0.511991 0.909572
v 0.575008 -0.511991 0.927072
v 0.592508 -0.221991 0.896761
v 0.592508 -0.511991 0.896761
v 0.610008 -0.221991 0.892072
v 0.610008 -0.511991 0.892072
v 0.627508 -0.221991 0.896761
v 0.627508 -0.511991 0.896761
v 0.640319 -0.221991 0.909572
v 0.640319 -0.511991 0.909572
v 0.645008 -0.221991 0.927072
v 0.645008 -0.511991 0.927072
v 0.640319 -0.221991 0.944572
v 0.640319 -0.511991 0.944572
v 0.627508 -0.221991 0.957383
v 0.627508 -0.511991 0.957383
v 0.610008 -0.221991 0.962072
v 0.610008 -0.511991 0.962072
v 0.592508 -0.221991 0.957383
v 0.592508 -0.511991 0.957383
v 0.579697 -0.221991 0.944572
v 0.579697 -0.511991 0.944572
vt -0.041690 -0.029962
vt -0.040535 -0.028567
vt -0.018199 -0.047063
vt -0.019355 -0.048459
vt -0.049848 -0.067539
vt -0.049011 -0.065933
vt -0.023293 -0.079333
vt -0.024130 -0.080939
vt -0.051999 -0.079634
vt -0.051225 -0.077996
vt -0.025004 -0.090383
vt -0.025778 -0.092021
vt -0.051272 -0.063403
vt -0.050372 -0.061831
vt -0.025204 -0.076238
vt -0.026104 -0.077810
vt -0.042377 -0.020957
vt -0.041037 -0.019738
vt -0.021529 -0.041196
vt -0.022869 -0.042415
vt 0.003712 0.012552
vt 0.005498 0.012244
vt 0.000573 -0.016335
vt -0.001212 -0.016027
vt 0.040535 -0.028567
vt 0.041690 -0.029962
vt 0.019355 -0.048459
vt 0.018199 -0.047063
vt 0.049011 -0.065933
vt 0.049848 -0.067539
vt 0.024130 -0.080939
vt 0.023293 -0.079333
vt 0.051225 -0.077996
vt 0.051999 -0.079634
vt 0.025778 -0.092021
vt 0.025004 -0.090383
vt 0.050372 -0.061831
vt 0.051272 -0.063404
vt 0.026104 -0.077810
vt 0.025204 -0.076238
vt 0.041037 -0.019739
vt 0.042377 -0.020957
vt 0.022869 -0.042415
vt 0.021529 -0.041196
vt -0.005498 0.012244
vt -0.003712 0.012552
vt 0.001212 -0.016027
vt -0.000573 -0.016335
vt -0.006323 -0.096495
vt -0.007813 -0.095465
vt -0.008589 -0.093827
vt -0.008442 -0.092022
vt -0.007412 -0.090531
vt -0.005775 -0.089756
vt -0.003969 -0.089903
vt -0.002478 -0.090933
vt -0.001703 -0.092570
vt -0.001850 -0.094376
vt -0.002880 -0.095866
vt -0.004517 -0.096642
vt 0.004517 -0.096642
vt 0.002880 -0.095866
vt 0.001850 -0.094376
vt 0.001703 -0.092570
vt 0.002478 -0.090933
vt 0.003969 -0.089903
vt 0.005775 -0.089756
vt 0.007412 -0.090531
vt 0.008442 -0.092022
vt 0.008589 -0.093827
vt 0.007813 -0.095465
vt 0.006323 -0.096495
vn -0.9659 0.0000 -0.2588
vn -0.7071 0.0000 -0.7071
vn -0.2588 0.0000 -0.9659
vn 0.2588 0.0000 -0.9659
vn 0.7071 0.0000 -0.7071
vn 0.9659 0.0000 -0.2588
vn 0.9659 0.0000 0.2588
vn 0.7071 0.0000 0.7071
vn 0.2588 0.0000 0.9659
vn -0.2588 0.0000 0.9659
vn -0.7071 0.0000 0.7071
vn -0.9659 0.0000 0.2588
vn 0.0000 -1.0000 -0.0000
vn 0.0000 1.0000 0.0000
usemtl mat20
s 1
f 185/531/97 186/532/97 187/533/97 188/534/97
f 186/535/98 189/536/98 190/537/98 187/538/98
f 189/539/99 191/540/99 192/541/99 190/542/99
f 191/543/100 193/544/100 194/545/100 192/546/100
f 193/547/101 195/548/101 196/549/101 194/550/101
f 195/551/102 197/552/102 198/553/102 196/554/102
f 197/555/103 199/556/103 200/557/103 198/558/103
f 199/559/104 201/560/104 202/561/104 200/562/104
f 201/563/105 203/564/105 204/565/105 202/566/105
f 203/567/106 205/568/106 206/569/106 204/570/106
f 205/571/107 207/572/107 208/573/107 206/574/107
f 207/575/108 185/576/108 188/577/108 208/578/108
f 188/579/109 187/580/109 190/581/109 192/582/109 194/583/109 196/584/109 198/585/109 200/586/109 202/587/109 204/588/109 206/589/109 208/590/109
f 207/591/110 205/592/110 203/593/110 201/594/110 199/595/110 197/596/110 195/597/110 193/598/110 191/599/110 189/600/110 186/601/110 185/602/110
o Cylinder
v 0.591276 -0.079020 -0.260641
v 0.591276 -0.079020 -0.170641
v 0.632421 -0.092389 -0.170641
v 0.632421 -0.092389 -0.260641
v 0.657850 -0.127389 -0.170641
v 0.657850 -0.127389 -0.260641
v 0.657850 -0.170651 -0.170641
v 0.657850 -0.170651 -0.260641
v 0.632421 -0.205651 -0.170641
v 0.632421 -0.205651 -0.260641
v 0.591276 -0.219020 -0.170641
v 0.591276 -0.219020 -0.260641
v 0.550131 -0.205651 -0.170641
v 0.550131 -0.205651 -0.260641
v 0.524702 -0.170651 -0.170641
v 0.524702 -0.170651 -0.260641
v 0.524702 -0.127389 -0.170641
v 0.524702 -0.127389 -0.260641
v 0.550131 -0.092389 -0.170641
v 0.550131 -0.092389 -0.260641
vt 1.000000 0.500000
vt 1.000000 1.000000
vt 0.900000 1.000000
vt 0.900000 0.500000
vt 0.800000 1.000000
vt 0.800000 0.500000
vt 0.700000 1.000000
vt 0.700000 0.500000
vt 0.600000 1.000000
vt 0.600000 0.500000
vt 0.500000 1.000000
vt 0.500000 0.500000
vt 0.400000 1.000000
vt 0.400000 0.500000
vt 0.300000 1.000000
vt 0.300000 0.500000
vt 0.200000 1.000000
vt 0.200000 0.500000
vt 0.391068 0.444164
vt 0.250000 0.490000
vt 0.108932 0.444164
vt 0.021746 0.324164
vt 0.021746 0.175836
vt 0.108932 0.055836
vt 0.250000 0.010000
vt 0.391068 0.055836
vt 0.478254 0.175836
vt 0.478254 0.324164
vt 0.100000 1.000000
vt 0.100000 0.500000
vt -0.000000 1.000000
vt -0.000000 0.500000
vt 0.750000 0.490000
vt 0.891068 0.444164
vt 0.978254 0.324164
vt 0.978254 0.175836
vt 0.891068 0.055836
vt 0.750000 0.010000
vt 0.608932 0.055836
vt 0.521746 0.175836
vt 0.521746 0.324164
vt 0.608932 0.444164
vn 0.3090 0.9511 0.0000
vn 0.8090 0.5878 0.0000
vn 1.0000 0.0000 0.0000
vn 0.8090 -0.5878 -0.0000
vn 0.3090 -0.9511 0.0000
vn -0.3090 -0.9511 -0.0000
vn -0.8090 -0.5878 -0.0000
vn -1.0000 0.0000 0.0000
vn -0.0000 -0.0000 1.0000
vn -0.8090 0.5878 0.0000
vn -0.3090 0.9511 0.0000
vn -0.0000 0.0000 -1.0000
usemtl None
s off
f 209/603/111 210/604/111 211/605/111 212/606/111
f 212/606/112 211/605/112 213/607/112 214/608/112
f 214/608/113 213/607/113 215/609/113 216/610/113
f 216/610/114 215/609/114 217/611/114 218/612/114
f 218/612/115 217/611/115 219/613/115 220/614/115
f 220/614/116 219/613/116 221/615/116 222/616/116
f 222/616/117 221/615/117 223/617/117 224/618/117
f 224/618/118 223/617/118 225/619/118 226/620/118
f 211/621/119 210/622/119 227/623/119 225/624/119 223/625/119 221/626/119 219/627/119 217/628/119 215/629/119 213/630/119
f 226/620/120 225/619/120 227/631/120 228/632/120
f 228/632/121 227/631/121 210/633/121 209/634/121
f 209/635/122 212/636/122 214/637/122 216/638/122 218/639/122 220/640/122 222/641/122 224/642/122 226/643/122 228/644/122
o Cylinder.001
v 0.419173 -0.079020 -0.260641
v 0.419173 -0.079020 -0.170641
v 0.460318 -0.092389 -0.170641
v 0.460318 -0.092389 -0.260641
v 0.485747 -0.127389 -0.170641
v 0.485747 -0.127389 -0.260641
v 0.485747 -0.170651 -0.170641
v 0.485747 -0.170651 -0.260641
v 0.460318 -0.205651 -0.170641
v 0.460318 -0.205651 -0.260641
v 0.419173 -0.219020 -0.170641
v 0.419173 -0.219020 -0.260641
v 0.378028 -0.205651 -0.170641
v 0.378028 -0.205651 -0.260641
v 0.352599 -0.170651 -0.170641
v 0.352599 -0.170651 -0.260641
v 0.352599 -0.127389 -0.170641
v 0.352599 -0.127389 -0.260641
v 0.378028 -0.092389 -0.170641
v 0.378028 -0.092389 -0.260641
vt 1.000000 0.500000
vt 1.000000 1.000000
vt 0.900000 1.000000
vt 0.900000 0.500000
vt 0.800000 1.000000
vt 0.800000 0.500000
vt 0.700000 1.000000
vt 0.700000 0.500000
vt 0.600000 1.000000
vt 0.600000 0.500000
vt 0.500000 1.000000
vt 0.500000 0.500000
vt 0.400000 1.000000
vt 0.400000 0.500000
vt 0.300000 1.000000
vt 0.300000 0.500000
vt 0.200000 1.000000
vt 0.200000 0.500000
vt 0.391068 0.444164
vt 0.250000 0.490000
vt 0.108932 0.444164
vt 0.021746 0.324164
vt 0.021746 0.175836
vt 0.108932 0.055836
vt 0.250000 0.010000
vt 0.391068 0.055836
vt 0.478254 0.175836
vt 0.478254 0.324164
vt 0.100000 1.000000
vt 0.100000 0.500000
vt -0.000000 1.000000
vt -0.000000 0.500000
vt 0.750000 0.490000
vt 0.891068 0.444164
vt 0.978254 0.324164
vt 0.978254 0.175836
vt 0.891068 0.055836
vt 0.750000 0.010000
vt 0.608932 0.055836
vt 0.521746 0.175836
vt 0.521746 0.324164
vt 0.608932 0.444164
vn 0.3090 0.9511 0.0000
vn 0.8090 0.5878 0.0000
vn 1.0000 0.0000 0.0000
vn 0.8090 -0.5878 -0.0000
vn 0.3090 -0.9511 -0.0000
vn -0.3090 -0.9511 -0.0000
vn -0.8090 -0.5878 -0.0000
vn -1.0000 0.0000 0.0000
vn -0.0000 -0.0000 1.0000
vn -0.8090 0.5878 0.0000
vn -0.3090 0.9511 0.0000
vn -0.0000 0.0000 -1.0000
usemtl None
s off
f 229/645/123 230/646/123 231/647/123 232/648/123
f 232/648/124 231/647/124 233/649/124 234/650/124
f 234/650/125 233/649/125 235/651/125 236/652/125
f 236/652/126 235/651/126 237/653/126 238/654/126
f 238/654/127 237/653/127 239/655/127 240/656/127
f 240/656/128 239/655/128 241/657/128 242/658/128
f 242/658/129 241/657/129 243/659/129 244/660/129
f 244/660/130 243/659/130 245/661/130 246/662/130
f 231/663/131 230/664/131 247/665/131 245/666/131 243/667/131 241/668/131 239/669/131 237/670/131 235/671/131 233/672/131
f 246/662/132 245/661/132 247/673/132 248/674/132
f 248/674/133 247/673/133 230/675/133 229/676/133
f 229/677/134 232/678/134 234/679/134 236/680/134 238/681/134 240/682/134 242/683/134 244/684/134 246/685/134 248/686/134
o Cylinder.002
v -0.880849 -0.079020 -0.260641
v -0.880849 -0.079020 -0.170641
v -0.839704 -0.092389 -0.170641
v -0.839704 -0.092389 -0.260641
v -0.814275 -0.127389 -0.170641
v -0.814275 -0.127389 -0.260641
v -0.814275 -0.170651 -0.170641
v -0.814275 -0.170651 -0.260641
v -0.839704 -0.205651 -0.170641
v -0.839704 -0.205651 -0.260641
v -0.880849 -0.219020 -0.170641
v -0.880849 -0.219020 -0.260641
v -0.921994 -0.205651 -0.170641
v -0.921994 -0.205651 -0.260641
v -0.947423 -0.170651 -0.170641
v -0.947423 -0.170651 -0.260641
v -0.947423 -0.127389 -0.170641
v -0.947423 -0.127389 -0.260641
v -0.921994 -0.092389 -0.170641
v -0.921994 -0.092389 -0.260641
vt 1.000000 0.500000
vt 1.000000 1.000000
vt 0.900000 1.000000
vt 0.900000 0.500000
vt 0.800000 1.000000
vt 0.800000 0.500000
vt 0.700000 1.000000
vt 0.700000 0.500000
vt 0.600000 1.000000
vt 0.600000 0.500000
vt 0.500000 1.000000
vt 0.500000 0.500000
vt 0.400000 1.000000
vt 0.400000 0.500000
vt 0.300000 1.000000
vt 0.300000 0.500000
vt 0.200000 1.000000
vt 0.200000 0.500000
vt 0.391068 0.444164
vt 0.250000 0.490000
vt 0.108932 0.444164
vt 0.021746 0.324164
vt 0.021746 0.175836
vt 0.108932 0.055836
vt 0.250000 0.010000
vt 0.391068 0.055836
vt 0.478254 0.175836
vt 0.478254 0.324164
vt 0.100000 1.000000
vt 0.100000 0.500000
vt -0.000000 1.000000
vt -0.000000 0.500000
vt 0.750000 0.490000
vt 0.891068 0.444164
vt 0.978254 0.324164
vt 0.978254 0.175836
vt 0.891068 0.055836
vt 0.750000 0.010000
vt 0.608932 0.055836
vt 0.521746 0.175836
vt 0.521746 0.324164
vt 0.608932 0.444164
vn 0.3090 0.9511 0.0000
vn 0.8090 0.5878 0.0000
vn 1.0000 0.0000 0.0000
vn 0.8090 -0.5878 0.0000
vn 0.3090 -0.9511 0.0000
vn -0.3090 -0.9511 -0.0000
vn -0.8090 -0.5878 -0.0000
vn -1.0000 0.0000 0.0000
vn -0.0000 -0.0000 1.0000
vn -0.8090 0.5878 0.0000
vn -0.3090 0.9511 0.0000
vn -0.0000 0.0000 -1.0000
usemtl None
s off
f 249/687/135 250/688/135 251/689/135 252/690/135
f 252/690/136 251/689/136 253/691/136 254/692/136
f 254/692/137 253/691/137 255/693/137 256/694/137
f 256/694/138 255/693/138 257/695/138 258/696/138
f 258/696/139 257/695/139 259/697/139 260/698/139
f 260/698/140 259/697/140 261/699/140 262/700/140
f 262/700/141 261/699/141 263/701/141 264/702/141
f 264/702/142 263/701/142 265/703/142 266/704/142
f 251/705/143 250/706/143 267/707/143 265/708/143 263/709/143 261/710/143 259/711/143 257/712/143 255/713/143 253/714/143
f 266/704/144 265/703/144 267/715/144 268/716/144
f 268/716/145 267/715/145 250/717/145 249/718/145
f 249/719/146 252/720/146 254/721/146 256/722/146 258/723/146 260/724/146 262/725/146 264/726/146 266/727/146 268/728/146
