# Blender v2.91.2 OBJ File: ''
# www.blender.org
mtllib PC.mtl
o group1624416025
v 0.396050 0.133597 0.154858
v 0.379442 0.446231 0.147892
v 0.066177 0.436134 0.096905
v 0.082785 0.123500 0.103871
v 0.101482 0.440726 -0.084461
v 0.414747 0.450823 -0.033474
v 0.446650 0.145593 -0.158403
v 0.133385 0.135496 -0.209390
v 0.079536 0.122730 0.123984
v 0.392801 0.132827 0.174971
v 0.433964 0.134819 0.161029
v 0.484564 0.146815 -0.152232
v 0.456512 0.147931 -0.219458
v 0.143247 0.137834 -0.270445
v 0.095976 0.134290 -0.215479
v 0.045376 0.122294 0.097782
v 0.396980 0.021328 0.171376
v 0.402086 -0.027458 0.149666
v 0.083715 0.011231 0.120389
v 0.088871 -0.038894 0.098635
v 0.490600 -0.014241 -0.157424
v 0.440000 -0.026237 0.155837
v 0.461650 -0.013338 -0.219086
v 0.148435 -0.024774 -0.270117
v 0.051463 -0.040100 0.092547
v 0.102063 -0.028104 -0.220714
vt 0.215366 0.035145
vt 0.243654 0.048577
vt 0.257963 0.020229
vt 0.229675 0.006797
vt -0.264158 -0.035005
vt -0.256509 -0.004185
vt -0.224309 -0.012000
vt -0.231958 -0.042820
vt -0.239067 0.095235
vt -0.195797 0.099092
vt -0.215720 0.074365
vt 0.195199 0.098611
vt 0.238469 0.094754
vt 0.215122 0.073884
vt -0.021607 -0.123860
vt -0.037152 -0.096171
vt -0.035374 -0.095173
vt -0.019829 -0.122862
vt -0.037053 -0.096517
vt -0.021183 -0.087045
vt -0.005779 -0.114813
vt -0.021650 -0.124286
vt -0.037255 -0.091822
vt -0.009565 -0.076277
vt -0.007684 -0.079628
vt -0.002288 -0.076598
vt 0.013257 -0.104288
vt 0.007861 -0.107317
vt 0.009717 -0.110624
vt -0.017973 -0.126169
vt 0.213307 0.076850
vt 0.204797 0.069624
vt 0.199695 0.067967
vt 0.211987 0.078404
vt 0.225580 -0.014663
vt 0.232815 -0.045582
vt 0.227471 -0.046833
vt -0.204797 0.069623
vt -0.213307 0.076849
vt -0.211988 0.078403
vt -0.199593 0.067879
vt 0.223525 -0.001388
vt 0.209862 0.027278
vt 0.219939 0.032081
vt 0.233602 0.003416
vt -0.218286 0.035550
vt -0.203729 0.028612
vt -0.219939 0.032080
vt 0.009564 -0.076278
vt 0.037254 -0.091823
vt 0.035373 -0.095174
vt 0.002778 -0.076876
vt 0.203729 0.028612
vt 0.218286 0.035550
vt 0.219939 0.032081
vt 0.205383 0.025143
vt 0.199695 0.067966
vt 0.179143 0.092173
vt 0.191436 0.102610
vt 0.211988 0.078403
vt -0.012271 -0.103852
vt 0.003250 -0.076149
vt 0.035860 -0.094419
vt 0.020339 -0.122122
vt 0.235234 -0.000008
vt 0.220557 -0.007004
vt 0.218925 -0.003581
vt 0.233602 0.003415
vt 0.017973 -0.126169
vt -0.009717 -0.110624
vt -0.012766 -0.104564
vt 0.019829 -0.122862
vt -0.220557 -0.007003
vt -0.235234 -0.000007
vt -0.233602 0.003416
vt -0.179041 0.092087
vt -0.199593 0.067880
vt -0.211988 0.078403
vt -0.191435 0.102610
vt -0.187430 0.107328
vt -0.175400 0.096375
vt -0.191435 0.102610
vt 0.187430 0.107328
vt 0.191436 0.102610
vt 0.175502 0.096461
vt -0.217605 -0.000854
vt -0.232180 0.006373
vt -0.218074 0.034823
vt -0.238228 0.092284
vt -0.226356 0.106450
vt -0.194938 0.095920
vt 0.194460 0.096832
vt 0.225877 0.107361
vt 0.237749 0.093195
vt -0.075564 0.193121
vt -0.081874 0.190552
vt -0.083769 0.207525
vt -0.217955 0.014893
vt -0.201204 0.010969
vt -0.204484 0.005031
vt -0.218054 0.034858
vt -0.203599 0.027688
vt -0.217589 -0.000819
vt 0.227148 -0.048288
vt 0.220232 -0.017295
vt 0.225463 -0.016107
vn -0.1611 0.0134 0.9869
vn 0.1359 0.3874 -0.9118
vn -0.9853 -0.0559 -0.1613
vn 0.9853 0.0559 0.1613
vn -0.0374 0.9988 0.0322
vn -0.0352 0.9992 0.0184
vn 0.9865 0.0318 0.1606
vn -0.1334 -0.4083 0.9031
vn -0.1340 -0.4061 0.9039
vn -0.1322 -0.4123 0.9014
vn -0.9865 -0.0318 -0.1606
vn -0.1593 -0.0378 0.9865
vn 0.1593 0.0378 -0.9865
vn 0.0374 -0.9988 -0.0322
vn 0.0395 -0.9987 -0.0319
vn 0.0382 -0.9988 -0.0321
vn 0.1594 0.0378 -0.9865
vn 0.1606 0.0030 -0.9870
vn 0.1605 0.0031 -0.9870
vn 0.1607 0.0029 -0.9870
vn -0.9812 -0.0241 -0.1916
vn 0.9812 0.0241 0.1916
vn 0.8802 0.2395 -0.4097
vn -0.7228 0.1845 -0.6660
vn 0.1607 0.0028 -0.9870
vn -0.1316 -0.4145 0.9005
usemtl Cumputer
s 1
f 1/1/1 2/2/1 3/3/1 4/4/1
f 5/5/2 6/6/2 7/7/2 8/8/2
f 3/9/3 8/10/3 4/11/3
f 7/12/4 2/13/4 1/14/4
f 9/15/5 10/16/5 1/17/5 4/18/5
f 2/19/6 6/20/6 5/21/6 3/22/6
f 11/23/5 12/24/5 7/25/5 1/17/5
f 13/26/5 14/27/5 8/28/5 7/25/5
f 15/29/5 16/30/5 4/18/5 8/28/5
f 10/31/7 17/32/7 18/33/7 1/34/7
f 17/35/8 19/36/9 20/37/10
f 19/38/11 9/39/11 4/40/11 20/41/11
f 19/42/12 17/43/12 10/44/12 9/45/12
f 12/46/13 21/47/13 7/48/13
f 21/49/14 22/50/14 18/51/15 23/52/16
f 22/53/12 11/54/12 1/55/12 18/56/12
f 22/57/7 21/58/7 12/59/7 11/60/7
f 24/61/16 23/62/16 18/63/15 20/64/15
f 16/65/12 25/66/12 20/67/12 4/68/12
f 25/69/14 26/70/14 24/71/16 20/72/15
f 26/73/17 15/74/17 8/75/17
f 26/76/11 25/77/11 16/78/11 15/79/11
f 14/80/11 24/81/11 8/82/11
f 13/83/7 7/84/7 23/85/7
f 24/86/18 14/87/19 13/88/20
f 3/89/21 5/90/21 8/91/21
f 7/92/22 6/93/22 2/94/22
f 21/95/23 23/96/23 7/97/23
f 8/98/24 24/99/24 26/100/24
f 13/101/20 23/102/25 24/103/18
f 20/104/10 18/105/26 17/106/8
o group2130216469
v 0.415725 0.146239 -0.200756
v 0.411184 0.146497 -0.212871
v 0.410787 0.155886 -0.212523
v 0.415329 0.155629 -0.200408
v 0.401197 0.146380 -0.221101
v 0.400801 0.155770 -0.220753
v 0.388443 0.145922 -0.223241
v 0.388047 0.155312 -0.222893
v 0.376337 0.145243 -0.218717
v 0.375941 0.154633 -0.218369
v 0.368125 0.144527 -0.208742
v 0.367728 0.153917 -0.208394
v 0.366005 0.143965 -0.195988
v 0.365609 0.153355 -0.195640
v 0.370547 0.143708 -0.183873
v 0.370151 0.153098 -0.183525
v 0.380533 0.143824 -0.175643
v 0.380136 0.153214 -0.175295
v 0.393287 0.144283 -0.173503
v 0.392891 0.153673 -0.173155
v 0.405393 0.144961 -0.178027
v 0.404997 0.154351 -0.177679
v 0.413606 0.145677 -0.188002
v 0.413209 0.155067 -0.187654
vt -0.001755 0.212879
vt -0.003049 0.212860
vt -0.003063 0.213800
vt -0.001769 0.213820
vt -0.190549 0.102914
vt -0.191362 0.101908
vt -0.192094 0.102499
vt -0.191280 0.103505
vt -0.222501 0.027075
vt -0.223052 0.025904
vt -0.223903 0.026304
vt -0.223353 0.027475
vt -0.227917 0.005003
vt -0.228407 0.003805
vt -0.229278 0.004161
vt -0.228788 0.005359
vt -0.222767 0.026964
vt -0.223321 0.025794
vt -0.224171 0.026196
vt -0.223617 0.027366
vt -0.190345 0.103830
vt -0.191169 0.102832
vt -0.191894 0.103431
vt -0.191070 0.104428
vt 0.003049 0.212860
vt 0.001755 0.212879
vt 0.001769 0.213820
vt 0.003063 0.213800
vt 0.191362 0.101908
vt 0.190549 0.102914
vt 0.191280 0.103505
vt 0.192094 0.102499
vt 0.223052 0.025904
vt 0.222501 0.027075
vt 0.223353 0.027475
vt 0.223903 0.026304
vt 0.228407 0.003805
vt 0.227917 0.005003
vt 0.228788 0.005359
vt 0.229278 0.004161
vt 0.223321 0.025794
vt 0.222767 0.026964
vt 0.223617 0.027366
vt 0.224171 0.026196
vt 0.191169 0.102832
vt 0.190345 0.103830
vt 0.191070 0.104429
vt 0.191894 0.103431
vt -0.001931 -0.079789
vt -0.000637 -0.079797
vt 0.000479 -0.080451
vt 0.001120 -0.081575
vt 0.001112 -0.082869
vt 0.000458 -0.083986
vt -0.000667 -0.084626
vt -0.001961 -0.084618
vt -0.003078 -0.083964
vt -0.003718 -0.082840
vt -0.003710 -0.081546
vt -0.003056 -0.080429
vt 0.003056 -0.080429
vt 0.003710 -0.081545
vt 0.003718 -0.082839
vt 0.003078 -0.083964
vt 0.001961 -0.084618
vt 0.000667 -0.084626
vt -0.000457 -0.083986
vt -0.001111 -0.082869
vt -0.001119 -0.081575
vt -0.000479 -0.080450
vt 0.000638 -0.079796
vt 0.001932 -0.079788
vn 0.9354 0.0525 -0.3496
vn 0.6346 0.0554 -0.7708
vn 0.1638 0.0434 -0.9855
vn -0.3510 0.0199 -0.9362
vn -0.7717 -0.0090 -0.6360
vn -0.9856 -0.0355 -0.1654
vn -0.9354 -0.0524 0.3496
vn -0.6347 -0.0554 0.7708
vn -0.1638 -0.0434 0.9855
vn 0.3510 -0.0199 0.9362
vn 0.7717 0.0090 0.6360
vn 0.9856 0.0355 0.1654
vn -0.0421 0.9984 0.0370
vn 0.0421 -0.9984 -0.0370
usemtl Button
s 1
f 27/107/27 28/108/27 29/109/27 30/110/27
f 28/111/28 31/112/28 32/113/28 29/114/28
f 31/115/29 33/116/29 34/117/29 32/118/29
f 33/119/30 35/120/30 36/121/30 34/122/30
f 35/123/31 37/124/31 38/125/31 36/126/31
f 37/127/32 39/128/32 40/129/32 38/130/32
f 39/131/33 41/132/33 42/133/33 40/134/33
f 41/135/34 43/136/34 44/137/34 42/138/34
f 43/139/35 45/140/35 46/141/35 44/142/35
f 45/143/36 47/144/36 48/145/36 46/146/36
f 47/147/37 49/148/37 50/149/37 48/150/37
f 49/151/38 27/152/38 30/153/38 50/154/38
f 30/155/39 29/156/39 32/157/39 34/158/39 36/159/39 38/160/39 40/161/39 42/162/39 44/163/39 46/164/39 48/165/39 50/166/39
f 49/167/40 47/168/40 45/169/40 43/170/40 41/171/40 39/172/40 37/173/40 35/174/40 33/175/40 31/176/40 28/177/40 27/178/40
o group1981606586
v 0.426051 0.171772 -0.159270
v 0.400516 0.429752 -0.053467
v 0.399410 0.426601 -0.046051
v 0.424946 0.168621 -0.151854
v 0.123186 0.417698 -0.091010
v 0.124292 0.420849 -0.098426
v 0.149828 0.162869 -0.204229
v 0.148722 0.159718 -0.196812
vt 0.027551 0.027549
vt 0.027546 0.972452
vt 0.000100 0.972451
vt 0.000104 0.027548
vt 0.999897 0.972453
vt 0.972451 0.972453
vt 0.972452 0.027550
vt 0.999900 0.027551
vt 0.972453 0.000100
vt 0.027549 0.000103
vt 0.972452 0.999900
vt 0.027548 0.999900
vn 0.7007 -0.2899 -0.6519
vn 0.5954 0.7740 -0.2156
vn 0.4384 0.3266 0.8373
vn 0.5438 -0.7373 0.4010
vn -0.7008 0.2898 0.6519
vn -0.5437 0.7373 -0.4010
vn -0.4384 -0.3266 -0.8373
vn -0.5955 -0.7739 0.2155
usemtl Screen
s 1
f 51/179/41 52/180/42 53/181/43 54/182/44
f 55/183/45 56/184/46 57/185/47 58/186/48
f 57/185/47 56/184/46 52/180/42 51/179/41
f 58/187/48 57/185/47 51/179/41 54/188/44
f 52/180/42 56/184/46 55/189/45 53/190/43
